<svg xmlns="http://www.w3.org/2000/svg" baseProfile="tiny-ps" width="512" height="512" viewBox="0 0 1024 1024" version="1.2"><path d="m504.96 686.01.66.38.81.59.56.43 1.2.94.7.57 1.44 1.19.78.65 2.71 2.27 2.12 1.76 1.12.93 2.27 1.87 1.1.9 2.14 1.75.94.76 6.04 4.91 1.95 1.6.84.7 1.6 1.31.57.48 2.02 1.67 1.55 1.29.82.67 1.64 1.36.79.65 1.54 1.26.66.54 1.78 1.56.95.95.33.39.55.73.11.24.08.41-.16.06-.83.69-.34.72v.39l-.08.74-.14.24-.32.39-.21-.02-1.99-.31-1.81-.35-1.08-.24-2.29-.51-1.27-.3-2.6-.63-1.36-.34-5.56-1.44-2.62-.73-2.57-.73-1.16-.34-2.22-.68-.93-.31-4.9-1.79-3.69-1.48-1.96-.84-8.05-3.57-3.75-1.82-3.65-1.8-1.6-.84-3.05-1.62-1.2-.69-1.14-.68-.47-.29-.86-.57-.32-.24-.56-.45-.16-.18-.21-.31.03-.09.3-.34.42-.36.3-.24 1.48-1.1 1.02-.72 2.22-1.52 1.27-.86 2.64-1.75 1.37-.89 2.75-1.77 1.3-.82 2.54-1.58 1.08-.65 2.01-1.19.7-.38.64-.33.22-.1.38-.15m34.31-76.39 1.02.35 1.02.52.62.37 2.78 1.75 1.48 1.09 1.36 1 1.15.83.68.49 2.96 2.13 1.76 1.26 3.66 2.61 1.95 1.39 3.93 2.79 1.93 1.36 4.93 3.51 2.84 2.05 1.2.88 2.27 1.7.95.73 1.76 1.38.7.58 1.3 1.11.5.47.88.88.31.37.52.68.14.29.2.54v.22l-.12.6-.33.15-.39.12-.29.03-.65.01-.43-.03-.95-.09-.6-.09-1.3-.21-.8-.14-1.7-.33-1.02-.2-2.16-.45-1.26-.26-15.87-4.03-10.42-3.3-5.06-1.94-2.94-1.13-1.56-.63-.59-.3-1.05-.63-.36-.35-.6-.76-.14-.48-.19-1.04.04-.68.18-1.48.21-.95.49-2.06.36-1.29.77-2.79.47-1.72.97-3.16.59-1.6.28-.56.55-.96.27-.25.54-.37z" fill="#A50505"/><path d="m513.04 685.36 3.25 1.4 2.55 1.02 1.41.53 5.87 2.16 2.92.99 2.87.97 1.34.42 2.57.81 1.1.31 2.06.58.76.18 1.34.27h.32l1.13.38.61.55.14.35.41.52.58.57.43.4.93.85.59.52 1.24 1.09.73.62 1.52 1.3.84.71 1.74 1.45.94.78 3.94 3.23 2.13 1.71 4.55 3.69 2.64 2.2 1.14.97 2.16 1.87.91.82 1.7 1.57.7.69 1.28 1.31.5.56.89 1.08.32.47.54.88.15.38.22.72v.31l-.09.18-.17.06-.44.12-.33.04-.74.07-.47.01-1.02.01-.61-.02-2.65-.1-1.62-.12-3.42-.28-1.91-.2-3.95-.44-2.08-.27-4.22-.56-2.12-.32-4.24-.66-1.37-.24.23-.27.14-.24.08-.74v-.39l.34-.72.83-.69.16-.06-.08-.41-.11-.24-.55-.73-.33-.39-.95-.95-1.78-1.56-.66-.54-1.54-1.26-.79-.65-1.64-1.36-.82-.67-1.55-1.29-2.02-1.67-.57-.48-1.6-1.31-.84-.7-1.95-1.6-6.04-4.91-.94-.76-2.14-1.75-1.1-.9-2.27-1.87-1.12-.93-2.12-1.76-2.71-2.27-.78-.65-1.44-1.19-.7-.57-1.2-.94-.56-.43-.81-.59-.66-.38h-.07l-.38.15-.22.1-.64.33-.7.38-2.01 1.19-1.08.65-2.54 1.58-1.3.82-2.75 1.77-1.37.89-2.64 1.75-1.27.86-2.22 1.52-1.02.72-1.48 1.1-.3.24-.42.36-.3.34-.03.09.21.31.15.17-.06-.05-.83-.79-.23-.35-.33-.67.01-.3.13-.57.23-.27.56-.52.43-.25 1.6-.97 1.47-.94.88-.57 1.86-1.2 1.01-.67 2.06-1.36 1.06-.7 4.23-2.84 1.8-1.23 1.71-1.18.7-.49 1.26-.89.41-.31 3.04-2.27m-243.89-72.01 1.41.36 1.44.41.76.29 1.56.64.84.41 1.72.86.92.53 1.9 1.1 1.02.64 5.94 3.7 3.78 2.31 1.79 1.08 3.55 2.11 1.69.99 3.34 1.93 1.6.9 6.24 3.42 2.91 1.48 5.72 2.81 2.73 1.21 5.39 2.3 2.65.98 5.29 1.87 2.68.81 5.39 1.53 2.81.67 5.7 1.3 3.04.58 7.05 1.22 4.4.53 2.48.17 2.55.15 1.43.05 2.98.1 1.7.03 3.56.05 2.06.02 4.3.02h2.49l8.76-.06 5.14-.1 2.28-.1 4.38-.21 1.96-.16 3.79-.36 1.73-.24 3.36-.51 1.59-.33 3.11-.7 1.53-.42 3.03-.91 1.55-.54 3.13-1.14 1.66-.66 2.27-.9 1.24-.48.51-.17.95-.32.39-.11.73-.17.3-.03 1.09.01.47.2.94.52.61.44.87 1.01.84 1.23.53.86 1.14 1.88.67 1.15 1.38 2.42.77 1.38 1.59 2.87.85 1.57 1.73 3.21.9 1.71 3.69 7.02 1.86 3.64 3.71 7.3 1.72 3.48 1.69 3.43.78 1.62 1.52 3.17.69 1.46 1.31 2.81.55 1.24 1.05 2.36.4.97.73 1.79.22.66.36 1.13.02.29.01 1.77-.21.88-.27.36-.66.68-.56.35-1.29.71-.93.45-3.09 1.3-2.6.96-1.51.51-3.15 1.04-1.72.53-3.53 1.07-1.85.53-7.57 2.07-3.7.9-3.66.86-1.72.37-3.37.69-1.51.28-2.55.42-1.9.28-1.04.15-4.34.57-2.33.27-4.71.53-2.3.22-4.52.4-1.99.14-7.89.46-3.87.11-7.7.15-3.8-.05-7.55-.17-3.75-.21-7.46-.5-3.72-.38-7.43-.83-3.71-.54-7.44-1.17-3.75-.71-7.5-1.51-3.79-.88-7.61-1.86-3.87-1.06-10.82-3.2-6.95-2.31-3.37-1.25-6.67-2.58-3.25-1.39-6.44-2.86-3.15-1.55-6.25-3.17-3.08-1.72-6.13-3.51-3.03-1.89-6.05-3.88-3.02-2.08-6.03-4.27-3.02-2.29-2.78-2.2-1.61-1.37-.67-.65-1.28-1.27-.52-.61-.97-1.19-.37-.58-.67-1.14-.23-.56-.4-1.11-.09-.56-.14-2.22.29-1.16.52-1.28.65-1.28.46-.83 1-1.78.61-1.05 1.3-2.19.74-1.22 1.54-2.52.84-1.35 1.73-2.76.91-1.44 3.78-5.92 1.96-3 3.93-5.97 1.87-2.78 1.84-2.73.87-1.27 1.71-2.47.78-1.12 1.51-2.13.66-.91 1.27-1.71.51-.67.96-1.2.35-.39.6-.61.15-.06 3.63-.78M529.5 721.39l-.32-.08-.41-.11m-44.44-18.6.47.29 1.14.68 1.2.69 3.05 1.62 1.6.84 3.65 1.8 3.75 1.82 8.05 3.57 1.96.84 1.65.66-1-.36-3.54-1.51-3.57-1.55-1.84-.84-3.74-1.75-1.95-.96-4.55-2.27-2.55-1.34-1.04-.58-1.94-1.12-.76-.5-.4-.28m-.82-.56.08.06-.22-.16-.39-.33m55.28-101.09 1.08.43.73.31 1.58.68.92.41 1.92.86 1.02.48 3.46 1.52 2.58 1.08 1.33.53 2.64 1.05 1.24.46 2.39.88.98.33 2.75.98 1.57.62.6.27 1.07.5.3.19.43.33-.08.07.07.23.23.27.19.18.97.87.75.58 1.66 1.27 1.02.74 2.17 1.53 1.21.82 4.02 2.74 3.15 2.19 1.73 1.21 7.23 5.08 3.55 2.52 3.49 2.49 1.6 1.15 3.07 2.21 1.28.93 1.24.9.54.4 1.02.76.42.31.78.59.28.22.5.39.13.11 1.17.75.83.31h.31l.59.29.06.44-.17.27-.43.47-.53.14-.6.12-.42.03-.94.05h-.63l-1.37-.02-.88-.03-1.9-.09-1.17-.07-2.51-.16-1.51-.1-3.21-.23-1.9-.13-10.28-1.18.33-.1.33-.15.12-.6v-.22l-.2-.54-.14-.29-.52-.68-.31-.37-.88-.88-.5-.47-1.3-1.11-.7-.58-1.76-1.38-.95-.73-2.27-1.7-1.2-.88-2.84-2.05-4.93-3.51-1.93-1.36-3.93-2.79-1.95-1.39-3.66-2.61-1.76-1.26-2.96-2.13-.68-.49-1.15-.83-1.36-1-1.48-1.09-2.78-1.75-.62-.37-1.02-.52-1.02-.35-.26-.02-.54.37-.27.25-.55.96-.28.56-.59 1.6-.97 3.16-.47 1.72-.77 2.79-.36 1.29-.49 2.06-.21.95-.18 1.48-.04.68.19 1.04.14.48.6.76.36.35 1.05.63.59.3 1.56.63 2.94 1.13 4.63 1.77-.28-.09-4.37-1.68-7.86-3.02.59-4.14.32-2.45.29-2.28.16-1.34.7-5.85.34-2.96.53-4.17.36-2.45.17-.97.34-1.77.14-.54.13-.49.06-.14.11-.22h.05m19.07 38.03 15.33 3.89-4.25-.98-8.91-2.22-4.44-1.36-5.23-1.71M283.85 346.26l.65.23.33.2.68.48.35.34.73.75.39.49.79 1.04.44.64.88 1.36.49.8 1 1.69.55.97 1.14 2.04.62 1.16 1.29 2.42.71 1.35 1.46 2.81.8 1.55 1.66 3.22.91 1.77 3.51 6.84 2.13 4.14.96 1.88 1.86 3.64.84 1.64 1.61 3.17.72 1.42 1.37 2.74.61 1.23 1.17 2.35.51 1.05.97 2 .42.89.8 1.7.34.75.64 1.44.26.63.5 1.21.21.54.7 1.97.21.81.54 2.86.09 1.53.43 5.64.36 3.19.21 1.24.2 1.17.11.49.21.9.11.33.22.6.11.17.22.27h.11l.35.32.25.5.13.37.5 1.75.18 1.11 1.44 5.46.73 1.76.46.89.98 1.79.6.93 1.27 1.89.76.99 1.6 2.04.93 1.09 1.97 2.24 1.13 1.22 2.37 2.51 1.34 1.38 3.85 4.02 2.26 2.5 1.04 1.26 2.03 2.58 1.01 1.42 2.01 2.97 1.07 1.74 1.08 1.8.56.98 1.16 2.03.61 1.11 1.26 2.3.67 1.27 1.38 2.61.75 1.43 1.52 2.97.83 1.62 1.71 3.36.92 1.84 1.9 3.79 1.04 2.07 2.12 4.27 1.16 2.32 2.82 5.62 2.17 4.25 1.13 2.2 2.27 4.4 1.08 2.07 2.1 4.01.9 1.69 1.78 3.39 1 1.94.41.83.76 1.56.3.65.54 1.22.19.51.34.93.1.37.15.69.02.27-.11.89-.26.26-.72.8-.3.43-.56.85-.11.3-.55.28-.77.08h-.56l-1.25-.04-.79-.07-1.67-.16-.99-.12-2.06-.27-1.16-.17-2.39-.37-1.31-.21-5.51-.96-3.07-.59-6.32-1.25-3.34-.71-6.75-1.47-3.41-.8-6.8-1.61-3.28-.84-6.46-1.69-2.97-.85-6.26-1.88-3.94-1.3-1.88-.68-7.23-2.77-3.27-1.53-6.35-3.14-2.92-1.75-5.69-3.62-2.67-2.02-6.75-5.54-4.16-3.88-1.92-2.03-3.71-4.14-1.69-2.17-3.29-4.4-1.48-2.32-2.86-4.7-1.27-2.47-2.45-5.01-1.07-2.63-2.05-5.34-.87-2.8-1.66-5.69-.69-2.98-.43-2.23-.27-1.73-.12-.98-.46-4.18-.18-2.42-.33-5.03-.12-2.71-.19-5.53-.05-2.84-.06-5.69.02-2.78.08-5.51.1-2.56.23-4.97.17-2.17.19-2.11.1-.95.23-1.84.13-.8 1.73-8.6 1.55-6.02.92-2.98 1.91-5.87 1.04-2.7 1.04-2.64.53-1.22 1.07-2.39.53-1.07 1.71-3.2 1.32-2.3.73-1.19 3.08-4.86 1.64-2.38 3.32-4.64 1.57-1.97 1.53-1.9.71-.81 1.38-1.53.61-.58 2.5-2.33 1.44-1.1.65-.27 1.29-.34z" fill="#B50909"/><path d="m535.76 693.49 6.82 1.78 3.38.71 6.72 1.31 3.26.46 6.44.78 3.04.19 3.89.26 2.17.21.96.16 1.83.36.87.27 1.71.61.88.45 1.81.98 1.01.67 2.11 1.46 1.25.94 2.64 2.04 1.59 1.28 1.64 1.33.9.73 1.86 1.51 1.03.83 4.18 3.48 2.29 1.98.89.83 1.63 1.57.58.65 1.01 1.22.28.5.41.92v.36l-.15.67-.27.26-.68.48-.53.18-1.19.33-.77.13-.91.14-.56.06-1.2.13-.69.06-3.01.22-1.79.09-3.75.17-2.04.06-4.18.11-2.15.04-3.97.04v-.25l-.22-.72-.15-.38-.54-.88-.32-.47-.89-1.08-.5-.56-1.28-1.31-.7-.69-1.7-1.57-.91-.82-2.16-1.87-1.14-.97-2.64-2.2-4.55-3.69-2.13-1.71-3.94-3.23-.94-.78-1.74-1.45-.84-.71-1.52-1.3-.73-.62-1.24-1.09-.59-.52-.93-.85-.43-.4-.58-.57-.41-.52-.14-.35-.61-.55-1.13-.38h-.32l-1.34-.27-.76-.18-2.06-.58-1.1-.31-2.57-.81-1.34-.42-2.87-.97-2.75-.93m6.7 31.71 6.03 1.34 1.84.39 4.01.74 2.05.36 4.24.66 2.12.32 4.22.56 2.08.27 3.62.4-2.8-.16-1.05-.11-8.33-1.08-5.58-.93-2.8-.56-11.2-2.51-1.58-.46m-197.93-2.32 1.24.24-.34-.06-1.04-.21m117.54-4.81-2.89.83-5.84 1.6-3.03.71-2.17.48.54-.12 3.7-.9 7.57-2.07 1.85-.53 3.35-1.01m-154.07-2.66 10.82 3.2 3.87 1.06 6.81 1.66-4.3-.95-5.63-1.54-11.18-3.27-1.92-.67m43.82-249.85 2.34 1.69 1.25.78 2.56 1.51 1.41.71 2.9 1.39 1.62.67 3.36 1.31 1.89.64 3.93 1.28 2.22.64 4.61 1.3 2.6.66 5.4 1.36 3.05.72 7.01 1.62 4.61 1.05 2.1.46 2.07.46.94.2 1.84.4.82.17 1.55.33.64.13 1.2.24.45.08 5.12 1.12 1.43.39.55.17.97.33.25.12 1.62 1.07 1.13.97.61.62 1.22 1.34.64.81 1.31 1.7.69 1 1.41 2.08.74 1.19 1.5 2.47.79 1.38 1.61 2.87.84 1.58 1.72 3.26.9 1.79 1.73 3.41 1.28 2.53.7 1.37 2.89 5.68 1.53 3 3.09 6.06 1.5 2.92 1.47 2.89.71 1.37 1.37 2.69.64 1.24 2.07 4.02 1.52 2.96.81 1.59 3.37 6.57 1.77 3.45 3.55 6.92 1.69 3.3 1.68 3.27.79 1.54 1.54 3 .7 1.38 2.26 4.41 1.63 3.18.86 1.67 3.55 6.91 1.81 3.54 3.63 7.05 1.69 3.28 1.66 3.23.77 1.51 1.5 2.91.68 1.31 4.31 8.4 3.03 5.94 1.48 2.9 2.89 5.69 1.27 2.52 1.24 2.45.55 1.1 1.06 2.11.44.89 2.68 5.27 1.72 3.31.77 1.43 1.46 2.69.57 1 .54.93.21.36.4.64.14.19 1.4 2.95.24 2.04-.2 1.2-.22 1.71v.73l.08.21.23.29.2.02.49-.05.35-.13.36.09-.09.35-.18.31-.47.68-.37.44-.8.94-.52.54-2.65 2.99-.61.78-.19.29-.3.48v.1l.41.57.67.52.52.31 1.13.65.72.37.44.21-4.31-1.97-3.04 2.27-.41.31-1.26.89-.7.49-1.71 1.18-1.8 1.23-4.23 2.84-1.06.7-2.06 1.36-1.01.67-1.86 1.2-.88.57-1.47.94-1.6.97-.43.25-.56.52-.23.27-.13.57-.01.3.33.67.23.35.83.79.49.41 1.36.94.76.5 1.94 1.12 1.04.58 2.55 1.34 4.55 2.27 1.95.96 1.76.82-2.27-1.03-2.47-1.24-13.46-6.74-10.11 4.84-3.57 1.58.4-.24.66-.68.27-.36.21-.88-.01-1.77-.02-.29-.36-1.13-.22-.66-.73-1.79-.4-.97-1.05-2.36-.55-1.24-1.31-2.81-.69-1.46-1.52-3.17-.78-1.62-1.69-3.43-1.72-3.48-3.71-7.3-1.86-3.64-3.69-7.02-.9-1.71-1.73-3.21-.85-1.57-1.59-2.87-.77-1.38-1.38-2.42-.67-1.15-1.14-1.88-.53-.86-.84-1.23-.87-1.01-.61-.44-.94-.52-.47-.2-1.09-.01-.3.03-.73.17-.39.11-.95.32-.51.17-1.05.41 4.1-1.83 2.22-1.25 4.29-2.58 1.92-1.44 3.7-2.98 1.61-1.64 3.09-3.38 1.31-1.84 2.47-3.76 1-2.04 1.19-2.43.65-1.39.25-.62.87-2.31.24-1.16.37-2.38.07-1.55.05-1.63.01-.96.01-2.04-.01-1.22-.12-4.73-.2-2.83-.16-1.28-.38-2.48-.27-1.13-.6-2.2-.39-1.02-.83-2-.52-.94-1.11-1.87-.66-.91-1.41-1.81-.82-.92-1.73-1.83-1-.95-4.37-3.82-3.04-2.25-1.67-1-3.44-1.93-1.97-.88-4.11-1.7-2.4-.79-2.45-.79-1.33-.38-2.73-.76-1.47-.38-3.03-.75-1.64-.37-3.37-.75-1.82-.38-3.73-.76-2.01-.38-4.13-.78-2.23-.4-4.56-.81-2.45-.42-5.02-.84-2.7-.45-2.61-.44.44.06.99.12 1.67.16.79.07 1.25.04h.56l.77-.08.55-.28.11-.3.56-.85.3-.43.72-.8.26-.26.11-.89-.02-.27-.15-.69-.1-.37-.34-.93-.19-.51-.54-1.22-.3-.65-.76-1.56-.41-.83-1-1.94-1.78-3.39-.9-1.69-2.1-4.01-1.08-2.07-2.27-4.4-1.13-2.2-2.17-4.25-2.82-5.62-1.16-2.32-2.12-4.27-1.04-2.07-1.9-3.79-.92-1.84-1.71-3.36-.83-1.62-1.52-2.97-.75-1.43-1.38-2.61-.67-1.27-1.26-2.3-.61-1.11-1.16-2.03-.56-.98-1.08-1.8-1.07-1.74-2.01-2.97-1.01-1.42-2.03-2.58-1.04-1.26-2.26-2.5-3.85-4.02-1.34-1.38-1.02-1.07m-69.77 240.57-.75-.34-1.94-1.02m-33.25-21.11 3.02 2.29 6.03 4.27 3.02 2.08 6.01 3.85-1.03-.59-4.29-2.73-2.04-1.37-3.99-2.73-1.84-1.32-3.54-2.63-1.56-1.23-2.25-1.83m-.51-.42-.19-.15-.17-.16m-5.54-6.34.67 1.14.37.58.97 1.19.52.61.47.46-.68-.64-.76-.88-.71-.85-.26-.37-.46-.72-.12-.31-.12-.47m7.2-18.85-.84 1.35-1.54 2.52-.74 1.22-1.3 2.19-.61 1.05-1 1.78-.46.83-.12.24.05-.14.42-.84.93-1.78.6-1.04 1.29-2.17.79-1.27 1.68-2.67 1.01-1.54.49-.77m105.68-1.53 5.59 1.26 2.96.57 6.05.95 4.59.55 2.49.22 5.09.43 2.66.16.46.03-2.93-.1-1.43-.05-2.55-.15-2.48-.17-4.4-.53-7.05-1.22-3.04-.58-5.7-1.3-2.81-.67-.04-.01m88.8.26-1.55.54-3.03.91-1.53.42-3.11.7-1.59.33-3.36.51-1.73.24-2.17.2 7.67-1.25 6.06-1.37 2.81-.83 4.13-1.35m135.84-34.15 3.57 1.06 1.9.48 3.88.94 2.12.45 4.38.87 2.43.43 5.05.85 2.83.43 5.89.87 3.33.46 2.51.72 1.05.49.64.35 1.39.78.86.54 1.85 1.16 1.14.75 2.45 1.62 1.48 1.01 3.17 2.16 1.89 1.31 1.95 1.35 1.07.74 2.18 1.51 1.18.82 2.83 1.99 1.63 1.18.69.52 1.31.99.54.44 1.02.84.41.37 1.37 1.36.36.54.5 1.01v.44l-.17 1.22-.35.57-.37.19-.87.35-.71.13-1.62.24-1.16.12-7.46.66-3.68.17-4.45.14.34-.37.17-.27-.06-.44-.59-.29h-.31l-.83-.31-1.17-.75-.13-.11-.5-.39-.28-.22-.78-.59-.42-.31-1.02-.76-.54-.4-1.24-.9-1.28-.93-3.07-2.21-1.6-1.15-3.49-2.49-3.55-2.52-7.23-5.08-1.73-1.21-3.15-2.19-4.02-2.74-1.21-.82-2.17-1.53-1.02-.74-1.66-1.27-.75-.58-.97-.87-.19-.18-.23-.27-.07-.23.08-.07-.43-.33-.3-.19-1.07-.5-.6-.27-1.57-.62-2.08-.74m31.54 35.27-5.3-.46-3.56-.48-1.72-.26m-2.37-.36-3.01-.45-2.8-.55m-6.01-1.3 1.44.33-3.23-.69-3.54-.92-1.81-.5m-6.21-1.8 2.84.87-1.88-.52-3.54-1.15-3.48-1.17m-284.42-25.14 1.62.45.94.4 1.98.93 1.2.67 2.57 1.48 1.57.99 5.92 3.69 3.76 2.3 1.8 1.08 3.53 2.1 1.69.99 3.34 1.93 1.6.89 6.23 3.43 2.92 1.48 5.71 2.81 2.72 1.21 1.78.76-1.71-.73-2.73-1.21-5.72-2.81-2.91-1.48-6.24-3.42-1.6-.9-3.34-1.93-1.69-.99-3.55-2.11-1.79-1.08-3.78-2.31-5.94-3.7-1.02-.64-1.9-1.1-.92-.53-1.72-.86-.84-.41-1.56-.64-.76-.29-1.44-.41-.45-.12m281.54 23.99-3.56-1.37 3.56 1.37m-291.25-20.6-1.27 1.71-.66.91-1.51 2.13-.78 1.12-1.71 2.47-.87 1.27-1.61 2.39.65-.98 1.71-2.58.75-1.12 1.44-2.12.63-.9 1.21-1.7.53-.71 1-1.33.45-.54.22-.26m5.54-3.37-2.41.53.18-.13.58-.18 1.17-.22m286.97-6.51-.23-.11M326.5 540.81l2.97.85 6.46 1.69 3.28.84 6.8 1.61 3.41.8 4.3.93-2.5-.51-2.53-.55-4.99-1.11-2.37-.57-4.66-1.13-2.22-.58-4.35-1.16-2.06-.59-4.07-1.2-1.92-.61-1.57-.52m265.3-25.49.18.18.35.47.21.38.43.88.25.62.54 1.37.32.89.66 1.94.4 1.21.83 2.58.49 1.55 1.03 3.3.6 1.95 1.15 3.8.43 1.62.79 3.04.26 1.21.43 2.22.07.79.05 1.34-.12.33-.49 1.08-.35.32-.26-.05-.61-.25-.48-.35-1.09-.86-.8-.68-3.34-3.53-1.62-2.65-.54-1.6-.51-1.64-.19-.91-.35-1.89-.12-1.05-.21-2.18-.06-1.22-.08-2.51-.01-1.4.07-3.85.12-2.28.09-.93.19-1.7.12-.56.25-.9.14-.09.47-.12m-271.05 23.57.82.3-.64-.22-1.49-.58m-19.47-9.33-.05-.04-.14-.09m35.62-207.12.75.39.76.45.38.32.78.7.41.46.83.99.44.61.91 1.31.5.78 1.01 1.65.56.97 1.15 2.03.63 1.17 1.31 2.44.73 1.38 1.5 2.88.82 1.61 1.72 3.35.94 1.86 1.96 3.84 1.07 2.12 14.68 28.91-1.7 3.36-1.01 1.63-.77.88-.45.37-.95.67-.58.28-1.22.52-.73.22-4.66 1.65-3.01 1.31-1.45.76-2.84 1.56-1.35.87-2.64 1.79-1.24.97-2.41 1.99-1.1 1.06-2.15 2.17-.96 1.14-1.84 2.31-.79 1.2-1.51 2.43-.62 1.26-1.64 3.61-.71 2.04-.2 1.08-.33 2.24-.07 1.44-.05 1.51-.01.88-.01 1.84v1.08l.18 5.12.29 3.15.25 1.46.55 2.86.37 1.33.83 2.61.47 1.1-.29-.57-.73-1.76-1.44-5.46-.18-1.11-.5-1.75-.13-.37-.25-.5-.35-.32h-.11l-.22-.27-.11-.17-.22-.6-.11-.33-.21-.9-.11-.49-.2-1.17-.21-1.24-.36-3.19-.43-5.64-.09-1.53-.54-2.86-.21-.81-.7-1.97-.21-.54-.5-1.21-.26-.63-.64-1.44-.34-.75-.8-1.7-.42-.89-.97-2-.51-1.05-1.17-2.35-.61-1.23-1.37-2.74-.72-1.42-1.61-3.17-.84-1.64-1.86-3.64-.96-1.88-2.13-4.14-3.51-6.84-.91-1.77-1.66-3.22-.8-1.55-1.46-2.81-.71-1.35-1.29-2.42-.62-1.16-1.14-2.04-.55-.97-1-1.69-.49-.8-.88-1.36-.44-.64-.79-1.04-.39-.49-.73-.75-.35-.34-.68-.48-.33-.2-.65-.23-.64-.16-1.29.34-.65.27-1.23.94 1.16-1.18 1.79-1.65 3.64-3.23 1.91-1.54 3.89-3.01 2.03-1.43 4.13-2.78 2.16-1.31 4.37-2.55 2.27-1.19 4.6-2.32 2.38-1.06 4.83-2.07 2.5-.94 3.22-1.16 1.8-.49.8-.01m-73.91 71.66-.92 2.98-1.55 6.02-1.73 8.6 1.45-7.63 1.19-4.96.7-2.42 1.48-4.79.85-2.34.05-.13z" fill="#C50707"/><path d="m585.91 727.62-4.29.1-8.59.04-4.28-.2-2.67-.17 2.43.05 1.91.04 4.14.02h2.1l4.31-.05 2.15-.04 4.18-.11 2.04-.06 3.73-.17m-39.59-29.73 2.19.25 4.49.48 2.34.19 4.75.34 2.4.11 9.68.29 4.56-.1 4.48-.14 2.09-.14 4.06-.32 1.81-.23 3.64-.46 1.98-.21.84-.03 1.59-.01.72.11 1.41.28.72.28 1.45.66.82.49 1.71 1.12 1.02.75 2.17 1.66 1.34 1.05 1.38 1.1.77.61 1.58 1.27.88.7 3.55 2.95 2.18 1.94.93.88 1.73 1.69.61.68.57.64.21.27.36.5.1.18.72 1.54.15.68-.12.24-.38.43-.42.19-1.02.39-.78.25-2.85.8-2.32.56-1.33.3-2.76.58-1.5.3-3.07.59-1.6.28-6.55 1.11-3.23.46-.33.04h.01l.53-.18.68-.48.27-.26.15-.67v-.36l-.41-.92-.28-.5-1.01-1.22-.58-.65-1.63-1.57-.89-.83-2.29-1.98-4.18-3.48-1.03-.83-1.86-1.51-.9-.73-1.64-1.33-1.59-1.28-2.64-2.04-1.25-.94-2.11-1.46-1.01-.67-1.81-.98-.88-.45-1.71-.61-.87-.27-1.83-.36-.96-.16-2.17-.21-3.89-.26-3.04-.19-6.44-.78-3.26-.46-1.68-.33m-3.09 28.45-.49-.07-.61-.11m-4.92-.96-7.1-1.47-2.9-.76m-5.98-1.72 4.93 1.44-.21-.06-8.3-2.33-4.1-1.38-2.23-.8m-6.4-2.41 3.9 1.51-3.42-1.22-4.01-1.67-1.22-.54m-3.39-1.48-3.37-1.47-3.91-1.96 2.47 1.24m39.31-15.65-.2-.05-.1-.03m-12.94-4.18 2.07.71 2.69.91-1.84-.57-2.62-.91-1.83-.71m-14.7-6.8-.08-.06-.04-.06m-.2-.27-.17-.24v-.1l.01-.01M357.97 468.98l3.93 1.28 2.21.64 4.61 1.3 2.6.66 5.41 1.35 3.04.72 7.56 1.74 5.48 1.22 2.74.6 5.42 1.17 2.47.51 2.41.5 1.1.23 2.12.43.93.18 6.49 1.31 4.13.86 1.98.44 7.75 1.75 3.7.93 7.32 1.89 3.68 1.04 7.39 2.16 3.89 1.21 10.32 3.56 3.5 1.32 1.68.67 3.3 1.33 1.51.64 2.92 1.25 1.24.57 2.34 1.1.88.46 1.57.86.42.31.37.3.08.11.09.2-.06.06.23.66.56.82.46.56 1.01 1.2.64.7 1.35 1.45.77.78 2.81 3.14 1.8 2.32.89 1.31 1.77 2.72.89 1.54 1.79 3.21.92 1.81 1.31 2.57 1.06 2.08.62 1.21 1.27 2.5.71 1.38 1.44 2.83.77 1.51 3.18 6.25 1.66 3.25 3.35 6.55 1.6 3.14 4.52 8.98 1.36 2.74.62 1.26 1.2 2.46.53 1.09 1 2.1.42.9.78 1.68.3.66.53 1.2.15.4.24.64v.1l.37 2.16.56 1.4.38.57.78 1.05.42.3.83.4.36-.13 1-.03.31.44-.05.41-.24 2.05-.06 1.16.04.5.12.94.14.41.35.8.28.37.63.71.44.35.96.7.62.36 1.34.75.83.42 1.77.86 1.07.5 7.69 3.39 4.13 1.65-.11-.04-1.71-.63-3.47-1.42-5.43-2.41-1.05-.49-1.96-.88-.95-.42-1.62-.7-.75-.32-1.1-.44-.86-.28h-.05l-.11.22-.06.14-.13.49-.14.54-.34 1.77-.17.97-.36 2.45-.53 4.17-.34 2.96-.7 5.85-.16 1.34-.29 2.28-.32 2.45-.59 4.14 6.8 2.61-.63-.2-1.25-.41-.54-.17-1.01-.33-.41-.12-.74-.23-.26-.07-.44-.12-.09-.02-.77.58-.66 1.05-.39.84-.82 1.88-.47 1.22-.95 2.64-.52 1.58-4.37 11.39-3.39 7.22-1.83 3.28-1.86 3.21-.95 1.49-1.91 2.9-.96 1.31-1.93 2.54-.96 1.1-1.91 2.11-.9.84 1.1-1.25.52-.54.8-.94.37-.44.47-.68.18-.31.09-.35-.36-.09-.35.13-.49.05-.2-.02-.23-.29-.08-.21v-.73l.22-1.71.2-1.2-.24-2.04-1.4-2.95-.14-.19-.4-.64-.21-.36-.54-.93-.57-1-1.46-2.69-.77-1.43-1.72-3.31-2.68-5.27-.44-.89-1.06-2.11-.55-1.1-1.24-2.45-1.27-2.52-2.89-5.69-1.48-2.9-3.03-5.94-4.31-8.4-.68-1.31-1.5-2.91-.77-1.51-1.66-3.23-1.69-3.28-3.63-7.05-1.81-3.54-3.55-6.91-.86-1.67-1.63-3.18-2.26-4.41-.7-1.38-1.54-3-.79-1.54-1.68-3.27-1.69-3.3-3.55-6.92-1.77-3.45-3.37-6.57-.81-1.59-1.52-2.96-2.07-4.02-.64-1.24-1.37-2.69-.71-1.37-1.47-2.89-1.5-2.92-3.09-6.06-1.53-3-2.89-5.68-.7-1.37-1.28-2.53-1.73-3.41-.9-1.79-1.72-3.26-.84-1.58-1.61-2.87-.79-1.38-1.5-2.47-.74-1.19-1.41-2.08-.69-1-1.31-1.7-.64-.81-1.22-1.34-.61-.62-1.13-.97-1.62-1.07-.25-.12-.97-.33-.55-.17-1.43-.39-5.12-1.12-.45-.08-1.2-.24-.64-.13-1.55-.33-.82-.17-1.84-.4-.94-.2-2.07-.46-2.1-.46-4.61-1.05-7.01-1.62-3.05-.72-5.4-1.36-2.6-.66-4.61-1.3-2.22-.64-3.93-1.28-1.5-.51m233.61 147.17 5.75.44 3.06.13 6.26.21 3.36.02 3.82.03 2.3.01 1.04.02 3.85.06 1.57.07 2.95.19 1.24.17 2.35.41 1.06.33 2.09.73 1.05.52 2.13 1.15 1.19.77 2.51 1.67 1.5 1.06 1.55 1.1.85.62 1.78 1.27.98.7 3.38 2.47 1.97 1.48.85.67 1.59 1.28.66.57 1.23 1.09.49.47.87.91.31.4.54.74.14.31.21.58-.02.23-.12.43-.17.17-.66.29-.83.26-.58.16-1.28.32-.78.18-1.66.38-.94.2-4.07.84-2.33.43-4.81.87-2.49.41-4.04.55-3.12.32-1.71.14-3.51.26-1.38.08 4.7-.41 1.16-.12 1.62-.24.71-.13.87-.35.37-.19.35-.57.17-1.22v-.44l-.5-1.01-.36-.54-1.37-1.36-.41-.37-1.02-.84-.54-.44-1.31-.99-.69-.52-1.63-1.18-2.83-1.99-1.18-.82-2.18-1.51-1.07-.74-1.95-1.35-1.89-1.31-3.17-2.16-1.48-1.01-2.45-1.62-1.14-.75-1.85-1.16-.86-.54-1.39-.78-.64-.35-1.05-.49-2.51-.72-3.33-.46-3.55-.53m-2.93-135.77.39.77.44 1.13.3.84.65 1.84.39 1.15.83 2.45.47 1.42.96 2.94.53 1.62 1.07 3.32.57 1.77 2.32 7.32 1.19 3.81 2.37 7.64 1.11 3.64 1.09 3.59.51 1.69.99 3.31.45 1.52.86 2.92.37 1.28.68 2.43.27.99.49 1.81.15.65.25 1.1.03.24.33 1.43.37.98.21.34.16.6-.11.39-.16.18-.38.37-.29.18-.66.35-.42.16-1.57.52-.78.18-1.5.28h-.47l-1.19-.17-.95-.25-.53-.19-2.23-.89-1.17-.6-.72-.4.25-.22.49-1.08.12-.33-.05-1.34-.07-.79-.43-2.22-.26-1.21-.79-3.04-.43-1.62-1.15-3.8-.6-1.95-1.03-3.3-.49-1.55-.83-2.58-.4-1.21-.66-1.94-.32-.89-.54-1.37-.25-.62-.43-.88-.21-.38-.35-.47-.18-.18-.31-.13-.47.12-.14.09-.25.9-.12.56-.19 1.7-.09.93-.12 2.28-.01.61v-.22l-.03-2.48-.01-1.36-.02-2.81v-1.53l-.01-3.16.01-1.73.06-10.1.05-3.08.02-1.41.06-2.75.04-1.22.07-2.34.04-.99.09-1.86.04-.73.1-1.31.05-.42.1-.68.05-.09.88-.63.73-.04m-.85 56.98.54 1.6 1.62 2.65 3.29 3.47-1.11-.81-.59-.65-1.64-1.93-.89-1.29-.37-.71-.67-1.5-.26-.9-.24-.96m-229.15-67.24h-.01l-1.67-.66m-3.31-1.32-.35-.17m-3.96-1.93-.98-.58m-2.83-1.71-1.91-1.38m-.43-.31-3.37-2.78 3.38 2.78m-11.46-53.66.67-1.02.07-.08m-78.82-5.18.12-.61.44-1.71m132.11-88.31.63.07.21.05.34.12.05.07.46.41.52.34.35.2 1.59.81.91.37 1.22.55.76.5.43.45.91 1.08.59.89.62.95.36.59.75 1.26.43.77.91 1.61.52.96 1.1 2.03.63 1.18 1.32 2.48.74 1.43 1.56 2.99.89 1.7 1.83 3.54 1.03 2 2.14 4.15 1.19 2.32 2.46 4.81 1.37 2.67 2.83 5.52 1.56 3.04 9.79 19.12-3.52 1.68-2.24.85-1.59.32-1.07.03-1.12.01-.67-.02-1.42-.06-.85-.06-1.8-.14-1.07-.1-2.26-.22-1.34-.13-6.33-.52-3.86-.17h-1.9l-3.82.05-2.06.11-4.25.28-2.45.22-10.71 1.33-6.6 1.18-3.03.74-5.9 1.58-2.68.94-5.19 1.99-2.33 1.14-4.49 2.4-1.99 1.35-1.96 1.45.04-.04 1.24-.97 2.64-1.79 1.35-.87 2.84-1.56 1.45-.76 3.01-1.31 4.66-1.65.73-.22 1.22-.52.58-.28.95-.67.45-.37.77-.88 1.01-1.63 1.7-3.36-14.68-28.91-1.07-2.12-1.96-3.84-.94-1.86-1.72-3.35-.82-1.61-1.5-2.88-.73-1.38-1.31-2.44-.63-1.17-1.15-2.03-.56-.97-1.01-1.65-.5-.78-.91-1.31-.44-.61-.83-.99-.41-.46-.78-.7-.38-.32-.76-.45-.75-.39-1.55-.14-.8.01-1.46.4.7-.27 3.21-1.05 6.5-2.03 3.38-.88 6.84-1.68 3.55-.71 5.24-.95 3.77-.6 1.94-.27 7.84-1.02 3.58-.36 3.48-.32 1.54-.11 2.93-.18 1.18-.03 2.14-.03m-130.33 84.33-.49 1.7.49-1.93.92-2.88.48-1.43m18.87-34.1-1.53 1.86-2.87 3.86-1.4 1.96-2.6 4.06-1.27 2.06-2.33 4.26-1.13 2.15-2.05 4.44-.99 2.24-1.77 4.62-.72 1.99 1.25-3.68 1.13-2.74 2.35-5.43 1.33-2.61 2.76-5.14 1.53-2.46 3.16-4.86 1.73-2.32 3.55-4.56 1.92-2.17.74-.8m2-2.15-.54.58 1.74-1.89 1.38-1.31m5.02-4.63.04-.03.01-.01z" fill="#D40505"/><path d="m573.01 727.76-.47-.02m25.56-1.11-3.6.34-8.6.65-4.29.1-5.17.02 5.18-.02 4.29-.1 8.59-.66 1.35-.13 2.97-.34 1.52-.18 2.31-.32m3.1-.44h-.01.01m-58.34-.21-2.78-.52m64.98.13-1.93.3 2.92-.49m-67.4-.22h-.01l-4.52-.94m-32.6-10.2 4.01 1.67 8.15 2.92 4.1 1.38 8.3 2.33 4.16 1.1-.02-.01-4.16-1.09-8.29-2.33-4.1-1.39-8.15-2.91-4.01-1.67-6.85-3.01m134.33-20.45-.08.12.31.95.83.77.62.33 2 1.29 1.71 1.24.98.77 4.17 3.37 2.09 1.82 2.05 1.81.93.86 1.78 1.66.72.71 1.31 1.33.4.49.37.46.1.17.17.3v.09l.51 1.08.76.58.48.11.5.27-.02.26-.18.18-.49.39-.43.23-.98.51-.67.3-1.48.64-.93.37-1.98.76-1.19.44-2.5.91-1.45.5-3.04 1.05-1.72.59-8.5 2.53.27-.12.38-.43.12-.24-.15-.68-.72-1.54-.1-.18-.36-.5-.21-.27-.57-.64-.61-.68-1.73-1.69-.93-.88-2.18-1.94-3.55-2.95-.88-.7-1.58-1.27-.77-.61-1.38-1.1-1.34-1.05-2.17-1.66-1.02-.75-1.71-1.12-.82-.49-1.45-.66-.72-.28-1.41-.28-.72-.11-1.59.01-.84.03-1.98.21-3.64.46-1.81.23-4.06.32-2.09.14-4.48.14-4.56.1-9.68-.29-2.4-.11-3.46-.25.77.03 1.55.02 3.24.04 1.89.01 3.96.01h2.3l7.83-.09 4.7-.12 2.14-.11 4.16-.24 1.94-.18 3.8-.38 1.82-.26 7.12-1.19 3.66-.9 3.71-.96 1.97-.57 4.02-1.19 2.18-.69 2.85-.85 1.62-.43.63-.14 1.11-.22.32-.02m-91 5.28-.13-.03-.33-.09m-34.91-12.96.34.24.76.51.49.28 1.04.57.63.31 2.73 1.29 1.68.71 3.54 1.44 2 .75 4.12 1.5 2.19.74 4.46 1.48 2.26.69 3.73 1.11-1.17-.32-4.35-1.33-2.16-.68-4.21-1.42-2.07-.71-3.86-1.43-1.86-.72-3.29-1.36-1.56-.67-2.51-1.22-.57-.29-.97-.54-.44-.27-.7-.48-.31-.23-.4-.4-.25-.51.27.53m118.1-36.92-4.84.3-9.66.41-4.8-.08-3.72-.14 3.16.04 3.64.01 7.74-.2 1.92-.07 3.77-.2 1.85-.11 3.4-.25m-30.92.58-.42-.01-.58-.06m-1.32-.13-2.86-.27-1.31-.15m49.54-1.5-.21.03.85-.15m22.79-24.04 4.45 2.99 2.46 1.67.99.7 1.85 1.31.73.54 1.32 1.01.5.42.89.78.31.34.54.63.16.28.41 1.07v.58l-.17 1.39-.24.37-.23.18-.53.35-.41.19-.94.4-.65.22-1.46.49-.95.29-2.08.63-1.32.38-2.82.82-1.73.5-7.35 1.86.12-.05.17-.17.12-.43.02-.23-.21-.58-.14-.31-.54-.74-.31-.4-.87-.91-.49-.47-1.23-1.09-.66-.57-1.59-1.28-.85-.67-1.97-1.48-3.38-2.47-.98-.7-1.78-1.27-.85-.62-1.55-1.1-1.5-1.06-2.51-1.67-1.19-.77-2.13-1.15-1.05-.52-2.09-.73-1.06-.33-2.35-.41-1.24-.17-2.95-.19-1.57-.07-3.37-.06.27-.01 8.59-.63 4.35-.57 8.74-1.29 4.42-.89 8.77-1.78m-96.44 26.13-1.72-.48-.59-.2m-8.28-33.79 11.25 4.7 7.68 2.64 3.92 1.08 7.89 1.99 4.02.76 4.61.76-1.73-.23-2.64-.38-5.08-.98-2.52-.53-4.93-1.28-2.46-.69-4.89-1.62-2.46-.85-4.97-1.98-7.69-3.39-1.07-.5m-3.72-1.91 1.04.56 1.99 1.01-1.08-.52-.83-.42-1.34-.75-.62-.36-.57-.41m-2.15-5.14.06 2.62-.14-.41-.12-.94-.04-.5.06-1.16.1-.9m-48.83-87.2 2.03 1.21 3.99 2.47 1.87 1.29 3.68 2.62 1.73 1.38 3.39 2.8 1.61 1.47 3.13 2.99 1.49 1.57 2.9 3.19 1.38 1.68 2.7 3.4 1.28 1.79 2.52 3.63 1.2 1.91 2.89 5.23 1.8 3.92.83 2.15 1.61 4.41.73 2.35 1.4 4.81.61 2.53 1.17 5.13.49 2.65.92 5.35.36 2.73.64 5.5.21 2.77.15 2.27-1 .03-.36.13-.83-.4-.42-.3-.78-1.05-.38-.57-.56-1.4-.37-2.16v-.1l-.24-.64-.15-.4-.53-1.2-.3-.66-.78-1.68-.42-.9-1-2.1-.53-1.09-1.2-2.46-.62-1.26-1.36-2.74-4.52-8.98-1.6-3.14-3.35-6.55-1.66-3.25-3.18-6.25-.77-1.51-1.44-2.83-.71-1.38-1.27-2.5-.62-1.21-1.06-2.08-1.31-2.57-.92-1.81-1.79-3.21-.89-1.54-1.77-2.72-.89-1.31-1.8-2.32-2.81-3.14-.77-.78-1.35-1.45-.64-.7-1.01-1.2-.46-.56-.56-.82-.23-.66.03-.03m118.73 42.3-.68.2.92-.31m-10.38-1.12 1.17.6 1.21.49-.76-.27-1.27-.58-1-.6m-3.4-105.3.36.19.13.18.2.43.04.3.16.79.24.93.2.71.46 1.61.32 1.09.7 2.39.46 1.53.48 1.59.27.89.55 1.84.31 1.02.64 2.1.35 1.15.72 2.38.4 1.3.81 2.66.45 1.45.91 2.98.49 1.61 1.01 3.3.54 1.77 1.12 3.64.59 1.95 1.67 5.48 1.16 3.84.55 1.86 1.09 3.64.46 1.59.46 1.54.2.69.38 1.31.16.55.94 3.15.6 1.88.27.77.51 1.41.2.46.36.76.09.07.32.53.23.64.12.43.47 1.98.17 1.17.62 4.18.44 2.97.17 1.1.72 2.82.31.66.15.2.3.32h.15l.38.32.18.51.04.39.06.87-.01.55-.06 1.17-.08.68-1.08 4.18-1.3 2.64-.88 1.19-1.92 2.27-1.16.95-2.43 1.75-1.36.62-1.47.63.43-.23.29-.18.38-.37.16-.18.11-.39-.16-.6-.21-.34-.37-.98-.33-1.43-.03-.24-.25-1.1-.15-.65-.49-1.81-.27-.99-.68-2.43-.37-1.28-.86-2.92-.45-1.52-.99-3.31-.51-1.69-1.09-3.59-1.11-3.64-2.37-7.64-1.19-3.81-2.32-7.32-.57-1.77-1.07-3.32-.53-1.62-.96-2.94-.47-1.42-.83-2.45-.39-1.15-.65-1.84-.3-.84-.44-1.13-.39-.77-.32-.2-.73.04-.88.63-.05.09-.1.68-.05.42-.1 1.31-.04.73-.09 1.86-.04.99-.07 2.34-.04 1.22-.03 1.44.01-1.38.05-6.61.04-4.04.02-1.85.03-3.59.02-1.63.04-3.16.02-1.43.04-2.76.03-1.24.05-2.4.02-1.08.06-2.06.03-.91.06-1.76.04-.78.15-2.84.1-1.08.2-1.95.12-.73.26-1.32.16-.5.34-.92.19-.4 1.54-2.19 1.2-1.05.56-.27 1.1-.36m-5.85 92.32.18 1.2.48 1.93.13.44-.26-.53-.37-1.25-.25-1.51-.14-1.6-.07-1.09v-.01m-155.63-45.48 3.46.83 6.82 1.69 3.22.86 6.33 1.76 3 .91 5.88 1.84 2.78.96 5.45 1.94 2.57 1.01.35.14-2.09-.79-10.32-3.56-3.89-1.21-7.39-2.16-3.68-1.04-7.32-1.89-3.7-.93-7.68-1.74m-1.11-.24.88.19-1-.22m-94.17-74.07.64-1.28m72.68-99.4 3.56.17 1.93.13 8.12.62 4.18.44 4.18.45 2.01.24 3.96.5 1.83.26 3.55.52 1.55.27 2.93.53 1.16.26 10.01 2.49 3.25.89 1.54.45 3.01.89 1.37.43 2.65.85 1.14.39 2.15.77.85.34 1.53.65.49.26.78.48.06.17-.02.86-.58.08-.58-.21-.61-.09-.12.15.07.19.25.45.26.34.62.76.46.51.72.96.66.98.4.64.86 1.39.49.82 1.02 1.72.55.97 2.36 4.15 1.3 2.36 2.64 4.87 1.34 2.54 9.72 18.5-1.75 3-.47.81-.41.71-.24.43-1.1 1.93-.67 1.18-1.41 2.47-.76 1.35-1.56 2.74-.77 1.38-2.1 3.71-1.25 2.23-.56.99-1.09 1.91-.49.85-.95 1.61-.43.7-.83 1.34-.38.57-.74 1.08-.34.45-1.31 1.55-.6.46-1.19.7-.61.09h-1.27l-.72-.21-1.52-.56-.93-.44-1.97-.97-1.23-.6-8.76-3.86-6.12-2.29-3.17-1.01-6.41-1.92-3.28-.81-6.6-1.53-3.34-.61-6.71-1.11-3.37-.4-5.58-.57.62.05 1.34.13 2.26.22 1.07.1 1.8.14.85.06 1.42.06.67.02 1.12-.01 1.07-.03 1.59-.32 2.24-.85 3.52-1.68-9.79-19.12-1.56-3.04-2.83-5.52-1.37-2.67-2.46-4.81-1.19-2.32-2.14-4.15-1.03-2-1.83-3.54-.89-1.7-1.56-2.99-.74-1.43-1.32-2.48-.63-1.18-1.1-2.03-.52-.96-.91-1.61-.43-.77-.75-1.26-.36-.59-.62-.95-.59-.89-.91-1.08-.43-.45-.76-.5-1.22-.55-.91-.37-1.59-.81-.35-.2-.52-.34-.46-.41-.05-.07-.34-.12-.21-.05-.63-.07-.69-.06-2.14.03-1.18.03-2.86.18 3.82-.33 3.98-.22 3.93-.2 1.89-.05 3.7-.09h1.73m-47.41 81.87.5-.24h.01m34.13-7.76-10.72 1.33-6.61 1.18-3.03.74-5.9 1.58-2.68.94-3.15 1.21 3.14-1.21 2.68-.94 5.9-1.58 3.03-.74 6.6-1.18 10.71-1.33 2.45-.22m12.03-.44 3.86.17 3.74.31-2.51-.13-6.65-.25-3.26.05-5.89.2 2.93-.19 2.06-.11 3.82-.05m-66.56-63.39-3.21 1.05-6.15 2.36-3.04 1.22-5.79 2.69-2.86 1.38-5.43 3.02-2.68 1.54-5.07 3.34-2.49 1.7-4.7 3.65-2.29 1.86v-.01l2.3-1.86 4.71-3.65 2.49-1.7 5.07-3.34 2.67-1.55 5.44-3.01 2.85-1.38 5.8-2.69 3.03-1.22 6.15-2.36 3.21-1.05 4.46-1.39z" fill="#E60404"/><path d="M573.03 727.76h-.02l3.43-.02m-20.53-1.24 4.26.5 8.56.56 3.81.18-3.79-.18-8.56-.56-4.26-.5-8.51-1.16h-.01m79.67-4.16-7.18 1.8-3.57.74-7.15 1.37-3.63.54-7.29.98 7.49-1.06 3.86-.6 7.82-1.53 3.88-.81 5.88-1.46m-82.56 3.67-1.42-.27-.01-.01m-4.53-.94-3.88-.8m140.13-39.92 3.87 3.25 2.09 1.85.8.8 1.46 1.52.49.66.85 1.26.21.56.28 1.07-.07.49-.28.96-.33.46-.79.92-.58.47-1.29.95-.82.52-3.91 2.29-3.1 1.68-1.74.89-3.59 1.8-1.92.92-3.91 1.84-2.02.91-4.59 2.02.02-.01.18-.18.02-.26-.5-.27-.48-.11-.76-.58-.51-1.08v-.09l-.17-.3-.1-.17-.37-.46-.4-.49-1.31-1.33-.72-.71-1.78-1.66-.93-.86-2.05-1.81-2.09-1.82-4.17-3.37-.98-.77-1.71-1.24-2-1.29-.62-.33-.83-.77-.31-.95.08-.12-.46-.02-.32.02-1.11.22-.63.14-1.62.43-2.85.85-2.18.69-4.02 1.19-1.97.57-3.71.96-3.66.9-3.51.58 1.5-.32 11.55-2.9 7.95-2.38 3.94-1.36 7.82-2.82 3.69-1.52 3.65-1.53 1.74-.78 3.42-1.57 1.6-.79 10.99-5.45m-166.14 35.34-1.12-.48-3.91-1.96 3.91 1.96m106.98-64.51 1.59.02-3.22.04-5.57-.31-.48-.03m22.89-.01-5.62.2-1.39.02 6.26-.26 2.74-.17m-31.6-.32-3.91-.31-4.22-.63m49.08.29-1.23.13 3.65-.44m3.26-.41-3.18.4 3.85-.53m-62.81-.69-4.91-.86-2.35-.57m86.59-1.2-4.9 1.06 11.42-2.88m-102.05.68-5.05-1.37-5.41-1.86 4.62 1.59m127.53-35.55.65.22.42.19.89.43.53.28 1.1.61.61.37 2.6 1.59 1.44.95 2.95 1.99 1.5 1.06 2.96 2.15 1.38 1.04 2.64 2.06 1.09.91 1.04.89.43.4.82.77.32.33.56.62.16.24.26.44v.15l-.28.88-.49.65-.4.35-.9.72-.62.4-1.35.82-.85.46-1.83.93-1.11.52-2.33 1.06-1.37.59-2.87 1.21-1.65.66-3.44 1.37-1.94.75-7.06 2.43.08-.06.24-.37.17-1.39v-.58l-.41-1.07-.16-.28-.54-.63-.31-.34-.89-.78-.5-.42-1.32-1.01-.73-.54-1.85-1.31-.99-.7-2.46-1.67-4.45-2.99-11.11-7.45-6.97 1.41 6.04-1.26 5.02-1.44 5.02-1.5 2.52-.85 5.04-1.77 2.55-.98 3.22-1.24 2.01-.76.86-.33 1.61-.6.59-.21 1.01-.37.2-.06m-50.65 13.92-4.35.57-8.59.63-4.28.23-8.45-.02-4.2-.1-8.27-.68-4.11-.43-3.73-.61 4.31.57 2.77.25 5.6.43 2.92.11 5.92.17 3.11-.01 8.45-.19 5.48-.29 2.68-.24 5.3-.52 2.6-.34 5.09-.75m.49-.07-.4.06 1.15-.21m-101.56-14.69.68.47 1.54.97 1.06.57 2.25 1.15-.01-.01-2.3-1.17-1.04-.56-1.53-.97-.67-.46-.81-.79-.49-1.05.5 1.05m81.04-60.7-2.88 3.78-1.39 1.54 1.26-1.48.88-1.19 1.3-2.64.83-3.2m-12.73-97.84 2.78.97 1.36.68 2.66 1.49 1.12.86 2.08 1.77.67.92.67 1.05.36.83.14.6.26 1.35.1.99.1 1.05.04.63.08 1.32.03.78.07 1.63.02.96.05 1.99.02 1.15.03 2.41.02 1.36.02 2.85.01 1.61.02 3.34v1.87l.01 3.88v2.15l.01 4.45v47.65l-.26-.22h-.15l-.3-.32-.15-.2-.31-.66-.72-2.82-.17-1.1-.44-2.97-.62-4.18-.17-1.17-.47-1.98-.12-.43-.23-.64-.32-.53-.09-.07-.36-.76-.2-.46-.51-1.41-.27-.77-.6-1.88-.94-3.15-.16-.55-.38-1.31-.2-.69-.46-1.54-.46-1.59-1.09-3.64-.55-1.86-1.16-3.84-1.67-5.48-.59-1.95-1.12-3.64-.54-1.77-1.01-3.3-.49-1.61-.91-2.98-.45-1.45-.81-2.66-.4-1.3-.72-2.38-.35-1.15-.64-2.1-.31-1.02-.55-1.84-.27-.89-.48-1.59-.46-1.53-.7-2.39-.32-1.09-.46-1.61-.2-.71-.24-.93-.16-.79-.04-.3-.2-.43-.13-.18-.36-.19-.4-.13-1.1.36-.56.27-.84.73.94-1.22 2.25-1.94 1.3-.78 2.7-1.4 1.41-.43 2.83-.68h1.36m-15.64 12.1-.1.59.05-.37.08-.36M453.69 317.1l3.98 1.16 8 2.44 4.07 1.4 8.89 3.35 6.35 2.68 3.29 1.49 6.61 3.09 3.28 1.63 6.54 3.32 3.12 1.69 6.13 3.37 2.8 1.65 2.75 1.63 1.29.8 2.52 1.58 1.15.76 2.24 1.5 1.01.71 1.92 1.4.83.65 1.57 1.27.63.58 1.17 1.13.42.5 1.3 1.87.68 1.33.24.71.41 1.44.11.76.16 1.53-.02.81-.1 1.62-.14.85-.36 1.71-.28.88-1.35 3.6-1.07 1.89-4.04 7.11-2.59 4.51-1.23 2.11-2.41 4.14-1.12 1.9-2.2 3.68-1 1.65-1.92 3.17-.85 1.37-1.63 2.58-.68 1.04-1.27 1.92-.49.69-.88 1.18-.28.3-2.68 2.18-2.06 1.15-1.1.4-2.21.66-1.09.13-2.14.09-.97-.19-.91-.31-.92-.4-.6-.28-1.28-.62-.75-.38-1.59-.8-.89-.47-3.81-2.02-2.15-1.2-4.45-2.48-2.31-1.34-6.56-3.74-4.01-2.22-1.86-.99-3.63-1.9-1.7-.85-3.33-1.63-1.59-.72-6.14-2.68 1.27.48 8.76 3.86 1.23.6 1.97.97.93.44 1.52.56.72.21h1.27l.61-.09 1.19-.7.6-.46 1.31-1.55.34-.45.74-1.08.38-.57.83-1.34.43-.7.95-1.61.49-.85 1.09-1.91.56-.99 1.25-2.23 2.1-3.71.77-1.38 1.56-2.74.76-1.35 1.41-2.47.67-1.18 1.1-1.93.24-.43.41-.71.47-.81 1.75-3-9.72-18.5-1.34-2.54-2.64-4.87-1.3-2.36-2.36-4.15-.55-.97-1.02-1.72-.49-.82-.86-1.39-.4-.64-.66-.98-.72-.96-.46-.51-.62-.76-.26-.34-.25-.45-.07-.19.12-.15.61.09.58.21.58-.08.02-.86-.06-.17-.78-.48-.49-.26-1.53-.65-.85-.34-2.15-.77-1.14-.39-2.65-.85-1.37-.43-3.01-.89-1.54-.45-.07-.02m-125.09 92.17.26-.52.81-1.21m2.12-3.09.82-1.11.53-.54m3.72-3.74.52-.5.19-.14m-85.16.62.07-.36.37-1.38m89.72-2.49.6-.4 1.14-.61m-89.69-2.7-.61 1.91.3-1.1 1.12-3.25.35-.95m187.66 2.33 3.17 1.01 4.62 1.73-2.83-1.03-5.33-1.82m-92.8.88-2.43 1.12 2.16-1.06 1.18-.45m4.78-1.79-1.78.64 1.01-.39 2.68-.94 3.52-.94m62.42-1.83 3.34.61 6.6 1.53 3.28.81 3.21.96-1.16-.33-9.85-2.48-5.53-1.12m-57.38.58.48-.11.84-.15m49.46-1.41 2.29.38-.07-.01-5.37-.74m-156.26-1.04-.45 1.11.56-1.51 1.38-3.07.19-.4m147.64 4.19 2.32.24-5.34-.4m-17.67.1.96-.09 1.42-.04m10.74-.14-4.93-.05 2.51-.04m-135.64-7.93-.13.25.83-1.73 1.5-2.64m2.34-3.88 1.22-2.02 1.19-1.68m2.95-4.02 1.7-2.27.8-.93m3.87-4.34 1.92-2.12.33-.32m6.77-6.26.24-.22 1.45-1.15m.74-.58.46-.37.35-.27m6-4.42-1.47 1 .53-.4 2.89-1.9.19-.12m5.6-3.47-.62.36.73-.45 2.53-1.37m6.01-3.1.95-.49 1.98-.87m6.79-2.86 1.41-.59 1.54-.54m7.39-2.49 1.93-.64 1.12-.31m7.73-2.03 2.68-.68.71-.15m3.06-.62.25-.05.1-.02m23.46-3.34-4.13.4-8 1.03-1.95.27-3.71.6-4.28.78 6.66-1.25 4.24-.6 8.58-1.08 4.44-.37 2-.12m30.51-.51 3.92.27 7.83.66 3.9.49 3 .42-.89-.11-2.01-.24-4.18-.45-4.18-.44-8.12-.62-.12-.01m178.32 169.32.02-1.93.03-3.74.02-1.68.04-3.26.02-1.45.04-2.81.03-1.25.04-2.4.03-1.06.06-2.03.03-.89.07-1.7.04-.74.17-2.68.11-.99.14-1.08-.18 1.75-.1 1.08-.15 2.84-.04.78-.06 1.76-.03.91-.06 2.06-.02 1.08-.05 2.4-.03 1.24-.04 2.76-.02 1.43-.04 3.16-.02 1.63-.03 3.59-.02 1.85-.04 4.04-.05 6.61.06-7.02z" fill="#F80101"/><path d="m598.55 726.58-.29.03 1.28-.18m48.45-12.1-.11.04.51-.2m22.93-10.21-3.78 1.87-7.65 3.63-3.94 1.66-3.09 1.25 7.76-3.42 2.02-.91 3.91-1.84 1.92-.92 3.59-1.8 1.74-.89.22-.12m4.56-2.52-.57.31 1.11-.65m5.76-35.67.45.24 1.24.82 1.29.95.83.63 1.75 1.35.99.77 2.02 1.59 1.06.84 4.25 3.42 1.82 1.52 1.75 1.46.7.61 1.29 1.12.4.38.27.64-.1.55-.2.34-.5.73-.41.45-.93.93-.63.56-1.37 1.16-.86.67-1.83 1.4-1.11.8-2.32 1.67-1.36.94-2.84 1.96-1.62 1.08-6.86 4.27.87-.64.58-.47.79-.92.33-.46.28-.96.07-.49-.28-1.07-.21-.56-.85-1.26-.49-.66-1.46-1.52-.8-.8-2.09-1.85-3.87-3.25-9.57-7.83-10.99 5.45-1.6.79-3.42 1.57-1.74.78-3.65 1.53-3.69 1.52-.68.25.53-.2 2.71-1.13 5.39-2.29 2.64-1.24 5.23-2.52 2.55-1.34 5.06-2.74 2.46-1.45 4.86-2.94 2.36-1.55 2.89-1.88 1.64-1.04.69-.43 1.3-.77.54-.3 1.02-.54.42-.19 1.49-.56.54-.02m-119.11-23.62 5.46 1.34 11 1.92 5.51.82 11.11.88 5.57.31 11.22-.15 5.62-.2 6.45-.67-6.36.67-5.63.21-11.23.16-5.57-.31-11.12-.88-5.51-.83-11.01-1.91-5.47-1.34-10.91-2.95-.01-.01m153.95-39.28 7.13 5.08 2.11 1.57.86.67 1.56 1.22.48.42 3.5 3.02-2.5 1.99-2.36 1.6-2.23 1.34-1.38.76-2.91 1.59-1.64.86-3.4 1.75-1.81.9-3.37 1.63.41-.25.62-.4.9-.72.4-.35.49-.65.28-.88v-.15l-.26-.44-.16-.24-.56-.62-.32-.33-.82-.77-.43-.4-1.04-.89-1.09-.91-2.64-2.06-1.38-1.04-2.96-2.15-1.5-1.06-2.95-1.99-1.44-.95-2.6-1.59-.61-.37-1.1-.61-.53-.28-.89-.43-.42-.19-.65-.22-.65-.06-.2.06-1.01.37-.59.21-1.61.6-.86.33-2.01.76-3.22 1.24-2.55.98-5.04 1.77-2.52.85-5.02 1.5-5.02 1.44-10.11 2.11-2.56.47-2.39.35 2.33-.37 3.07-.61 6.15-1.31 3.09-.79 6.16-1.65 3.08-.95 6.17-1.98 3.08-1.12 6.16-2.32 3.07-1.29 6.15-2.66 3.06-1.45 12.35-5.87m-154.96 10.95 8.11 3.5 5.49 2.07 2.79.91 5.6 1.73 2.84.74 5.71 1.4 2.88.57 4.18.76-2.16-.32-5.15-1-2.56-.53-5.04-1.31-2.51-.69-4.98-1.63-2.49-.85-5-1.96-7.59-3.33-1.48-.69-.08-.04m126.84-239.48 1.14.64.75.57 1.63 1.3.99.89 2.1 1.94 1.23 1.21 7.45 7.35-.59 4.91-.11 4.11.27 2.93.28 1.52.67 3.09.47 1.56 1.03 3.14.63 1.55 1.35 3.08.78 1.48 1.62 2.92.9 1.37 1.86 2.66 1 1.19 2.05 2.3 1.08.97 3 2.53 1.95 1.48.96.63 3.88 2.29 2.06.79 2.1.74 1.11.3 2.27.55 1.22.2 2.5.37 1.35.13 2.79.22 1.53.07 3.29.14 1.81.1.74.05 1.38.12.56.07 1.03.16.41.1 1.4.47.49.37.9.85.48.62 1.12 1.36.98 1.13.56.62 2.4 2.61 1.14 1.17 1.75 1.93.9 1.14.3.5.52.97.11.44.14.83-.08.37-.24.72-.28.32-.64.63-.47.29-1.03.58-.67.27-1.44.53-.88.27-1.95.53-1.1.23-2.26.42-1.22.17-5.04.55-2.63.08-5.26.06-2.47-.17-2.42-.2-1.12-.15-2.19-.34-.97-.22-3.79-1.02-2.61-.87-1.32-.51-5.33-2.27-2.61-1.38-5.14-2.92-2.35-1.63-2.3-1.64-1.07-.85-2.07-1.72-.93-.87-4.76-4.84-2.83-3.3-1.25-1.69-2.37-3.42-1.03-1.77-1.94-3.57-.81-1.85-1.52-3.75-.61-1.95-1.11-3.96-.4-2.06-.71-4.19-.21-2.19-.32-4.46-.02-2.33.32-8.41.27-2.55.17-1.18.37-2.29.22-1.03.46-1.96.27-.85.54-1.59.31-.63.62-1.16.33-.4.69-.68.36-.14z" fill="#FE0C1F"/><path d="m597.51 726.68-3.01.28 3.01-.28m57.9-15.31-5.52 2.32-2.8 1.06-5.63 2.06-2.85.94-5.73 1.81-2.89.81-5.81 1.56-2.93.68-5.87 1.3-2.96.55-5.94 1.03-2.99.42-2.93.37 6.22-.9 4.12-.67 8.3-1.76 4.15-.94 8.28-2.28 4.13-1.2 8.17-2.76 4.06-1.44 7.96-3.21.11-.04m30.41-16.01-2.09 1.28-.44.26 3.39-2.1m-63.96-2-2.05.56 4.13-1.21m69.04-2.1-2.54 1.7 1.42-.98 1.36-.94.8-.57m-60.93-.17-2.78 1-.62.21.26-.09 3.86-1.39m4.79-1.79h-.01l.19-.08m7.92-3.34-5.39 2.29-.24.11 5.95-2.55m52.43-34.47.3.1.63.25.39.22.83.5.51.35 1.1.77.66.5 1.41 1.08.84.66 1.78 1.42 1.05.84 3.76 3.11 2.28 1.96.95.86 1.75 1.63.6.61.55.57.2.23.32.4.07.13.23 1.22-.32.94-.48.63-.55.67-.36.39-.79.83-.51.49-1.07 1.03-.66.6-1.39 1.27-.82.74-6.08 5.32-3.95 3.29-1.94 1.55-.44.32.41-.34.63-.56.93-.93.41-.45.5-.73.2-.34.1-.55-.27-.64-.4-.38-1.29-1.12-.7-.61-1.75-1.46-1.82-1.52-4.25-3.42-1.06-.84-2.02-1.59-.99-.77-1.75-1.35-.83-.63-1.29-.95-1.24-.82-.45-.24-.98-.13-.54.02-1.49.56-.42.19-1.02.54-.54.3-1.3.77-.69.43-1.64 1.04-2.89 1.88-2.36 1.55-4.86 2.94-2.46 1.45-3.35 1.81 2.31-1.3 6.46-3.76 3.11-2.02 6.14-4.12 2.94-2.19 5.8-4.47 2.75-2.36 3.12-2.66 1.96-1.66.86-.72 1.6-1.35.59-.5 1.04-.86.24-.19 1.21-.48m-41.84 29.57-2.55 1.34-3.41 1.65 6.21-3.12m51.01-59.67-2.51 1.29-5.12 2.59-2.65 1.26-5.34 2.48-2.7 1.17-5.4 2.28-2.66 1.03-17.48 6.01-11.57 3.24-5.74 1.24-11.44 2.2-5.68.72-4.88.51 5-.53 5.7-.73 11.49-2.23 5.76-1.25 11.63-3.27 17.62-6.07 1.48-.57 3.34-1.4 1.71-.72 3.65-1.63 3.69-1.67 7.48-3.63 1.81-.9 3.4-1.75.09-.05M553.9 637.25l-5.4-1.86 5.4 1.86m18.64-24.5 6.54 1.41 3.31.54 6.66.96 3.36.32 6.75.54 3.4.1 6.83.1 3.44-.11 6.88-.32 3.47-.33 6.93-.76 3.48-.53 6.11-1.04-2.08.41-6.14.98-3.06.44-6.1.64-3.05.28-6.06.3-3.02.11-6.01-.04-2.99-.06-5.95-.38-2.97-.23-5.87-.72-2.93-.4-5.8-1.05-2.88-.57-5.33-1.3m146.67-29.3.5.15.49.22.32.16 1.44.8.93.56 1.98 1.25 1.11.74 2.29 1.56 1.19.85 3.16 2.31 1.71 1.33.67.58 1.21 1.12.44.51.75.99.22.46.33.93.02.47-.05.95-.16.51-.41 1.05-.33.58-.72 1.22-.47.7-.99 1.23-.87.89-.55.48-2.43 2.02-1.57 1.13-3.37 2.31-1.97 1.23-1.2.73 1.2-.82 2.5-1.99-3.5-3.02-.48-.42-1.56-1.22-.86-.67-2.11-1.57-7.13-5.08-8.65-5.93-5.42 2.57 2.01-1.07 6.75-3.71 3.33-2.01 3.48-2.01 2.16-1.17.93-.46 1.73-.82.63-.25 1.09-.39m-69.06 29.4-2 .42 3.55-.82m-85.5-1.56 6.35 1.82-.16-.04-2.84-.74-5.6-1.73-.06-.02m-1.34-.44-1.39-.45-3.95-1.49m-1.54-.58-8.11-3.5 9.07 3.86M734.62 447l-1.95.25-3.89.4-1.92.05h-3.85l-1.91-.15-.96-.1 2.03.14 5.26-.06 2.63-.08 5.04-.55.14-.02m31.62-47.41.87.12.49.21 1.01.53.59.43 1.21.95.71.64 1.47 1.37.86.85 2.22 2.31 1.26 1.42.48.6.85 1.12.24.4.32.68-.07.12-.08.97.28.79.28.34.28.68.01.58-.07.35-.48 1.55-.52.95-1.2 2.03-.82 1.14-1.78 2.35-1.06 1.24-2.23 2.52-1.24 1.27-2.54 2.53-1.35 1.22-2.72 2.39-1.38 1.08-2.78 2.09-1.35.88-2.95 1.7-2.36 1.19-1.28.58-2.58 1.14-1.26.5-2.5.95-1.11.35-.92.27.29-.1.67-.27 1.03-.58.47-.29.64-.63.28-.32.24-.72.08-.37-.14-.83-.11-.44-.52-.97-.3-.5-.9-1.14-1.75-1.93-1.14-1.17-2.4-2.61-.56-.62-.98-1.13-1.12-1.36-.48-.62-.9-.85-.49-.37-1.4-.47-.41-.1-1.03-.16-.56-.07-1.38-.12-.74-.05-1.81-.1-3.29-.14-1.53-.07-2.79-.22-1.14-.11 1.62.05 1.01.01 2.13.02h1.25l3.34-.02 1.9-.03.82-.03 1.55-.08.67-.06 1.29-.13.58-.09 2.16-.45 1.05-.37 2.12-.84 1.3-.61 2.71-1.47 1.89-1.2.97-.7 3.88-3 1.85-1.7 3.57-3.5 1.47-1.75 1.41-1.75.59-.84 1.1-1.66.41-.77 1.25-2.19.77-1.14.37-.41.75-.73.39-.2.78-.31m-79.96 33.95 1.07.85 2.3 1.64 2.35 1.63 5.14 2.92 1.87.99-.99-.49-4.78-2.62-3.04-1.93-1.44-1.05-2.83-2.16-1.33-1.16-.23-.21m-5.85-5.84 4.76 4.84.5.47-1.8-1.63-1.22-1.26-2.39-2.56-.77-.93m31.01-2.22.75.34-1.54-.59-1.32-.78m-3.99-2.56 3.82 2.46-2.39-1.41-.96-.63-1.76-1.33m-3.98-3.49 2.24 2.03-1.45-1.22-1.08-.97-.91-1.02m-.77-.86-.37-.42-1-1.19-.89-1.27m-7.53-15.86.96 3.11.64 1.62 1.38 3.29.85 1.72 3.4 5.69-.67-.96-.9-1.37-1.62-2.92-.78-1.48-1.35-3.08-.63-1.55-1.03-3.14-.47-1.56-.16-.71M666 403.41l-.02-.07-.47-1.66-.11-.44m-1.05-27.88-.17 1.18-.27 2.55-.32 8.41.02 2.33.32 4.46.21 2.19.71 4.19.37 1.91-.58-2.25-.33-1.69-.58-3.42-.19-1.72-.29-3.47-.04-1.74v-3.5l.12-1.76.31-3.51.27-1.76.48-2.65m40.27-37.94 1.85 1.88 1.03 1.08.42.47.79.89.31.38.57.74.21.32.65 1.19.09.51.05 1-.14.54-1.35 2.25-1.54 1.36-.96.45-2.35 1.33-1.65 1.13-.84.66-3.4 2.89-1.62 1.67-3.16 3.47-1.33 1.78-1.27 1.78-.54.87-1.01 1.72-.38.82-2.12 4.94-1.1 3.15-.4 1.53-.69 3.03-.19 1.49-.27 2.96.01 1.48.14 2.96.22 1.49.48 2.6-.38-1.77-.28-1.52-.27-2.93.11-4.11.59-4.91-7.45-7.35-1.23-1.21-2.1-1.94-.99-.89-1.63-1.3-.75-.57-1.14-.64-1.13-.21-.36.14-.69.68-.33.4-.46.85.17-.56 1.49-4.02.86-1.9 1.82-3.74 1.03-1.77 2.15-3.46 1.2-1.63 2.47-3.19 1.37-1.49 2.82-2.93 1.53-1.36 3.16-2.66 1.71-1.23 3.5-2.4 1.88-1.11 4.34-2.55m-80.53 365.38-8.65 2.07 10.76-2.65z" fill="#FE1639"/><path d="m573.01 727.76-.47-.02m26.58-1.21-4.62.44-8.6.65-4.29.1-5.17.02 5.18-.02 4.29-.1 8.59-.66 3.01-.28 4.77-.62m-54.87-.72-2.78-.52m68.32-.42-4.45.74 3.92-.68 1.73-.32m-70.95.4h-.01l-4.52-.94m-32.6-10.2 4.01 1.67 8.15 2.92 4.1 1.38 8.3 2.33 4.16 1.1-.02-.01-4.16-1.09-8.29-2.33-4.1-1.39-8.15-2.91-4.01-1.67-6.85-3.01m127.46 10.9-1.03.25 2.26-.61m12.3-3.68-1.2.37 1.76-.58m38.01-17.23-4.12 2.27-8.32 4.4-4.27 1.98-8.61 3.84-3.21 1.24 5.17-2.17 8.15-3.75 2.61-1.27 4.88-2.49 2.39-1.25 4.5-2.48 2.22-1.25 3.42-2.05m-74.58-.68-2.24.48-3.94.69-1.98.3-4.23.39-1.13.09-2.5.12-1.3.05-2.95.08-1.55.04-3.55.04h-.73l5.19-.14 4.58-.21 2.12-.15 4.14-.34 1.96-.23 3.86-.5 1.88-.32 2.97-.54m-76.33-3.28 5.73 1.57 2.97.73 5.95 1.4 2.82.58 2.77.55.58.1-1.8-.25-6.13-1.22-2.06-.46-4.38-1.14-2.22-.6-4.55-1.35-.28-.08m109.56-6.68-3.53 1.45-7.24 2.6-3.65 1.25-2.95.86 4.09-1.29 2.48-.82 11.31-4.27m-135.69-3.36.49.31 1.11.66.7.37 1.52.77.89.41 1.86.85 1.05.45 2.17.91 1.18.47 1.33.51-1.43-.53-3.54-1.44-1.68-.71-2.73-1.29-.63-.31-1.04-.57-.49-.28-.76-.51-.34-.24-.44-.43-.27-.53.4.61m196.51 1.61-2.36 1.76 1.7-1.28 1.54-1.23m-54.55.23-.89.38 1.35-.6m12.95-6.65-3.26 1.84-1.9.95 5.8-3.16m52.87-3.59-4.36 3.84-1.54 1.29 3.96-3.46.82-.74 1.39-1.27.66-.6.92-.88m42.46-123.99 1.04.34.6.27 2.59 1.3 1.47.92 3.04 2.02 1.54 1.2 3.05 2.47 1.39 1.32 1.57 1.66.84 1.09.31.57.55 1.16.17.64.27 1.32.04.75v1.57l-.11.91-.27 1.91-.23 1.12-.54 2.34-.37 1.37-.8 2.87-.5 1.66-5.5 15.88-4.33 10.37-2.49 5.06-5.19 10.03-2.91 4.87-6 9.64-3.3 4.65-6.78 9.18-3.68 4.41-7.52 8.68-4.03 4.14-5.52 5.45.59-.62.36-.39.55-.67.48-.63.32-.94-.23-1.22-.07-.13-.32-.4-.2-.23-.55-.57-.6-.61-1.75-1.63-.95-.86-2.28-1.96-3.76-3.11-1.05-.84-1.78-1.42-.84-.66-1.41-1.08-.66-.5-1.1-.77-.51-.35-.83-.5-.39-.22-.63-.25-.3-.1-.49-.05-1.21.48-.24.19-1.04.86-.59.5-1.6 1.35-.86.72-1.96 1.66-3.12 2.66-2.75 2.36-5.8 4.47-2.94 2.19-6.14 4.12-3.11 2.02-2.96 1.73 2.51-1.57 7.74-5.02 3.74-2.74 7.39-5.64 3.55-3.04 7.01-6.23 3.36-3.33 6.6-6.81 3.14-3.61 6.17-7.35 2.92-3.88 4.86-6.71 1.5-2.16.69-1.03 1.33-2 .58-.91 1.12-1.75.46-.76.85-1.44.31-.57.53-1.04.13-.34.16-.56-.07-.08-.27.03-.35.13-.25.12-1.21.59-.85.47-1.83 1.04-1.09.65-2.26 1.38-1.23.77-1.01.6.59-.37 3.37-2.31 1.57-1.13 2.43-2.02.55-.48.87-.89.99-1.23.47-.7.72-1.22.33-.58.41-1.05.16-.51.05-.95-.02-.47-.33-.93-.22-.46-.75-.99-.44-.51-1.21-1.12-.67-.58-1.71-1.33-3.16-2.31-1.19-.85-2.29-1.56-1.11-.74-1.98-1.25-.93-.56-1.44-.8-.32-.16-.49-.22-.5-.15-.23-.02-1.09.39-.63.25-1.73.82-.93.46-2.16 1.17-3.48 2.01-3.33 2.01-6.75 3.71-3.38 1.8-6.83 3.3-3.42 1.59-.83.35 3.91-1.84 8.51-4.17 4.19-2.32 8.34-4.82 4.09-2.64 8.14-5.45 3.99-2.96 7.9-6.08 3.86-3.27 7.63-6.7 3.7-3.58 2.82-2.69 1.68-1.58.76-.68 1.45-1.31.65-.55 1.23-1.04.55-.43 1.03-.8.45-.31.86-.57.36-.2 1.3-.59h.45m-75.69 84.52-17.48 6.02-11.56 3.23-5.74 1.24-11.45 2.2-5.68.72-5.47.57 5.48-.57 5.68-.72 11.44-2.2 5.74-1.24 11.57-3.24 17.47-6.01m-129.6 6.73-5.4-1.86 5.4 1.86m132.98-8.04-.71.28 3.6-1.52m7.48-3.27-2.15.96 4.13-1.92m8.29-4.08-3.24 1.62 3.1-1.57.93-.48m-135.75-6.47-.02-.01-3.25-.75-.64-.19m-6.83-1.98-2.12-.65-2.4-.87m104.13-.19-.71.21 2.97-.97m-110.24-.46-9.2-3.91 11.3 4.68m119.73-4.56-3.45 1.38-.87.31 1.4-.54 6.8-2.77m67.72-157.64-1.28.41.09-.03 2.5-.95.56-.22m2.58-1.09-.83.35 1.53-.68 1.14-.52m.36-.16-.22.1.37-.19m17.35-13.02-1.75 1.71-3.6 3.33-1.27.98 2.44-2.14 1.35-1.22 2.54-2.53 1.24-1.27 1.83-2.06m-25.96-5.23-.97.7-1.89 1.2-2.71 1.47-1.3.61-2.12.84-1.05.37-2.16.45-.58.09-1.29.13-.51.05 2.11-.43 2.51-.57 1.16-.36 2.23-.76.97-.45 2.58-1.37 1.81-1.13.92-.65 1.52-1.14m-41.91 3.35 3.37 1.64 1.79.66 2.05.67 1.15.25 1 .19h-.01l-1.18-.17-1.14-.19-2.01-.65-3.38-1.52-2.17-1.06-.88-.57m-4.81-3.23 1.5 1.07 1.63 1.08-1.37-.88-1.9-1.34-1.74-1.58m34.74-93.1 5.04.65 2.37.55 4.66 1.27 2.31.89 4.63 1.98 2.43 1.27 5.02 3 3.23 2.29 1.55 1.28 3.05 2.64 1.44 1.42 2.82 2.93 1.3 1.56 2.55 3.17 1.16 1.66 2.23 3.36.98 1.73 1.87 3.5.78 1.78 1.47 3.58.57 1.81 1.06 4.28.55 3.21.2 1.73.35 3.54.09 1.83.14 3.7v1.86l-.07 3.72-.11 1.8-.27 3.57-.21 1.67-.48 3.26-.31 1.46-.68 2.79-.41 1.17-2.88 6.79-2.31 4.34-.98 1.5.12-.2.52-.95.48-1.55.07-.35-.01-.58-.28-.68-.28-.34-.28-.79.08-.97.07-.12-.32-.68-.24-.4-.85-1.12-.48-.6-1.26-1.42-2.22-2.31-.86-.85-1.47-1.37-.71-.64-1.21-.95-.59-.43-1.01-.53-.49-.21-.87-.12h-.42l-.78.31-.39.2-.75.73-.37.41-.77 1.14-1.25 2.19-.41.77-.47.71.24-.42 2.55-5.42 1.27-3.8.42-1.96.7-3.95.13-2.01.13-4.03-.14-2.02-.43-4.02-.42-1.98-.98-3.93-.7-1.9-1.53-3.75-.97-1.78-2.07-3.48-1.24-1.62-4.51-4.96-3.37-2.86-1.83-1.21-3.77-2.26-2.01-.89-4.08-1.63-2.13-.57-4.3-.98-2.21-.24-4.45-.3-2.25.11-4.5.39-2.24.47-4.46 1.12-2.19.84-5.91 2.99-2.77 1.96.57-.49.84-.66 1.65-1.13 2.35-1.33.96-.45 1.54-1.36 1.35-2.25.14-.54-.05-1-.09-.51-.65-1.19-.21-.32-.57-.74-.31-.38-.79-.89-.42-.47-1.03-1.08-1.85-1.88-6.33-6.32 6.27-2.78 4.23-1.44 2.16-.49 4.39-.84 2.38-.23 4.91-.34h2.78m26.28 93.69-.09.08.54-.49m-55.54-2.09-.81-.8-.96-1.22m-8.95-17.2-.24-.77-.43-1.55-.17-.89m-.5-10.88.01-.12.19-1.49.23-1m.82-3.41.04-.15.76-2.16m7.29-13.17-2.76 3.77-1.16 2.02-1.6 3.05.69-1.6.38-.82 1.01-1.72.54-.87 1.27-1.78 1.33-1.78.68-.74m-27.28 5.03.01-.04.07-.19m1.54-3.98.06-.16.24-.5m28.83-3.91.63-.65.15-.13m-26.84-.82.03-.06.06-.09m7.72-10.49.09-.11.32-.32m4.17-4 .33-.31.71-.56m4.01-3.07.7-.52.93-.59z" fill="#FD2358"/><path d="M0 512V0h1024v1024H0V512m594.5 214.97 4.62-.44 9.23-1.37 4.6-.76 9.16-2.02 4.56-1.09 9.04-2.64 4.49-1.4 8.85-3.25 4.4-1.7 8.61-3.84 4.27-1.98 8.32-4.4 4.12-2.27 7.96-4.93 11.5-7.99 4.68-3.51 8.89-7.51 4.36-3.84 8.23-8.12 4.03-4.14 7.52-8.68 3.68-4.41 6.78-9.18 3.3-4.65 6-9.64 2.91-4.87 5.19-10.03 2.49-5.06 4.33-10.37 5.5-15.88.5-1.66.8-2.87.37-1.37.54-2.34.23-1.12.27-1.91.11-.91v-1.57l-.04-.75-.27-1.32-.17-.64-.55-1.16-.31-.57-.84-1.09-1.57-1.66-1.39-1.32-3.05-2.47-1.54-1.2-3.04-2.02-1.47-.92-2.59-1.3-.6-.27-1.04-.34-1.28-.22h-.45l-1.3.59-.36.2-.86.57-.45.31-1.03.8-.55.43-1.23 1.04-.65.55-1.45 1.31-.76.68-1.68 1.58-2.82 2.69-3.7 3.58-7.63 6.7-3.86 3.27-7.9 6.08-3.99 2.96-8.14 5.45-4.09 2.64-8.34 4.82-4.19 2.32-8.51 4.17-4.27 2.01-8.62 3.51-4.33 1.68-8.72 2.85-4.37 1.35-8.77 2.18-4.39 1.01-8.79 1.51-4.39.67-8.77.82-4.38.32-8.71.13-4.35-.03-8.62-.58-4.29-.38-8.49-1.28-4.23-.74-8.33-2.01-4.14-1.09-8.12-2.74-11.92-4.94-1.45-.68-2.3-1.17-1.04-.56-1.53-.97-.67-.46-.81-.79-.49-1.05-.06-2.76-.35-5.56-.21-2.77-.64-5.5-.36-2.73-.92-5.35-.49-2.65-1.17-5.13-.61-2.53-1.4-4.81-.73-2.35-1.61-4.41-.83-2.15-1.8-3.92-2.89-5.23-1.2-1.91-2.52-3.63-1.28-1.79-2.7-3.4-1.38-1.68-2.9-3.19-1.49-1.57-3.13-2.99-1.61-1.47-3.39-2.8-1.73-1.38-3.68-2.62-1.87-1.29-3.99-2.47-2.03-1.21-4.31-2.31-2.2-1.14-4.67-2.18-2.38-1.07-5.04-2.05-2.57-1.01-5.45-1.94-2.78-.96-5.88-1.84-3-.91-6.33-1.76-3.22-.86-6.82-1.69-3.46-.83-7.32-1.62-11.56-2.38-.93-.18-2.12-.43-1.1-.23-2.41-.5-2.47-.51-5.42-1.17-2.74-.6-5.48-1.22-7.56-1.74-3.04-.72-5.41-1.35-2.6-.66-4.61-1.3-2.21-.64-3.93-1.28-1.89-.64-3.36-1.31-1.62-.66-2.91-1.4-1.4-.71-2.57-1.51-1.25-.78-2.33-1.69-3.38-2.78-1.23-1.1-2.17-2.17-1.04-1.09-1.79-2.2-.86-1.11-1.45-2.28-.69-1.16-1.12-2.42-.53-1.23-.83-2.61-.37-1.33-.55-2.86-.25-1.46-.29-3.15-.18-5.12v-1.08l.01-1.84.01-.88.05-1.51.07-1.44.33-2.24.2-1.08.71-2.04 1.64-3.61.72-1.46 1.68-2.72.88-1.33 2.03-2.49 1.06-1.22 2.39-2.26 1.23-1.1 2.75-2.03 1.42-1 3.12-1.82 1.61-.88 3.5-1.61 1.8-.78 3.89-1.4 6.28-1.89 2.91-.77 6.01-1.22 3.03-.55 6.21-.79 3.13-.34 6.37-.36 3.21-.13 6.49.06 3.25.09 6.57.49 3.3.29 6.6.92 3.31.51 6.6 1.33 9.85 2.48 3.25.93 6.07 2.07 3.02 1.1 6.18 2.69 1.59.72 3.33 1.63 1.7.85 3.63 1.9 1.86.99 4.01 2.22 6.56 3.74 2.31 1.34 4.45 2.48 2.15 1.2 3.81 2.02.89.47 1.59.8.75.38 1.28.62.6.28.92.4.91.31.97.19 2.14-.09 1.09-.13 2.21-.66 1.1-.4 2.06-1.15 2.68-2.18.28-.3.88-1.18.49-.69 1.27-1.92.68-1.04 1.63-2.58.85-1.37 1.92-3.17 1-1.65 2.2-3.68 1.12-1.9 2.41-4.14 1.23-2.11 2.59-4.51 4.04-7.11 1.07-1.89 1.35-3.6.28-.88.36-1.71.14-.85.1-1.62.02-.81-.16-1.53-.11-.76-.41-1.44-.24-.71-.68-1.33-1.3-1.87-.42-.5-1.17-1.13-.63-.58-1.57-1.27-.83-.65-1.92-1.4-1.01-.71-2.24-1.5-1.15-.76-2.52-1.58-1.29-.8-2.75-1.63-2.8-1.65-6.13-3.37-3.12-1.69-6.54-3.32-3.28-1.63-6.61-3.09-3.29-1.49-6.35-2.68-8.89-3.35-4.07-1.4-8-2.44-3.98-1.16-7.86-1.98-3.92-.94-7.79-1.53-3.89-.71-7.77-1.09-3.9-.49-7.83-.66-3.92-.27-7.95-.24-3.99-.06-8.12.19-12.45.74-4.44.37-8.58 1.08-4.24.6-8.15 1.53-4.02.82-7.72 1.97-3.81 1.05-7.28 2.41-3.58 1.26-6.82 2.85-3.36 1.47-6.37 3.27-3.12 1.69-5.9 3.68-2.89 1.9-5.41 4.09-2.65 2.1-4.94 4.5-2.4 2.3-4.44 4.89-2.15 2.5-3.94 5.28-1.9 2.69-3.42 5.66-1.64 2.88-2.9 6.04-1.38 3.07-2.37 6.41-1.12 3.25-1.83 6.77-2.12 10.55-.13.8-.23 1.84-.1.95-.19 2.11-.17 2.17-.23 4.97-.1 2.56-.08 5.51-.02 2.78.06 5.69.05 2.84.19 5.53.12 2.71.33 5.03.18 2.42.46 4.18.12.98.27 1.73.43 2.23.69 2.98 1.66 5.69.87 2.8 2.05 5.34 1.07 2.63 2.45 5.01 1.27 2.47 2.86 4.7 1.48 2.32 3.29 4.4 1.69 2.17 3.71 4.14 1.92 2.03 4.16 3.88 6.75 5.54 2.3 1.74 5 3.22 2.58 1.58 5.66 2.93 2.93 1.44 6.49 2.69 3.35 1.31 7.45 2.49 1.92.61 4.07 1.2 2.06.59 4.35 1.16 2.22.58 4.66 1.13 2.37.57 4.99 1.11 2.53.55 5.33 1.1 2.71.54 5.7 1.08 2.9.55 6.07 1.07 9.57 1.62 2.7.45 5.02.84 2.45.42 4.56.81 2.23.4 4.13.78 2.01.38 3.73.76 1.82.38 3.37.75 1.64.37 3.03.75 1.47.38 2.73.76 1.33.38 2.45.79 2.4.79 4.11 1.7 1.97.88 3.44 1.93 1.67 1 3.04 2.25 4.37 3.82 1 .95 1.73 1.83.82.92 1.41 1.81.66.91 1.11 1.87.52.94.83 2 .39 1.02.6 2.2.27 1.13.38 2.48.16 1.28.2 2.83.12 4.73.01 1.22-.01 2.04-.01.96-.05 1.63-.07 1.55-.37 2.38-.24 1.16-.87 2.31-.25.62-.65 1.39-1.19 2.43-1 2.04-2.47 3.76-1.31 1.84-3.09 3.38-1.61 1.64-3.7 2.98-1.92 1.44-4.29 2.58-2.22 1.25-4.89 2.18-2.52 1.04-5.47 1.78-2.81.83-6.06 1.37-9.74 1.59-1.76.22-4.15.32-2.16.13-4.81.15-2.46.05h-5.22l-2.64-.02-5.42-.16-2.7-.09-5.37-.3-2.66-.16-5.09-.43-2.49-.22-4.59-.55-6.05-.95-2.96-.57-5.59-1.26-2.75-.66-5.32-1.52-2.64-.8-5.25-1.86-2.63-.98-5.38-2.3-2.72-1.21-5.71-2.81-2.92-1.48-6.23-3.43-1.6-.89-3.34-1.93-1.69-.99-3.53-2.1-1.8-1.08-3.76-2.3-5.92-3.69-1.57-.99-2.57-1.48-1.2-.67-1.98-.93-.94-.4-1.62-.45-2.29-.25h-.87l-1.39-.05h-.65l-1.17.22-.58.18-1.25.85-.33.27-.72.72-.38.39-.85 1-.45.54-1 1.33-.53.71-1.21 1.7-.63.9-1.44 2.12-.75 1.12-1.71 2.58-.9 1.35-2.02 3.09-1.05 1.61-2.36 3.65-1.23 1.89-2.75 4.24-4.59 7.09-1.01 1.54-1.68 2.67-.79 1.27-1.29 2.17-.6 1.04-.93 1.78-.42.84-.59 1.47-.26.7-.3 1.23-.11.6-.03 1.1.77 3.18.12.31.46.72.26.37.71.85.76.88 2.2 2.08 1.19 1.08 2.95 2.4 1.56 1.23 3.54 2.63 1.84 1.32 3.99 2.73 2.04 1.37 4.29 2.73 13.25 7.65 4.89 2.58 10.25 4.66 5.19 2.25 10.76 3.97 5.44 1.9 11.18 3.27 5.63 1.54 11.51 2.55 5.78 1.17 11.73 1.8 5.89.8 11.87 1.03 5.94.42 11.9.25 17.79-.54 3.58-.23 6.96-.64 3.44-.35 6.67-.88 3.3-.47 6.4-1.12 3.16-.59 6.11-1.36 3.03-.71 5.84-1.6 2.89-.83 5.57-1.84 2.75-.94 5.31-2.08 7.65-3.4 10.11-4.84 13.46 6.74 3.91 1.96 7.97 3.49 4.01 1.67 8.15 2.91 4.1 1.39 8.29 2.33 4.16 1.09 8.42 1.75 4.22.8 8.5 1.16 4.26.5 8.56.56 4.28.2 8.6-.04 4.29-.1m21.72-180.53.56-.26 1.26-.77.64-.41 1.29-.99.63-.52 1.17-1.09 1.45-1.61 2.88-3.78V481.57l-.01-4.45v-2.15l-.01-3.88v-1.87l-.02-3.34-.01-1.61-.02-2.85-.02-1.36-.03-2.41-.02-1.15-.05-1.99-.02-.96-.07-1.63-.03-.78-.08-1.32-.04-.63-.1-1.05-.1-.99-.26-1.35-.14-.6-.36-.83-.67-1.05-.67-.92-2.08-1.77-1.12-.86-2.66-1.49-1.36-.68-2.78-.97-3.82-.63h-1.36l-2.83.68-1.41.43-2.7 1.4-1.3.78-2.25 1.94-2.52 3.31-.25.47-.41.94-.2.49-.31 1.21-.15.67-.23 1.79-.11.99-.17 2.68-.04.74-.07 1.7-.03.89-.06 2.03-.03 1.06-.04 2.4-.03 1.25-.04 2.81-.02 1.45-.04 3.26-.02 1.68-.03 3.74-.02 1.93-.03 4.26-.06 7.02-.02 3.47-.03 6.33-.01 3.07V511.09l.03 4.75.02 2.28.05 3.96.04 1.88.08 3.17.05 1.48.11 2.39.07 1.09.14 1.6.25 1.51.37 1.25 1.2 2.41.67 1.18 1.72 2.16.91 1.04 2.12 1.78 3.5 2.1 1.27.58 2.05.72.97.28 1.76.14h.88l1.87-.44.99-.29m139.33-103.53 2.3-.73 4.45-1.88 2.2-1.01 4.21-2.41 2.08-1.27 3.93-2.89 1.93-1.5 3.6-3.33 1.75-1.71 3.22-3.71 1.55-1.9 2.79-4.05 1.34-2.06 2.31-4.34 2.88-6.79.41-1.17.68-2.79.31-1.46.48-3.26.21-1.67.27-3.57.11-1.8.07-3.72v-1.86l-.14-3.7-.09-1.83-.35-3.54-.2-1.73-.55-3.21-1.06-4.28-.57-1.81-1.47-3.58-.78-1.78-1.87-3.5-.98-1.73-2.23-3.36-1.16-1.66-2.55-3.17-1.3-1.56-2.82-2.93-1.44-1.42-3.05-2.64-1.55-1.28-3.23-2.29-5.02-3-2.43-1.27-4.63-1.98-2.31-.89-4.66-1.27-2.37-.55-5.04-.65-8.36-.36h-2.78l-4.91.34-2.38.23-4.39.84-2.16.49-4.23 1.44-6.55 2.9-2.17 1.1-4.05 2.43-1.98 1.26-3.64 2.74-1.78 1.41-3.25 3.06-1.57 1.57-2.86 3.38-1.37 1.73-2.46 3.69-1.18 1.89-2.06 4.02-.98 2.05-1.67 4.33-2.06 6.87-.43 1.75-.63 3.51-.27 1.76-.31 3.51-.12 1.76v3.5l.04 1.74.29 3.47.19 1.72.58 3.42.33 1.69.87 3.35.47 1.66 1.14 3.26.61 1.61 1.41 3.15.73 1.57 1.67 3.03.86 1.5 1.92 2.89.99 1.42 2.15 2.74 1.11 1.34 2.39 2.56 1.22 1.26 2.62 2.37 1.33 1.16 2.83 2.16 1.44 1.05 3.04 1.93 4.78 2.62 1.92.95 3.83 1.6 1.91.75 3.8 1.2 1.9.54 3.8.8 1.91.35 3.81.4 1.91.15h3.85l1.92-.05 3.89-.4 1.95-.25 3.95-.79 1.98-.44M558.5 698.39l-1.15-.17-2.54-.44-1.3-.23-2.77-.55-2.82-.58-5.95-1.4-2.97-.73-5.73-1.57-1.38-.4-2.61-.79-3.57-1.18-2.73-.95-4.96-1.91-1.18-.47-2.17-.91-1.05-.45-1.86-.85-.89-.41-1.52-.77-.7-.37-1.11-.66-.49-.31-.65-.52-.4-.61v-.11l.21-.4.13-.22.43-.56 1.84-1.95.94-.87 1.91-2.11.96-1.1 1.93-2.54.96-1.31 1.91-2.9.95-1.49 1.86-3.21 1.83-3.28 3.39-7.22 4.37-11.39.52-1.58.95-2.64.47-1.22.82-1.88.39-.84.66-1.05.77-.58.09.02.44.12.26.07.74.23.41.12 1.01.33.54.17 1.25.41 1.29.42 3.12 1.04 5.15 1.75 5.4 1.86 10.89 2.94 5.45 1.34 11 1.91 5.51.83 11.1.88 5.57.31 11.22-.15 5.62-.2 11.33-1.18 5.68-.72 11.45-2.2 5.74-1.24 11.56-3.23 17.48-6.02 3.38-1.31 6.91-2.97 3.46-1.54 6.86-3.34 3.41-1.7 6.59-3.58 9.28-5.51 1.23-.77 2.26-1.38 1.09-.65 1.83-1.04.85-.47 1.21-.59.25-.12.35-.13.27-.03.07.08-.16.56-.13.34-.53 1.04-.31.57-.85 1.44-.46.76-1.12 1.75-.58.91-1.33 2-.69 1.03-1.5 2.16-4.86 6.71-2.92 3.88-6.17 7.35-3.14 3.61-6.6 6.81-3.36 3.33-7.01 6.23-3.55 3.04-7.39 5.64-3.74 2.74-7.74 5.02-3.91 2.44-8.06 4.39-4.07 2.11-8.35 3.74-12.84 4.85-2.48.82-4.52 1.43-2.2.68-4.09 1.14-2.01.55-3.84.9-1.9.42-3.76.68-1.88.32-3.86.5-1.96.23-4.14.34-2.12.15-4.58.21-7.59.2-2.61.05-5 .05-2.43.02-4.26-.01-1-.01-1.77-.02-.84-.01-1.43-.03-.66-.02-1.01-.04-.45-.03m153.29-274.32-1.79-.66-3.37-1.64-1.65-.87-3.07-2.04-1.5-1.07-2.76-2.42-1.33-1.25-2.43-2.77-1.17-1.43-2.07-3.1-.99-1.59-1.71-3.41-.8-1.74-1.32-3.7-1.53-5.85-.41-2.06-.13-4.3.04-2.16.72-4.38.46-2.19 1.49-4.33.83-2.14 2.16-4.12 1.16-2.02 2.76-3.77 1.44-1.82 3.27-3.26 1.68-1.55 3.69-2.6 5.91-2.99 2.19-.84 4.46-1.12 2.24-.47 4.5-.39 2.25-.11 4.45.3 2.21.24 4.3.98 2.13.57 4.08 1.63 2.01.89 3.77 2.26 1.83 1.21 3.37 2.86 4.51 4.96 1.24 1.62 2.07 3.48.97 1.78 1.53 3.75.7 1.9.98 3.93.42 1.98.43 4.02.14 2.02-.13 4.03-.13 2.01-.7 3.95-.42 1.96-1.27 3.8-2.55 5.42-.42.74-1.1 1.57-.59.8-1.39 1.65-1.45 1.65-3.46 3.29-1.79 1.6-3.73 2.8-.92.65-1.81 1.13-2.58 1.37-.97.45-2.23.76-1.16.36-2.51.57-2.56.52-5.53.45-2.77.13-5.33-.37-1.28-.14-2.38-.45-1.15-.25z" fill="#FEFEFE"/></svg>