<svg xmlns="http://www.w3.org/2000/svg" width="1024" height="1024"><path fill="#A50505" d="m512.31 691.69 3.55 2.89 2.83 2.31 1.52 1.25 3.09 2.54 1.51 1.26 2.99 2.46 1.32 1.1 8.21 6.81 2.53 2.09 1.06.88 1.02.84.45.37.83.68.33.27 1.77 1.56.95.95.34.39.56.72.11.24.1.41-.15.05-.63.68-.09.73.15.39.16.77-.15.24-.42.38-.39-.02-2.07-.25-1.88-.33-1.13-.23-2.38-.49-1.31-.3-2.71-.63-1.41-.34-5.78-1.46-2.72-.77-2.66-.76-1.2-.36-2.3-.73-.96-.33-4.54-1.71-3.51-1.45-1.91-.82-7.89-3.53-3.77-1.8-3.68-1.79-1.64-.83-3.12-1.61-1.24-.68-1.19-.67-.5-.29-.92-.56-.35-.23-.62-.44-.19-.16-.28-.3V701l.61-.73.96-.81.7-.54 1.53-1.14.93-.65 1.93-1.35 1.07-.72 4.43-2.93 2.17-1.34 2.13-1.3.96-.56 1.86-1.06.76-.39 3.09-1.6m33.76-76.39.43.21.94.48.61.34 1.3.76.77.48 1.63 1.03.94.61 1.96 1.29 1.09.74 2.26 1.54 1.24.87 2.56 1.78 1.38.98 4.25 3.01 2.61 1.86 1.2.86 2.33 1.66 1.06.76 2.06 1.48.94.68 1.81 1.32.81.59 1.58 1.16.7.52 2.6 1.95 1 .79 1.82 1.45.67.57 1.16 1.05.38.41.64.74.16.29.22.53v.21l-.08.82-.3.22-.34.19-.27.05-.6.07-.42-.02-.92-.06-.6-.08-1.29-.19-.82-.15-1.73-.33-1.06-.21-2.24-.46-1.33-.28-15.85-4.02-10.39-3.29-5.01-1.92-2.47-.96-1.35-.54-.53-.24-1-.45-.38-.21-.69-.41-.25-.2-.77-.81-.15-.51-.16-1.1v-.77l.24-2.56.16-.72.1-.28.21-.49.11-.13.42-.8.35-.9.19-.59.8-2.65.36-1.51 1.11-4.22.34-1.13.14-.42.26-.72.09-.16.44-.05Z"/><path fill="#B50909" d="m512.84 685.29 3.38 1.44 2.62 1.05 1.42.54 5.94 2.18 2.92.99 2.89.96 1.33.42 2.58.8 1.1.32 2.06.56.77.18 1.35.27h.34l1.25.44.69.65.16.41.83 1.06.8.44h.4l.87.25.2.36-.14.23.05.51.28.49.24.29 1.24 1.26.88.65.87.65.77.6.47.37 2.1 1.65 1.29 1.03 2.71 2.17 1.48 1.19 3.01 2.44 1.51 1.23 3.68 3.03 2.15 1.8.92.79 1.76 1.52.74.67 1.4 1.26.57.55 1.06 1.04.41.44.74.83.27.35.45.65.13.26.19.5.01.19-.08.22-.17.09-.41.16-.32.06-.72.1-.46.03-.99.05-.59.01-2.6-.04-1.61-.09-3.41-.23-1.93-.19-3.99-.4-2.14-.26-4.36-.56-2.24-.33-5.8-.93.09.01.42-.38.15-.24-.16-.77-.15-.39.09-.73.63-.68.15-.05-.1-.41-.11-.24-.56-.72-.34-.39-.95-.95-1.77-1.56-.33-.27-.83-.68-.45-.37-1.02-.84-1.06-.88-2.53-2.09-8.21-6.81-1.32-1.1-2.99-2.46-1.51-1.26-3.09-2.54-1.52-1.25-2.83-2.31-3.55-2.89-7.18-5.81-3.09 1.6-.76.39-1.86 1.06-.96.56-2.13 1.3-2.17 1.34-4.43 2.93-1.07.72-1.93 1.35-.93.65-1.53 1.14-.7.54-.96.81-.61.73v.08l.28.3.19.16.43.31-.27-.18-.47-.36-.85-.68-.28-.3-.45-.55-.08-.24-.07-.43.11-.17.75-.67.98-.7.67-.44 1.44-.94.85-.52 1.75-1.08.94-.54 3.06-1.88 2.2-1.41 1.09-.74 2.16-1.47.97-.7 1.84-1.35.72-.56 5.23-4.13m-242.55-71.62 1.5.41.8.29 1.65.64.88.41 1.8.89.96.54 1.97 1.14 1.06.66 5.94 3.7 3.78 2.31 1.79 1.08 3.55 2.11 1.69.99 3.34 1.93 1.6.9 6.24 3.42 2.91 1.48 5.72 2.81 2.73 1.21 5.39 2.3 2.65.98 5.29 1.87 2.68.81 5.39 1.53 2.81.67 5.7 1.3 3.04.58 7.05 1.22 4.4.53 2.48.17 2.55.15 1.43.05 2.98.1 1.7.03 3.56.05 2.06.02 4.3.02h2.49l8.79-.06 5.16-.1 2.28-.1 4.39-.22 1.96-.16 3.8-.36 1.73-.24 3.38-.52 1.59-.33 3.14-.71 1.54-.44 3.07-.92 1.57-.55 3.19-1.16 1.7-.68 2.05-.8 1.18-.44.51-.17 1.84-.59.67-.12 1.22-.15.47.07.86.24.39.24.54.55.49.65.31.45.65.99.38.6.78 1.29.43.73 1.82 3.18 1 1.86 2.06 3.87 1.04 2.07 1.68 3.31 1.21 2.4.65 1.27 2.65 5.21 1.36 2.68 2.73 5.33 1.28 2.5 1.25 2.44.59 1.14 1.14 2.22.51.99 2.9 5.83 1.7 3.63.68 1.56.64 1.51.27.67.5 1.28.19.53.34.99.1.37.15.66v.19l-.34 2.04-.33.57-.26.27-.6.52-.42.27-.93.54-.61.29-1.34.59-.84.33-1.81.69-1.11.4-2.36.84-1.42.49-13.16 4.07-8.85 2.22-4.57.9-9.27 1.64-4.9.63-4.95.59-2.56.25-5.18.47-2.69.2-12.28.67-6.15.02-12.28-.17-6.11-.39-12.19-.99-6.04-.8-12.02-1.79-5.92-1.2-11.77-2.58-5.76-1.58-11.43-3.35-5.56-1.96-11.02-4.11-5.32-2.33-10.51-4.84-5.04-2.69-12.82-7.5-4.17-2.68-1.98-1.34-3.89-2.69-1.79-1.3-3.46-2.58-1.51-1.21-2.88-2.36-1.17-1.06-2.14-2.03-.75-.86-.68-.83-.26-.36-.44-.7-.12-.3-.71-2.97-.06-2.06.2-.79.49-1.16.63-1.22.45-.8.98-1.72.61-1.02 1.28-2.14.73-1.2 1.52-2.47.83-1.34 1.71-2.73.9-1.43 3.74-5.87 1.94-3 3.89-5.96 1.85-2.78 1.83-2.74.86-1.28 1.69-2.49.77-1.12 1.5-2.15.65-.93 1.25-1.73.51-.68.95-1.24.34-.4.58-.64.14-.08 3.49-1.07 2.59-.03m223.19 92.92.5.29 1.19.67 1.24.68 3.12 1.61 1.64.83 3.68 1.79 3.77 1.8 7.89 3.53 1.91.82 2.94 1.21-1-.36-3.39-1.41-3.42-1.45-1.77-.79-3.58-1.63-1.87-.9-4.32-2.1-2.55-1.27-1.1-.58-2.11-1.12-.89-.5-1.67-.97-.68-.43-.2-.13m53.69-102.11 1.11.37.78.31 1.7.68 1 .43 2.1.91 1.13.52 3.86 1.67 2.9 1.19 1.5.58 2.99 1.14 1.41.5 2.72.96 1.14.36 3.21 1.09 1.88.69.75.32 1.36.59.42.23.65.41.01.11-.3.39-.43-.03-.27-.17-.71-.29-.29.03v.13l.33.33.53.44.41.32.91.69.58.44 1.24.92.72.54 1.53 1.11.86.62 1.77 1.28.96.69 4.03 2.88 2.21 1.55 6.65 4.69 4.3 3.03 1.93 1.36 1.88 1.33.85.61 1.65 1.16.71.51 1.36.97.55.39 1.02.72.35.25 4.04 2.63 1.1.62.42.19.74.3.18.01.74.33.12.45-.17.27-.23.26-.21.1-.5.19-.37.07-.81.11-.55.04-1.18.05h-.75l-1.6-.02-.97-.04-2.07-.09-1.23-.07-2.58-.16-1.5-.1-3.15-.23-1.8-.14-10.07-1.19.08-.01.27-.05.34-.19.3-.22.08-.82v-.21l-.22-.53-.16-.29-.64-.74-.38-.41-1.16-1.05-.67-.57-1.82-1.45-1-.79-2.6-1.95-.7-.52-1.58-1.16-.81-.59-1.81-1.32-.94-.68-2.06-1.48-1.06-.76-2.33-1.66-1.2-.86-2.61-1.86-4.25-3.01-1.38-.98-2.56-1.78-1.24-.87-2.26-1.54-1.09-.74-1.96-1.29-.94-.61-1.63-1.03-.77-.48-1.3-.76-.61-.34-.94-.48-.43-.21-.57-.19-.44.05-.09.16-.26.72-.14.42-.34 1.13-1.11 4.22-.36 1.51-.8 2.65-.19.59-.35.9-.42.8-.11.13-.06.14.02-.18.27-2.29.16-1.33.66-5.67.32-2.75.47-3.91.3-2.33.14-.94.26-1.72.1-.55.19-.89.05-.06m19.56 37.94 15.28 3.87-.07-.01-4.42-1.03-8.85-2.22-4.4-1.35-4.41-1.44m-16.12-7.36.15.51.77.81.25.2.69.41.38.21 1 .45.53.24 1.35.54 2.47.96 4.45 1.7-.27-.09-4.3-1.65-7.86-3.03.26-2.12M284.56 343.78l.06 1.4.67 1.1.59.5.49.61.5.76.33.54.71 1.17.42.74.91 1.56.51.91 1.08 1.91.59 1.07 1.23 2.22.66 1.22 2.78 5.12 1.54 2.89 3.18 5.95 1.67 3.19 3.41 6.5 1.73 3.35 3.48 6.74 1.71 3.36 3.4 6.69 1.61 3.22 1.19 2.81.66 2.07.28 1.17.52 2.45.21 1.4.4 2.92.17 1.68.42 3.72.31 2.23.15.9.3 1.66.14.54.26.88.11.07.35.53.25.65.13.44.51 2 .19 1.18.78 3.48.77 2.34.49 1.15 1.05 2.31.63 1.14 1.33 2.25.75 1.1 3.25 4.27 1.94 1.91 1.98 1.88 1.05.86 2.16 1.67 1.13.75 1.71 1.2.91.7.31.28.53.51.09.16.06.24h-.17l-.18.3.18.46.22.34.53.75.38.44.83.94.5.52.92 1.07.71.94.4.57 1.69 2.57.97 1.61 2 3.43 1.06 1.93 2.15 4.01 1.06 2.12 7.35 14.57 4.73 9.31 2.25 4.39 4.41 8.6 2.07 3.99 2.04 3.93.98 1.88 1.93 3.69.93 1.76 1.45 2.75.59 1.13 1.08 2.11.43.84.76 1.56.26.61.47 1.12.13.43.2.78.02.31-.03.55-.09.22-.56.81-.49.46-1.35 1.02-1.03.34h-.83l-.91-.02-.57-.06-1.24-.13-.79-.12-1.68-.25-1.03-.16-2.21-.36-1.34-.23-8.43-1.46-5.4-.98-2.59-.5-5.1-1.01-2.45-.51-4.83-1.03-2.31-.53-8.98-2.14-4.11-1.12-7.97-2.27-3.65-1.2-7.06-2.45-3.21-1.29-6.23-2.64-2.84-1.4-5.49-2.87-2.49-1.53-4.84-3.12-2.2-1.66-6.75-5.54-4.16-3.88-1.92-2.03-3.71-4.14-1.69-2.17-3.29-4.4-1.48-2.32-2.86-4.7-1.27-2.47-2.45-5.01-1.07-2.63-2.05-5.34-.87-2.8-1.66-5.69-.69-2.98-.43-2.23-.27-1.73-.12-.98-.46-4.18-.18-2.42-.33-5.03-.12-2.71-.19-5.53-.05-2.84-.06-5.69.02-2.78.08-5.51.1-2.56.23-4.97.17-2.17.19-2.11.1-.95.23-1.84.13-.8 1.73-8.78 1.49-5.77.89-2.83 1.9-5.61 1.09-2.72 2.28-5.4 1.27-2.59 2.63-5.12 1.44-2.44 2.96-4.79 1.59-2.25 3.26-4.4 1.74-2.04 3.53-3.96 1.86-1.79 2.35-2.23 1.33-1.2.49-.43.88-.73.23-.15.31-.16Z"/><path fill="#C60606" d="m534.42 693.1 2.48.64 10.04 2.4 5.01.88 4.99.82 2.43.31 4.82.57 2.31.17 4.38.38 2.51.3 1.11.2 2.13.45 1 .3 1.94.68.97.45 1.95.99 1.04.65 2.13 1.39 1.2.88 2.5 1.89 1.45 1.16 3.05 2.46 1.8 1.48 2.56 2.12 1.53 1.29.68.59 1.3 1.14.57.51 1.07 1 .45.45 1.56 1.67.43.66.63 1.23-.04.48-.31.88-.52.34-1.26.61-1 .25-2.22.44-1.47.19-3.19.37-1.96.19-8.63.66-4.3.11-4.43.03.21-.04.41-.16.17-.09.08-.22-.01-.19-.19-.5-.13-.26-.45-.65-.27-.35-.74-.83-.41-.44-1.06-1.04-.57-.55-1.4-1.26-.74-.67-1.76-1.52-.92-.79-2.15-1.8-3.68-3.03-1.51-1.23-3.01-2.44-1.48-1.19-2.71-2.17-1.29-1.03-2.1-1.65-.47-.37-.77-.6-.87-.65-.88-.65-1.24-1.26-.24-.29-.28-.49-.05-.51.14-.23-.2-.36-.87-.25h-.4l-.8-.44-.83-1.06-.16-.41-.69-.65-1.25-.44h-.34l-1.35-.27-.77-.18-2.06-.56-1.1-.32-2.58-.8-1.33-.42-1.51-.51m8.15 31.61 4.24.87 9.07 1.45 2.24.33 4.36.56 2.14.26 1.65.17-2.22-.15-4.25-.5-8.47-1.14-4.21-.8-8.38-1.75-4.16-1.1-1.37-.38M398 723.16l-3.7.15 5.58-.3m10.55-.88-4.13.38-.63.05 2.7-.25 2.56-.25 1.1-.13m-88.44-4.46-2.3-.46-2.18-.52m122.69.01-.86.21 2.16-.54m13.12-4-3.53 1.16-7.17 2.21-2 .52 13.11-4.05.15-.05m-146.8 2.21 1.98.54-3.07-.77-4.04-1.18-6.28-1.94m-5.58-1.96 5.55 1.96-1.72-.53-3.92-1.38-7.75-2.86-2.45-1.02m215.61 4.96-.28-.12-.46-.23M333.53 453.81l1.08 1.09 2.24 2.14 1.21 1.01 2.5 1.99 1.34.93 2.74 1.82 1.46.85 2.98 1.64 1.57.75 3.2 1.46 1.67.65 1.59.57 1.26.42.72.23 3.13.95 1.88.53 3.93 1.09 2.18.58 4.51 1.16 2.4.6 9.88 2.39 4.96 1.11 4.92 1.08 2.36.49 4.62.95 2.13.4 3.1.6 1.71.35.71.17 1.34.35.57.19 1.08.4.49.24 1.82 1.06.96.83 1 .88.56.54 1.2 1.15.71.7 2.23 2.29 1.31 1.42.53.61.94 1.14.3.41.45.71v.15l.29.97.49 1.19.39.85.87 1.9.58 1.21 1.25 2.58.76 1.55 1.61 3.26.94 1.88 1.97 3.92 1.12 2.21 2.32 4.56 1.29 2.52 2.66 5.19 1.46 2.83 1.67 3.24 1.28 2.48.71 1.37 1.45 2.82.77 1.5 1.57 3.06.82 1.59 3.32 6.46 1.65 3.22 3.27 6.37 1.48 2.89 2.33 4.55 1.65 3.21.85 1.66 3.47 6.76 1.72 3.35 3.41 6.62 1.53 2.98 1.5 2.91.68 1.32 1.31 2.54.56 1.1 4.15 8.05 2.59 5.04 1.22 2.36 2.36 4.62 1.11 2.16 2.15 4.21.99 1.95 1.94 3.82.9 1.77 1.74 3.43.79 1.58 1.55 3.08.7 1.4 1.35 2.72.61 1.23 1.17 2.39.52 1.07 1 2.06.43.91.83 1.76.35.76.67 1.46.28.63.51 1.17.21.49.36.92.13.36.23.66.07.24.09.42v.13l.3 1.89.43 1.09.28.28.24.69-.1.63-.19.41-.47.89-.37.53-.83 1.14-.55.66-2.13 2.56-1.12 1.36-.42.53-.72.99-.22.38-.34.71-.03.28.04.52.15.23.4.44.33.21.76.45.51.25 1.1.55.03.01-4.89-2.22-5.23 4.13-.72.56-1.84 1.35-.97.7-2.16 1.47-1.09.74-2.2 1.41-3.06 1.88-.94.54-1.75 1.08-.85.52-1.44.94-.67.44-.98.7-.75.67-.11.17.07.43.08.24.45.55.28.3.85.68.47.36 1.26.82.68.43 1.67.97.89.5.68.36-7.18-3.59-8.06 4.06-5 2.26.5-.43.26-.27.33-.57.34-2.04v-.19l-.15-.66-.1-.37-.34-.99-.19-.53-.5-1.28-.27-.67-.64-1.51-.68-1.56-1.7-3.63-2.9-5.83-.51-.99-1.14-2.22-.59-1.14-1.25-2.44-1.28-2.5-2.73-5.33-1.36-2.68-2.65-5.21-.65-1.27-1.21-2.4-1.68-3.31-1.04-2.07-2.06-3.87-1-1.86-1.82-3.18-.43-.73-.78-1.29-.38-.6-.65-.99-.31-.45-.49-.65-.54-.55-.39-.24-.86-.24-.47-.07-1.22.15-.67.12-1.84.59-.51.17-1.18.44-2.05.8-1.7.68-3.19 1.16-1.57.55-3.07.92-1.54.44-3.14.71-1.59.33-3.38.52-1.73.24-2.49.24 9.79-1.69 7.14-1.8 3.25-1.12 6.3-2.39 2.83-1.41 5.44-2.96 2.38-1.7 4.55-3.52 1.94-1.96 1.87-2 .85-1.05 1.64-2.13.74-1.12 1.4-2.26.62-1.18 1.16-2.38.5-1.24.92-2.52.37-1.3.69-2.64.24-1.36.66-5.08.16-3.29-.05-1.6-.2-3.16-.24-1.53-.56-3.01-.42-1.44-.92-2.85-.59-1.36-1.27-2.68-.77-1.26-1.62-2.49-.94-1.16-1.97-2.28-1.11-1.06-4.32-3.83-2.93-2.22-1.58-.98-3.28-1.88-1.87-.85-3.94-1.65-2.33-.77-2.39-.76-1.31-.37-2.69-.75-1.46-.37-3.02-.74-1.65-.38-3.39-.75-1.85-.38-3.8-.77-2.06-.4-4.25-.8-2.31-.42-4.74-.86-2.56-.45-5.27-.91-2.84-.48-2.5-.43.22.03 1.68.25.79.12 1.24.13.57.06.91.02h.83l1.03-.34 1.35-1.02.49-.46.56-.81.09-.22.03-.55-.02-.31-.2-.78-.13-.43-.47-1.12-.26-.61-.76-1.56-.43-.84-1.08-2.11-.59-1.13-1.45-2.75-.93-1.76-1.93-3.69-.98-1.88-2.04-3.93-2.07-3.99-4.41-8.6-2.25-4.39-4.73-9.31-7.35-14.57-1.06-2.12-2.15-4.01-1.06-1.93-2-3.43-.97-1.61-1.69-2.57-.4-.57-.71-.94-.92-1.07-.5-.52-.83-.94-.38-.44-.53-.75-.22-.34-.18-.46.18-.3h.17l-.06-.24-.09-.16-.53-.51-.31-.28-.91-.7-1.71-1.2-1.13-.75-2.16-1.67-1.05-.86-1.98-1.88-1.94-1.91-1.11-1.46m-55.83 249.96-1.99-.86-4.38-2.01-2.11-1.03-.04-.02m-19.68-11.03 12.82 7.5 1.58.84-2.92-1.48-3.94-2.28-7.83-4.71-1.71-1.15m-18.85-13.94 1.17 1.06 1.8 1.48-1.29-1.02-1.6-1.38-.68-.65-1.27-1.27-.02-.01m-2.61-3.74-.13-.33-.4-1.11-.09-.55-.13-2.22.09-.37.06 2.06m114.12-18.92 5.59 1.26 2.96.57 6.05.95 4.59.55 2.49.22 5.09.43 2.66.16.46.03-2.93-.1-1.43-.05-2.55-.15-2.48-.17-4.4-.53-7.05-1.22-3.04-.58-5.7-1.3-2.81-.67-.04-.01m268.12 1.01 1.23.07 2.07.09.97.04h.55l-.47.02-.88.03-.31.01h-.55l-.14-.01-4.93-.4m-35.1-34.73 4.1 1.05 4.15 1.02 2.15.45 4.36.88 2.28.39 4.64.75 2.44.33 4.96.64 2.63.28 3.46.61 2.2.76 1.35.69 1.39.76.82.49 1.7 1.05 1.01.65 2.12 1.4 1.25.84 2.65 1.8 1.55 1.07 4.82 3.37 2.92 2.1 1.29.97 2.49 1.87 1.07.85 2.04 1.64.84.73 1.57 1.38.6.58 1.07 1.11.34.44.56.81.08.28.02.5-.19.12-.45.12-.57.1-.4.06-.88.12-.55.06-1.16.13-.66.07-2.9.3-1.71.15-3.56.3-1.92.15-3.8.28-1.77.12-3.33.21h.02l.5-.19.21-.1.23-.26.17-.27-.12-.45-.74-.33-.18-.01-.74-.3-.42-.19-1.1-.62-4.04-2.63-.35-.25-1.02-.72-.55-.39-1.36-.97-.71-.51-1.65-1.16-.85-.61-1.88-1.33-1.93-1.36-4.3-3.03-6.65-4.69-2.21-1.55-4.03-2.88-.96-.69-1.77-1.28-.86-.62-1.53-1.11-.72-.54-1.24-.92-.58-.44-.91-.69-.41-.32-.53-.44-.33-.33v-.13l.29-.03.71.29.27.17.43.03.3-.39-.01-.11-.65-.41-.42-.23-1.36-.59-.75-.32-1.88-.69-3.21-1.09-1.14-.36-2.72-.96-.66-.24m31.6 36.17-.31-.03-1.57-.2m-14.02-2.08-.57-.09-.12-.03m-18.52-4.75 4.4 1.35 8.85 2.22 3.58.83-.66-.13-9.66-2.21-4.78-1.44-4.79-1.51-2.45-.85-1.79-.64m-263.45-13.76 1.8 1.08 3.53 2.1 1.69.99 3.34 1.93 1.6.89 6.23 3.43 2.92 1.48 5.71 2.81 2.72 1.21 1.78.76-1.71-.73-2.73-1.21-5.72-2.81-2.91-1.48-6.24-3.42-1.6-.9-3.34-1.93-1.69-.99-3.55-2.11-1.79-1.08-3.78-2.31-5.94-3.7 5.92 3.69m258.19-18.62 1.1.37.76.3 1.67.67.99.42 2.07.9 1.11.51 11.18 4.56-2.79-1.06-1.5-.58-2.9-1.19-3.86-1.67-1.13-.52-2.1-.91-1-.43-1.7-.68-.78-.31-1.11-.37-.79-.15m-191.23-54.29 2.31.53 4.83 1.03 2.45.51 3.78.75-.14-.03-2.31-.45-4.45-.88-2.03-.44-3.96-.86-1.87-.44-3.7-.89-1.85-.48-.2-.05m247.68-32.58.29.43.18.36.39.79.22.52.46 1.12.26.67.54 1.4.29.81.59 1.67.31.92 1.29 3.91.69 2.22 1.3 4.35.55 2.01 1.04 3.9.4 1.66.37 1.6.15.72.27 1.35.1.58.17 1.06.04.41.05.74-.03.23-.32 3.2-3.7-2.83-2.07-1.8-1.2-1.27-.51-.69-.96-1.43-.4-.78-.75-1.62-.29-.9-.54-1.85-.2-1.04-.36-2.14-.11-1.2-.18-2.48-.03-1.37-.03-2.86.05-1.58.19-4.44.19-2.48.12-.95.25-1.72.14-.53.31-.84.16-.06m-292.25 15.6 2.49 1.53 5.49 2.87 2.84 1.4 6.23 2.64 3.21 1.29 6.83 2.37-.08-.03-4.01-1.33-1.89-.69-3.72-1.39-1.76-.72-3.46-1.47-1.64-.76-6.35-3.15-2.91-1.74-5.66-3.59-.45-.35m44.59-205.37.97.37.54.33 1 .93.85 1.11.55.84 1.19 1.9.75 1.29.78 1.36.43.78.89 1.62.5.91 1.02 1.9.56 1.06 1.17 2.2.63 1.21 1.31 2.52.72 1.38 1.47 2.86.79 1.56 1.64 3.2.89 1.75 1.82 3.58.98 1.94 2.01 3.98 1.08 2.15 2.21 4.39 1.19 2.36 1.81 3.71 1 2.2.41.95.74 1.83.28.78.48 1.47.15.61.23 1.14.01.45-.02.81-.11.3-.27.51-.23.14-.52.22-.35.01-.36.28.3.41.4.25.89.64.06.18-.06.09-.2.18-.23.11-.53.23-.41.14-.93.29-.63.19-1.39.4-.89.25-1.92.53-1.18.33-4.96 1.6-3.17 1.26-1.52.72-2.97 1.48-1.41.83-2.75 1.7-1.29.93-2.51 1.9-1.16 1.02-2.24 2.09-1.01 1.1-1.95 2.25-.86 1.18-1.64 2.4-.69 1.25-1.63 3.22-.69 1.91-.19 1.16-.17 1.22-.05.72-.1 1.52-.03.91-.04 1.95-.01 1.17-.01 2.5V427l.02 3.76.02 2.12.03.91.07 1.7.05.73.12 1.38.05.39-.49-2.19-.19-1.18-.51-2-.13-.44-.25-.65-.35-.53-.11-.07-.26-.88-.14-.54-.3-1.66-.15-.9-.31-2.23-.42-3.72-.17-1.68-.4-2.92-.21-1.4-.52-2.45-.28-1.17-.66-2.07-1.19-2.81-1.61-3.22-3.4-6.69-1.71-3.36-3.48-6.74-1.73-3.35-3.41-6.5-1.67-3.19-3.18-5.95-1.54-2.89-2.78-5.12-.66-1.22-1.23-2.22-.59-1.07-1.08-1.91-.51-.91-.91-1.56-.42-.74-.71-1.17-.33-.54-.5-.76-.49-.61-.59-.5-.67-1.1-.06-1.4.1-.18-.31.16-.23.15-.88.73-.49.43-1.02.92.55-.54 1.86-1.66 3.77-3.25 1.99-1.54 4.03-3.02 2.12-1.42 4.29-2.79 2.23-1.3 4.54-2.54 2.36-1.18 4.78-2.29 2.49-1.05 5.02-2.04 2.6-.92 2.39-.83 1.34-.45.56-.17 1.98-.56.7-.09 1.25-.07m-76.07 65-1.09 2.72-1.9 5.61-.89 2.83-1.49 5.77-1.73 8.78 1.48-7.8 1.23-5.07.72-2.47 1.53-4.89.88-2.38 1.82-4.71 1.02-2.28.59-1.24m1.38-2.86-.98 2.01 1.13-2.43 1.17-2.19.23-.4Z"/><path fill="#D50505" d="m607.03 696.87 1.16.19.42.26.77.63.44.5 1.34 1.29 1.4 1.24.89.75 1.87 1.58 1.04.85 2.13 1.73 1.09.86 4.78 3.8 2.59 2.1 1.02.86 1.87 1.6.68.64 1.21 1.18.38.47.61.84.1.32.09.59-.14.22-.38.41-.34.17-.78.31-.52.15-3.61.94-2.75.65-1.5.33-6.29 1.31-3.32.61-6.69 1.17-3.13.46-3.08.44-1.42.17-2.75.33-1.21.11-8.24.62 7.71-.59 1.96-.19 3.19-.37 1.47-.19 2.22-.44 1-.25 1.26-.61.52-.34.31-.88.04-.48-.63-1.23-.43-.66-1.56-1.67-.45-.45-1.07-1-.57-.51-1.3-1.14-.68-.59-1.53-1.29-2.56-2.12-1.8-1.48-3.05-2.46-1.45-1.16-2.5-1.89-1.2-.88-2.13-1.39-1.04-.65-1.95-.99-.97-.45-1.94-.68-1-.3-2.13-.45-1.11-.2-2.51-.3-4.38-.38-2.31-.17-4.82-.57-2.43-.31-2.57-.42 1.94.21 4.84.47 2.53.18 5.14.32 2.61.1 5.21.15 2.56.02 5.05-.02 2.4-.08 4.67-.19 2.12-.17 4.07-.39 1.73-.27 2.81-.43 1.53-.21.63-.08 1.16-.13.46-.02.86-.04m-100.62 16.55 4.03 1.69 8.17 2.94 4.1 1.39 8.29 2.34 4.16 1.1 8.38 1.75 4.21.8 2.73.37-2.69-.36-4.21-.8-8.39-1.74-4.16-1.09-8.28-2.34-4.09-1.39-8.17-2.94-4.04-1.7-8.06-3.53-.02-.01m18-23.11 1.27.51 5.38 2.05 2.98 1.01 5.64 1.85-1.69-.5-2.38-.72-4.53-1.56-2.22-.79-4.13-1.66-1.74-.8m-6.66-3.25.71.4.46.24.98.5.6.3.46.22-.43-.2-.68-.34-1.1-.55-.51-.25-.76-.45-.33-.21-.01-.01m2.12-5.17-1.76 2.24-.63.89.06-.13.22-.38.72-.99.42-.53 1.12-1.36.54-.65m-86.04-191.99 8.97 2.08 4.25 1.1 8.33 2.21 3.9 1.15 7.64 2.33 3.55 1.2 6.9 2.43 3.15 1.24 6.11 2.5 2.74 1.27 5.27 2.57 2.29 1.29 4.37 2.61 1.84 1.31 2.09 1.58 1.18.98.45.42.78.77.2.28.28.46-.08.09.07.7.36.85.31.58.7 1.25.45.72.96 1.49.56.8 1.51 2.26 1.1 1.75.59.98 2.48 4.21 1.35 2.42 2.77 5.03 1.43 2.71 2.89 5.53 1.42 2.84 2.84 5.69 1.34 2.78 2.61 5.51 1.16 2.58 2.23 4.99.9 2.19.87 2.14.37.96.71 1.87.28.82 1.23 3.4.82 2.1.38.89.73 1.66.29.59.55 1 .17.18.49.92.28.95.12.59.37 2.62.01 1.42.02 5.18 3.19 1.41-.76-.3-1.1-.37-.78-.14-.05.06-.19.89-.1.55-.26 1.72-.14.94-.3 2.33-.47 3.91-.32 2.75-.66 5.67-.16 1.33-.27 2.29-.32 2.59-.58 4.63 4.64 1.79-.15-.05-.84-.31-.78-.28-.28-.11-.48-.19-.12-.05-1.4-.22-.62.37-.13.44-2.43 7.84-1.56 4.66-.77 2.1-1.57 4.07-.81 1.89-1.67 3.68-.9 1.77-1.87 3.48-1.05 1.74-2.17 3.49-1.23 1.81-2.58 3.67-.16.23.12-.24.19-.41.1-.63-.24-.69-.28-.28-.43-1.09-.3-1.89v-.13l-.09-.42-.07-.24-.23-.66-.13-.36-.36-.92-.21-.49-.51-1.17-.28-.63-.67-1.46-.35-.76-.83-1.76-.43-.91-1-2.06-.52-1.07-1.17-2.39-.61-1.23-1.35-2.72-.7-1.4-1.55-3.08-.79-1.58-1.74-3.43-.9-1.77-1.94-3.82-.99-1.95-2.15-4.21-1.11-2.16-2.36-4.62-1.22-2.36-2.59-5.04-4.15-8.05-.56-1.1-1.31-2.54-.68-1.32-1.5-2.91-1.53-2.98-3.41-6.62-1.72-3.35-3.47-6.76-.85-1.66-1.65-3.21-2.33-4.55-1.48-2.89-3.27-6.37-1.65-3.22-3.32-6.46-.82-1.59-1.57-3.06-.77-1.5-1.45-2.82-.71-1.37-1.28-2.48-1.67-3.24-1.46-2.83-2.66-5.19-1.29-2.52-2.32-4.56-1.12-2.21-1.97-3.92-.94-1.88-1.61-3.26-.76-1.55-1.25-2.58-.58-1.21-.87-1.9-.39-.85-.49-1.19-.29-.97v-.15l-.45-.71-.3-.41-.94-1.14-.53-.61-1.31-1.42-2.23-2.29-.71-.7-1.2-1.15-.56-.54-1-.88-.96-.83-1.82-1.06-.49-.24-1.08-.4-.57-.19-1-.26m165.63 161.05 2.62.42 5.55.73 2.84.35 4.07.4-2.39-.16-4.14-.49-8.25-1.15-1.83-.36m48.67 1.91-.19.01.64-.05m4.04-.36-.9.08 1.18-.12m-46.91-29.52 5.34.76 2.7.3 5.4.54 2.68.18 5.31.29 2.57.06 5.07.04 2.39-.08 4.67-.24 2.14-.22 2.49-.25 1.39-.12.58-.04 2.03-.08.69.07 1.2.21.43.23.79.55.4.42.57.53.59.49.38.3 1.77 1.37 1.16.87 2.47 1.82 1.4 1 2.9 2.06 1.51 1.05 4.38 3.07 2.67 1.91 1.11.81 2.08 1.52.72.54.66.51.23.19.4.33.1.09.9 1.46.02.92-.27.41-.71.79-.61.32-1.4.58-.94.19-14.44 2.55-3.19.43.18-.11-.02-.5-.08-.28-.56-.81-.34-.44-1.07-1.11-.6-.58-1.57-1.38-.84-.73-2.04-1.64-1.07-.85-2.49-1.87-1.29-.97-2.92-2.1-4.82-3.37-1.55-1.07-2.65-1.8-1.25-.84-2.12-1.4-1.01-.65-1.7-1.05-.82-.49-1.39-.76-1.35-.69-2.2-.76-3.46-.61-2.63-.28-4.96-.64-2.44-.33-4.64-.75-.98-.17m5.17-138.19.53.39.31.46.31.52.18.35.37.76.21.5.43 1.06.25.67.52 1.41.29.85.62 1.81.36 1.07.74 2.26.42 1.31.87 2.75.49 1.58 1.03 3.29.58 1.87 1.19 3.89.67 2.18 1.38 4.52.77 2.52 1.59 5.22.87 2.88 1.81 5.96.99 3.27 1.69 5.6.89 3.03.34 1.22.6 2.24.2.87.33 1.59.06.59.07 1.06-.06.37-.18.67-.18.24-.94.72-.79.29-1.77.56-.92.11-1.84.12-.93-.09-1.87-.28-.92-.28-1.7-.61.26-2.56.03-.23-.05-.74-.04-.41-.17-1.06-.1-.58-.27-1.35-.15-.72-.37-1.6-.4-1.66-1.04-3.9-.55-2.01-1.3-4.35-.69-2.22-1.29-3.91-.31-.92-.59-1.67-.29-.81-.54-1.4-.26-.67-.46-1.12-.22-.52-.39-.79-.18-.36-.29-.43-.32-.23-.16.06-.31.84-.14.53-.25 1.72-.12.95-.19 2.48-.19 4.44-.05 1.58.02 2.23-.01-.33-.07-3.26-.02-2.01-.02-2.09-.01-1.15-.02-2.38v-1.3l-.01-2.7v-1.47l-.01-3.04v-1.65l.02-5.78.02-3.68.02-1.72.05-3.35.03-1.53.07-2.95.03-1.31.09-2.48.04-1.03.1-1.93.05-.73.1-1.29.06-.38.12-.59h.06m-.47 54.61.11 1.2.36 2.14.2 1.04.22.77-.36-1.05-.25-1.3-.1-.81-.18-1.76-.06-1.03m-209.47-56.1 2.48.6 5.07 1.23 2.66.62 5.4 1.24 2.78.62 9.75 2.09-3.78-.77-2.36-.49-4.92-1.08-4.96-1.11-9.88-2.39-2.4-.6-3.69-.95m-12.66-3.59-1.26-.42-1.59-.57 3.37 1.15m-107.49-70.2.13-.65.24-.9m88.75-2.23-.96.67 1.21-.87.62-.38m-67.59-40.34-1.59 1.87-2.97 3.92-1.45 1.98-2.69 4.12-1.31 2.08-2.41 4.32-1.17 2.19-2.12 4.52-1.02 2.28-1.82 4.71-.88 2.38-1.53 4.89-.22.74.74-2.72 1.12-3.25 2.37-6.41 1.38-3.07 2.9-6.04 1.64-2.88 3.42-5.66 1.9-2.69 3.94-5.28 2.15-2.5 1.71-1.89m115.71-42.94.49.03.85.07.24.07.35.16v.1l-.12.23-.22.14-.49.48-.08.34.1.19.28.41.28.24.66.52.48.31.67.6.53.59.3.39 1.3 1.82.77 1.24 1.61 2.71.9 1.63 1.85 3.46.99 1.97 1.5 2.98 1.17 2.31.65 1.29 1.34 2.65.73 1.43 1.47 2.91.77 1.51 3.16 6.2 1.6 3.12 3.17 6.2 1.46 2.85 4.13 8.08 1.24 2.45.57 1.12 1.09 2.17.49.96.91 1.83.39.78.71 1.44.27.56.48 1 .14.31.22.49v.03l-.24.33-.38.31-.28.19-1.33.84-.85.44-1.82.77-1.22.29-.71.04-1.51.02-.98-.1-2.12-.24-1.39-.21-14.53-1.53-9.6-.32-4.73.2-9.42.62-4.6.66-9.15 1.56-4.44 1.12-6.06 1.76-3.79 1.33-1.76.74-3.45 1.53-1.59.84-2.66 1.49 1.13-.7 1.41-.83 2.97-1.48 1.52-.72 3.17-1.26 4.96-1.6 1.18-.33 1.92-.53.89-.25 1.39-.4.63-.19.93-.29.41-.14.53-.23.23-.11.2-.18.06-.09-.06-.18-.89-.64-.4-.25-.3-.41.36-.28.35-.01.52-.22.23-.14.27-.51.11-.3.02-.81-.01-.45-.23-1.14-.15-.61-.48-1.47-.28-.78-.74-1.83-.41-.95-1-2.2-1.81-3.71-1.19-2.36-2.21-4.39-1.08-2.15-2.01-3.98-.98-1.94-1.82-3.58-.89-1.75-1.64-3.2-.79-1.56-1.47-2.86-.72-1.38-1.31-2.52-.63-1.21-1.17-2.2-.56-1.06-1.02-1.9-.5-.91-.89-1.62-.43-.78-.78-1.36-.75-1.29-1.19-1.9-.55-.84-.85-1.11-1-.93-.54-.33-.97-.37-.5-.13-1.25.07-.7.09-1.22.34 3.93-1.3 3.81-1.05 7.72-1.97 4.02-.82 8.15-1.53 4.24-.6 8.58-1.08 4.44-.37 5.34-.42 3.09-.23 1.31-.08 2.49-.15 1.03-.05 1.92-.07.75-.01m-111.46 39.87-1.18 1.21 1.03-1.13 2.19-2.09m4.67-4.28.48-.43.34-.28Z"/><path fill="#E70303" d="m614.76 724.02-5.08.9-5.06.84-2.45.34-4.85.62-1.11.1 2.75-.33 1.42-.17 3.08-.44 3.13-.46 6.69-1.17 2.4-.44m18.78-33.73.39.04.05.07.01.18-.12.13.02.5.31.5.28.3.64.65.41.35.9.72.52.36 2.28 1.65 1.66 1.26.88.69 3.57 2.87 1.71 1.45 1.68 1.45.78.68 1.5 1.34.64.61 1.22 1.15.47.48.84.9.24.31.91 1.3.21.6-.13.25-.43.47-.5.26-1.2.56-.92.4-6.33 2.5-4.52 1.6-2.38.77-7.6 2.29.32-.35.14-.22-.09-.59-.1-.32-.61-.84-.38-.47-1.21-1.18-.68-.64-1.87-1.6-1.02-.86-2.59-2.1-4.78-3.8-1.09-.86-2.13-1.73-1.04-.85-1.87-1.58-.89-.75-1.4-1.24-1.34-1.29-.44-.5-.77-.63-.42-.26-1.16-.19-.34-.03-.86.04-.46.02-1.16.13-.63.08-1.53.21-2.81.43-1.73.27-4.07.39-2.12.17-4.67.19-2.4.08-1.67.01 1.11-.03 7.79-.31 3.7-.39 7.32-.92 3.74-.72 3.77-.76 1.95-.44 3.96-.95 2.08-.54 4.58-1.19 2.66-.67 1.13-.27 2.15-.52.9-.2 1.67-.37.67-.13 1.21-.23.45-.06.79-.09m-57.07 8.79-.5-.01-1.47-.04m-49.49-8.47 6.09 1.99 3.1.9 6.2 1.73 2.93.69.97.2-.97-.18-2.94-.7-6.2-1.74-3.11-.9-6.09-2-1.19-.4m-1.78-.61h-.01l-.77-.29m87.22-43.61-2.28-.02 3.63-.03m-12.25-.16-.58-.01-3.78-.27h-.06m26.93.03-2.81.14 6.4-.48m-50.65-2.37 4.1.8 8.25 1.15 1.85.22-1.52-.13-3.68-.5-7.32-1.11-3.58-.72-3.76-.87-1.28-.33m65.65 3.05-2.2.24 5.83-.79m8-1.27-3.87.64-.16.03 5.23-.93m8.54-30.54.06.06.06.14-.1.11.07.29.24.33.22.22 1.11 1.04.86.7 1.91 1.5 1.18.87 2.51 1.8 1.4.96 4.13 2.87 2.59 1.86 1.11.84 2.09 1.59.77.63.71.59.28.24.48.45.14.15 1.89 1.77 1.22.9.39.14.45.29.03.23-.14.14-.37.3-.36.19-.83.38-.6.24-1.33.49-.87.29-1.88.62-1.16.36-2.48.76-1.48.44-3.12.92-1.81.52-7.37 1.91.03-.02.71-.79.27-.41-.02-.92-.9-1.46-.1-.09-.4-.33-.23-.19-.66-.51-.72-.54-2.08-1.52-1.11-.81-2.67-1.91-4.38-3.07-1.51-1.05-2.9-2.06-1.4-1-2.47-1.82-1.16-.87-1.77-1.37-.38-.3-.59-.49-.57-.53-.4-.42-.79-.55-.43-.23-1.2-.21-.69-.07-2.03.08-.58.04-1.39.12-2.49.25-2.14.22-4.67.24-2.39.08-5.07-.04-2.57-.06-5.31-.29-2.68-.18-4.32-.43 4.97.34 2.9.1 5.9.13 3.13-.02 5.64-.08 3.47-.11 1.63-.08 6.33-.41 3.17-.37 3.19-.39 1.68-.25 3.41-.54 1.85-.32 3.79-.69 2.09-.41 4.33-.86 2.42-.5 1.91-.21M535.36 630.8l.28.11.78.28.84.31 2.4.85 1.29.46 3.06 1.06 4.99 1.72.06.02-.11-.03-1.76-.57-3.44-1.13-1.56-.53-2.99-1.05-1.26-.47-2.34-.9-.72-.32m25.62-21.08.99.32-.59-.18-1.05-.35-.26-.1m-23.21-9.67 8.56 3.83 6.75 2.86-.17-.07-2.9-1.18-3.95-1.68-8.63-3.81-.02-3.69m-44.2-87.2 1.88 1.34 3.15 2.4 2.22 1.81 1.15.99 4.64 4.18 2.27 2.24 4.46 4.55 1.95 2.21 1.9 2.18.84 1.04 1.61 2.04.67.94 3.31 5.05 2.01 3.5.91 1.84 1.76 3.73.79 1.96 1.52 3.99.68 2.11 1.29 4.28.57 2.26 1.07 4.6.46 2.44.87 4.97.36 2.62.68 5.36.27 2.84.3 3.24-.17-.58-.49-.92-.17-.18-.55-1-.29-.59-.73-1.66-.38-.89-.82-2.1-1.23-3.4-.28-.82-.71-1.87-.37-.96-.87-2.14-.9-2.19-2.23-4.99-1.16-2.58-2.61-5.51-1.34-2.78-2.84-5.69-1.42-2.84-2.89-5.53-1.43-2.71-2.77-5.03-1.35-2.42-2.48-4.21-.59-.98-1.1-1.75-1.51-2.26-.56-.8-.96-1.49-.45-.72-.7-1.25-.31-.58-.36-.85-.07-.7.08-.09-.28-.46-.2-.28-.78-.77-.45-.42-1.18-.98-2.09-1.58-1.69-1.21m94.29 29.29.47 1.03 1.15 1.88.61.91 1.41 1.62.73.77 1.6 1.32.82.63 1.74 1 .88.46 1.83.66.92.28 1.87.28.5.05-.58.04-1.43-.25-2.81-.74-1.37-.75-2.69-1.74-1.32-1.24-2.1-2.11-1.14-1.41-.45-.83-.82-1.79-.31-1.18-.27-1.1m5.26-94.99.95.57.35.44-.04.18.04.37.11.47.08.33.42 1.57.31 1.11.7 2.39.43 1.4.9 2.94.5 1.58.87 2.77.68 2.21.39 1.26.8 2.61.43 1.42.89 2.92.47 1.54 1.92 6.35.98 3.28 1.96 6.55.91 3.09 2.65 8.82.82 2.68.39 1.23.74 2.39.34 1.06.65 2.04.28.87.53 1.62.21.63.4 1.13.14.37.23.59.06.07.34.72.25.76.13.47.49 2.13.17 1.17.53 3.65.31 2.02.13.83.25 1.54.11.61.22 1.12.1.43.19.77.1.27.18.47.1.15.39.39h.24l.38.32.18.51.04.39.06.87-.01.55-.06 1.17-.08.68-1.08 4.18-1.3 2.64-.88 1.19-1.92 2.27-1.16.95-2.43 1.75-1.36.62-1.05.4.67-.51.18-.24.18-.67.06-.37-.07-1.06-.06-.59-.33-1.59-.2-.87-.6-2.24-.34-1.22-.89-3.03-1.69-5.6-.99-3.27-1.81-5.96-.87-2.88-1.59-5.22-.77-2.52-1.38-4.52-.67-2.18-1.19-3.89-.58-1.87-1.03-3.29-.49-1.58-.87-2.75-.42-1.31-.74-2.26-.36-1.07-.62-1.81-.29-.85-.52-1.41-.25-.67-.43-1.06-.21-.5-.37-.76-.18-.35-.31-.52-.31-.46-.53-.39-.82-.15h-.06l-.12.59-.06.38-.1 1.29-.05.73-.1 1.93-.04 1.03-.09 2.48-.02.74.02-2.63.03-4.51.02-2.03.03-3.92.02-1.76.03-3.39.02-1.51.04-2.89.03-1.28.04-2.44.03-1.07.06-2.05.03-.89.07-1.68.04-.73.09-1.37.05-.58.1-1.11.06-.46.25-1.66.17-.59.35-1.07.22-.44.47-.85.29-.46 1.07-1.52.68-.79.32-.27.62-.45.28-.1.53-.11m-122.56 56.45.07.03-.07-.03m-34.57-10.43 4.25 1.1 8.34 2.21 3.91 1.16 7.63 2.33 3.55 1.2 3.72 1.31-3.82-1.34-3.55-1.2-7.64-2.33-3.9-1.15-8.33-2.21-4.25-1.1-8.97-2.08-14.11-2.97 14.18 2.98m-93.17-80.6-1.63 2.22.57-.84.93-1.27.49-.56m73.85-94.1 5.98.41 11.83 1.06 5.72.87 5.68.93 2.78.55 5.53 1.16 2.7.67 9.4 2.5 3.05.88 1.43.43 2.78.85 1.23.39 2.36.78.96.34 1.78.64.62.26 1.04.46.19.15.16.24-.31.02-.63.1-.22.13-.01.12.05.27.12.2.31.45.25.3.63 1.1-.11.4h-.33l-.07.61.29.96.29.71.68 1.53.45.93.99 1.94.59 1.07.99 1.81.75 1.4.42.78 1.76 3.3.95 1.82 1.96 3.74.97 1.87 1.92 3.72.87 1.71 1.71 3.4.96 1.95.4.84.74 1.59.29.67.53 1.26.19.53.35.98.1.4.17.74.02.3-.05 1.01-.23.33-.45.69-.42.67-.26.42-1.17 1.92-.73 1.23-1.55 2.63-.87 1.48-1.78 3.04-.92 1.59-1.84 3.2-.89 1.55-1.75 3.06-.78 1.39-1.5 2.65-.59 1.08-.57 1.03-.23.44-.44.81-.16.32-2.38 4.6-7.7-3.83-9.11-4.1-6.33-2.45-3.26-1.07-6.58-2.04-3.35-.87-6.75-1.62-3.4-.65-5.98-1.04.73.08 1.39.21 2.12.24.98.1 1.51-.02.71-.04 1.22-.29 1.82-.77.85-.44 1.33-.84.28-.19.38-.31.24-.33v-.03l-.22-.49-.14-.31-.48-1-.27-.56-.71-1.44-.39-.78-.91-1.83-.49-.96-1.09-2.17-.57-1.12-1.24-2.45-4.13-8.08-1.46-2.85-3.17-6.2-1.6-3.12-3.16-6.2-.77-1.51-1.47-2.91-.73-1.43-1.34-2.65-.65-1.29-1.17-2.31-1.5-2.98-.99-1.97-1.85-3.46-.9-1.63-1.61-2.71-.77-1.24-1.3-1.82-.3-.39-.53-.59-.67-.6-.48-.31-.66-.52-.28-.24-.28-.41-.1-.19.08-.34.49-.48.22-.14.12-.23v-.1l-.35-.16-.1-.02m-60.03 92.34 1.02-1.08 1.33-1.19m5.61-4.27-3.49 2.44.23-.19 2.77-1.95 1.43-.95.55-.31m4.96-2.6-3.62 1.85 1.21-.68 1.59-.84 2.12-.95m6.14-2.37-4.73 1.75 1.68-.7 3.79-1.33.53-.15m16.64-3.86-6.48 1.15-2.99.72-3.2.84 1.56-.46 4.44-1.12 9.15-1.56 4.6-.66 3.34-.22m11.72-.57-1.94.03-2.59.09 3.62-.15m-65.86 25.59-.76 1.38.76-1.38Z"/><path fill="#F80101" d="m633.96 719.27-.76.22 1.06-.32m40.24-36.7 3.76 3.11 2.28 1.96.95.86 1.75 1.62.6.6.54.57.19.22.33.4.07.12.32 1.18-.08.81-.21.44-.54.89-.45.48-1.03.99-.71.55-1.57 1.14-1.01.63-2.15 1.32-1.31.73-2.79 1.53-1.64.85-3.46 1.77-2 .99-8.85 4.17-1.2.51.04-.04.13-.25-.21-.6-.91-1.3-.24-.31-.84-.9-.47-.48-1.22-1.15-.64-.61-1.5-1.34-.78-.68-1.68-1.45-1.71-1.45-3.57-2.87-.88-.69-1.66-1.26-2.28-1.65-.52-.36-.9-.72-.41-.35-.64-.65-.28-.3-.31-.5-.02-.5.12-.13-.01-.18-.05-.07-.39-.04-.25-.01-.79.09-.45.06-1.21.23-.67.13-1.67.37-.9.2-2.15.52-.74.18 3.39-1.05 3.04-1.01 1.57-.56 6.43-2.38 3.19-1.31 6.3-2.65 2.82-1.31 2.75-1.3 1.24-.63 2.38-1.24 1.02-.58 5.25-2.99m-69.83 23.29-3.7.39-7.79.31-2.02.05-4.24-.02-6.79-.16-1.51-.05-2.79-.12-1.36-.07-2.09-.13 1.53.06 1.51.03 3.17.04 1.83.02 3.84.01H577l7.62-.05 4.48-.1 2.01-.08 3.9-.2 1.8-.15.46-.04m-55.66-2.79.21.06-.75-.18-.71-.2m-4.42-1.23-1.07-.3-1.3-.38m-19.67-7.01 2.47 1.04 1.38.54 2.84 1.09 1.53.55 3.12 1.1 1.62.54 6.6 2.12-1.69-.49-6.09-1.99-2.97-1.01-5.39-2.06-1.27-.5-2.31-1-1.78-.83m-4-2.03-.01-.01-.45-.26m-.96-1 .19.29.59.6h-.01l-.59-.6-.18-.29.19-.66.97-1.36-.97 1.36m75.95-37.19 3.68.5 7.51.64 3.78.27 7.64.19 3.84.03 7.73-.27 3.88-.19 3.72-.35-3.68.35-3.87.19-7.74.27-3.84-.03-7.65-.18-3.78-.27-7.51-.65-3.69-.49-7.34-1.11-3.58-.73 3.58.72m91.15-6.25-1.54.45 1.79-.53m24.59-28.72 4.17 2.88 2.66 1.89 1.17.86 2.23 1.66.86.68.8.64.32.26.58.5.2.18 2.83 2.7-6.02 3.05-3.84 1.84-2.79 1.27-1.5.65-6.22 2.59-3.34 1.27-4.39 1.63.35-.28.14-.14-.03-.23-.45-.29-.39-.14-1.22-.9-1.89-1.77-.14-.15-.48-.45-.28-.24-.71-.59-.77-.63-2.09-1.59-1.11-.84-2.59-1.86-4.13-2.87-1.4-.96-2.51-1.8-1.18-.87-1.91-1.5-.86-.7-1.11-1.04-.22-.22-.24-.33-.07-.29.1-.11-.06-.14-.06-.06-.35-.05-1.91.21-2.42.5-4.33.86-2.09.41-1.6.29.06-.01 5.6-1.2 2.8-.7 5.61-1.47 2.82-.84 5.62-1.75 2.82-.98 5.64-2.04 2.82-1.12 6.36-2.52m-128.8 5.7 5.1 1.89 2.57.84 5.17 1.61 2.6.7 5.23 1.33 2.63.56 5.29 1.05 2.66.42 4.15.6-4.71-.59-2.58-.37-5.05-.94-2.52-.52-4.97-1.26-2.48-.67-5-1.6-2.51-.84-5.12-1.95-7.93-3.36-8.56-3.83 8.46 3.78m72.66-65.67-2.88 3.78-1.39 1.54 1.26-1.48.88-1.19 1.3-2.64.83-3.2m-12.65-97.84 2.75.98 1.35.69 2.64 1.49 1.12.86 2.07 1.77.66.9.67 1.05.36.83.14.6.26 1.35.1.99.1 1.05.04.63.08 1.32.03.78.07 1.63.02.96.05 1.99.02 1.15.03 2.41.02 1.36.02 2.85.01 1.61.02 3.34v1.87l.01 3.88v2.15l.01 4.45v47.65l-.26-.22H617l-.39-.39-.1-.15-.18-.47-.1-.27-.19-.77-.1-.43-.22-1.12-.11-.61-.25-1.54-.13-.83-.31-2.02-.53-3.65-.17-1.17-.49-2.13-.13-.47-.25-.76-.34-.72-.06-.07-.23-.59-.14-.37-.4-1.13-.21-.63-.53-1.62-.28-.87-.65-2.04-.34-1.06-.74-2.39-.39-1.23-.82-2.68-2.65-8.82-.91-3.09-1.96-6.55-.98-3.28-1.92-6.35-.47-1.54-.89-2.92-.43-1.42-.8-2.61-.39-1.26-.68-2.21-.87-2.77-.5-1.58-.9-2.94-.43-1.4-.7-2.39-.31-1.11-.42-1.57-.08-.33-.11-.47-.04-.37.04-.18-.35-.44-.95-.57-.22-.09-.53.11-.28.1-.1.07.03-.03 2.29-1.78 1.3-.71 2.68-1.29 1.38-.41 2.75-.62h1.28m-15.83 11.46.03-.23m.35-1.16.17-.51v-.01m.43-.81.25-.46.01-.02M453.69 317.1l3.98 1.16 8 2.44 4.07 1.4 8.89 3.35 6.35 2.68 3.29 1.49 6.61 3.09 3.28 1.63 6.54 3.32 3.12 1.69 6.13 3.37 2.8 1.65 2.75 1.63 1.29.8 2.52 1.58 1.15.76 2.24 1.5 1.01.71 1.92 1.4.83.65 1.57 1.27.63.58 1.17 1.13.42.5 1.37 1.85.64 1.17.2.63.34 1.32.08.78.12 1.68v1.06l-.3 3.38-.29 1.17-.24.67-.54 1.4-.39.84-.86 1.8-.57 1.09-1.25 2.34-.8 1.42-1.7 3.04-1.05 1.83-1.09 1.88-.59 1.04-1.23 2.12-.67 1.16-4.7 7.96-1.5 2.48-.71 1.16-1.39 2.26-.64 1.03-1.25 1.98-.55.87-1.06 1.63-.45.67-.84 1.24-.32.44-.58.77-.18.19-2.69 2.18-2.07 1.15-1.1.4-2.22.66-1.08.13-2.14.09-.97-.19-.91-.31-.91-.39-.58-.28-1.27-.6-.75-.38-1.56-.79-.88-.46-3.75-1.99-2.12-1.17-4.38-2.45-2.27-1.31-6.11-3.51-3.52-1.99-1.54-.85-2.95-1.61-1.32-.7-.83-.42 6.56 3.26 2.38-4.6.16-.32.44-.81.23-.44.57-1.03.59-1.08 1.5-2.65.78-1.39 1.75-3.06.89-1.55 1.84-3.2.92-1.59 1.78-3.04.87-1.48 1.55-2.63.73-1.23 1.17-1.92.26-.42.42-.67.45-.69.23-.33.05-1.01-.02-.3-.17-.74-.1-.4-.35-.98-.19-.53-.53-1.26-.29-.67-.74-1.59-.4-.84-.96-1.95-1.71-3.4-.87-1.71-1.92-3.72-.97-1.87-1.96-3.74-.95-1.82-1.76-3.3-.42-.78-.75-1.4-.99-1.81-.59-1.07-.99-1.94-.45-.93-.68-1.53-.29-.71-.29-.96.07-.61h.33l.11-.4-.63-1.1-.25-.3-.31-.45-.12-.2-.05-.27.01-.12.22-.13.63-.1.31-.02-.16-.24-.19-.15-1.04-.46-.62-.26-1.78-.64-.96-.34-2.36-.78-1.23-.39-2.78-.85-1.43-.43-3.05-.88-7.09-1.89m-10.83 72.61 6.58 2.04 3.26 1.07 6.33 2.45.1.04-2.37-.91-1.37-.51-2.84-1.02-1.61-.57-7.46-2.39-2.74-.75m-7.98-1.94.97.23-1.64-.36m-23.14-3.05 3.37.19 1.08.11-1.25-.09-3.41-.22m-4.61-.18-4.04-.04 2.15-.04m10.51-72.84 3.92.27 7.83.66 1.37.17-8.73-.78-4.88-.34M602.17 726.1l2.45-.34 5.06-.84 5.08-.9 10.34-2.37 3.74-.92-3.75 1.04-2.96.71-5.95 1.34-3 .57-6 1.06-3.03.42-6.08.78-3.07.28 2.32-.21M389.1 382.46l-3.35.16-2.42.23 3.16-.3m8.38-73.42 3.99.06 3.97.12-9.85-.11-18.68.86 12.45-.74Z"/><path fill="#FE0C1F" d="m598.59 726.6-.52.05 1.92-.25m29.22-5.77-.27.07.55-.15m35.06-13.46-5.63 2.72-2.78 1.24-5.5 2.4-2.64 1.05-5.21 1.98-2.43.81-4.29 1.29 3.77-1.24 2.94-1.01 5.88-2.24 2.94-1.15 5.89-2.54 7.85-3.69m18.91-42.61 1.26.3.7.36 1.45.85.88.64 1.85 1.42 1.15.93 2.45 2.01 1.51 1.25 3.8 3.1 2 1.64.75.65 1.35 1.2.44.47.76.87.17.36.22.67-.07.3-.25.59-.28.31-.66.63-.47.38-1.01.8-.62.51-5.91 4.49-4.47 3.09-2.45 1.57-5.01 3.13-2.66 1.55-.69.4.26-.16 1.57-1.14.71-.55 1.03-.99.45-.48.54-.89.21-.44.08-.81-.32-1.18-.07-.12-.33-.4-.19-.22-.54-.57-.6-.6-1.75-1.62-.95-.86-2.28-1.96-3.76-3.11-9.49-7.63-5.25 2.99-1.02.58-2.38 1.24-1.24.63-2.75 1.3-2.82 1.31-.31.13.42-.19 8.03-3.97 4.08-2.32 4.11-2.37 2.09-1.29 4.22-2.63 2.17-1.41 3.37-2.21 1.81-1.15.76-.41 1.44-.69.64-.17 1.25-.2m-78.3-18.62 1.44.01-2.89.05-4.67-.2-.3-.02m19.19-.09-4.75.16-1.33.02 4.89-.17 2.59-.13m-25.93-.11-3.66-.22-2.74-.33m-6.82-.92-4.12-.58-4.45-.9 3.58.73m71.56-1.3-.61.11 1.69-.36m13.39-3.19-4.82 1.21-1.97.45 8.7-2.25.57-.16m7.12-2.16-2.91.88 5.04-1.65m13.53-4.91-1.35.53-1.76.63 3.26-1.24.96-.4m21.81-29.74 4.15 2.91 2.58 1.86 1.09.82 2.05 1.56.74.59.68.56.25.22.45.41.12.13.94 1.14.28.56-.04.24-.22.5-.31.3-.76.65-.6.45-2.29 1.52-2.19 1.28-1.35.74-2.85 1.55-1.61.84-3.32 1.72-.26.12-2.76-2.63-.2-.18-.58-.5-.32-.26-.8-.64-.86-.68-2.23-1.66-1.17-.86-2.66-1.89-4.17-2.88-10.14-6.85-6.36 2.52-2.82 1.12-5.64 2.04-2.82.98-5.62 1.75-2.82.84-5.61 1.47-2.8.7-5.6 1.2-2.79.56-5.57.91-2.78.42-.29.03 2.39-.35 6.05-.98 3.03-.62 6.08-1.31 3.04-.78 6.09-1.65 3.05-.95 6.09-1.98 3.05-1.11 6.11-2.31 3.05-1.28 6.09-2.65 3.05-1.45 12.36-5.87m-94.14 24.72 3.19.01h-3.06l-.69-.02m11.64-.19-2.75.14-.54.01 1.16-.04 2.79-.15m-16.98.05h-.06l-2.71-.14-.83-.08m28.2-.42-2.77.28-.39.03 1.75-.17 2.76-.29m-34.51.12-2.28-.24-1.23-.18m-4.94-.72-1.83-.29-1.65-.33m-4.86-.98-1.41-.3-2.08-.53m-4.76-1.23-.99-.27-2.54-.79m-4.63-1.47-.57-.19-3.1-1.14m-2-.75-7.57-3.15 8.08 3.34m116.85-244.06.59.21.37.22.77.5.47.37 1.02.84.62.55 1.32 1.21.79.75 1.69 1.61 1.01.98 6.57 6.35-.61 5.18-.12 4.2.25 2.98.28 1.54.65 3.11.47 1.57 1.01 3.15.63 1.56 1.34 3.08.78 1.49 1.62 2.93.91 1.37 1.86 2.66 1.01 1.21 2.07 2.3 1.09.99 3 2.53 1.94 1.48.97.63 3.88 2.29 2.07.8 2.1.74 1.11.3 2.27.55 1.23.21 2.5.38 1.37.14 2.8.23 1.53.07 10.5.47 6.19 6.72 2.49 2.81 1.3 1.6.47.69.83 1.31.24.55.35 1.06v.45l-.12.85-.24.37-.6.71-.48.32-1.07.61-.72.29-1.55.58-.96.29-1.92.52-1.08.23-2.24.41-1.21.17-5.02.55-2.61.1-5.21.07-2.41-.16-2.36-.18-1.08-.14-2.08-.32-.91-.21-5.23-1.42-3.38-1.13-1.63-.65-3.22-1.37-1.56-.77-3.06-1.59-1.47-.88-2.9-1.81-1.38-.98-2.72-2.01-1.28-1.08-2.54-2.22-1.19-1.17-2.33-2.4-1.1-1.27-2.13-2.57-.98-1.35-1.92-2.74-.88-1.43-1.7-2.9-.76-1.5-1.47-3.04-.65-1.58-1.23-3.18-.52-1.63-.98-3.31-.4-1.69-.73-3.43-.26-1.75-.46-3.53-.13-1.8.03-7.3.48-5.13.41-2.39.44-2.34.26-1.06.53-2.05.29-.88.6-1.66.31-.63.65-1.14.33-.33 1.36-.91.49-.05m-35.86 326.69-1.57.56-3.04 1.01-4.28 1.32 9.42-3.09Z"/><path fill="#FE1639" d="m597.94 726.66-2.94.27 2.94-.27m8.82-1.16-2.93.41-3.5.44 5.79-.81 3.78-.59m14.38-3-2.91.68-5.82 1.3-2.93.54-2.68.47 7.72-1.53 3.87-.82 7.07-1.8m4.34-1.21-2.89.81-.52.15 6.83-2.05m46.76-21.36-4.63 2.65-4.7 2.62-2.46 1.29-4.98 2.58-2.61 1.27-2.46 1.13 3.27-1.58 2.82-1.39 5.59-2.94 2.78-1.5 5.39-3.09 2.66-1.55 3.13-1.95m-62.18-2.55-2.38.69-4.23 1.16-2.04.55-3.73.91-1.82.42-3.43.69-.76.14 12.4-2.88 6.14-1.73m32.8-13.21-8.03 3.97-4.02 1.88-8.15 3.23-3.6 1.18 4.59-1.61 3.75-1.54 7.42-3.18 3.61-1.77 6.5-3.33m36.18 10.99-.62.43.4-.28 2.29-1.74m3.39-38.79.41.24.47.32.32.23 1.51 1.13 1.02.79 2.21 1.73 1.28 1.03 2.67 2.14 1.41 1.16 10.3 8.43-7.25 6.76-11.78 10.23-1.16.9.45-.36.47-.38.66-.63.28-.31.25-.59.07-.3-.22-.67-.17-.36-.76-.87-.44-.47-1.35-1.2-.75-.65-2-1.64-3.8-3.1-1.51-1.25-2.45-2.01-1.15-.93-1.85-1.42-.88-.64-1.45-.85-.7-.36-1.26-.3-.62-.09-1.25.2-.64.17-1.44.69-.76.41-1.81 1.15-3.37 2.21-2.17 1.41-.54.34 2.53-1.71 6.71-4.68 3.29-2.55 6.54-5.22 3.23-2.82 2.58-2.17 1.59-1.24.67-.48 1.26-.86.45-.25.76-.36m-33.29 24.63-2.09 1.29-1.37.79 4.15-2.51m2.21-37.37-9.56 2.91-4.8 1.19-9.62 2.22-4.82.86-6.21.99 6.24-1 4.82-.86 9.65-2.23 4.82-1.21 9.6-2.91 9.67-3.48m28.9-12.97-2.36 1.22-4.79 2.43-2.47 1.18-9.99 4.61-2.89 1.15 2.69-1.15 1.6-.7 3.47-1.58 3.52-1.62 7.26-3.56 1.76-.88 3.32-1.72.19-.1m-147.1-7.55 6.45 1.8 3.27.73 6.56 1.37 3.31.52 6.65.94 3.35.31 6.72.51 3.39.09 6.77.09 3.41-.12 6.83-.33 3.42-.33 6.85-.76 3.44-.53 5.8-1-1.86.38-6.05.98-3.03.45-6.02.64-3.01.28-5.99.32-2.99.11-5.96-.02-2.97-.05-5.9-.36-2.95-.22-5.86-.69-2.92-.39-5.79-1.03-2.9-.55-5.73-1.36-2.86-.72-5.66-1.7-.69-.22m156.69-25.98 1.53.75.96.55 2.02 1.21 1.11.72 2.28 1.52 1.15.84 3.18 2.38 1.73 1.4.67.63 1.22 1.21.43.56.75 1.09.2.53.29 1.03-.02.52-.13 1.04-.23.55-.54 1.1-.41.61-.93 1.24-.59.69-1.17 1.2-.96.87-.58.47-2.52 1.94-1.57 1.07-3.33 2.2-1.8 1.1.69-.46.6-.45.76-.65.31-.3.22-.5.04-.24-.28-.56-.94-1.14-.12-.13-.45-.41-.25-.22-.68-.56-.74-.59-2.05-1.56-1.09-.82-2.58-1.86-4.15-2.91-10.35-7.11-5.01 2.38 1.39-.74 6.68-3.67 3.31-1.99 3.39-1.95 2.16-1.14.95-.45 1.79-.82.68-.26 1.19-.39h.3m-68.81 29.06-.98.21 1.63-.38m-87.51-2.58-1.66-.52-4.43-1.61m-1.16-.42-8.29-3.43 9.34 3.81m163.39-159.88 2.36.18 2.41.16 4.19-.06-3.76.1-2.49-.14-2.44-.19-1.14-.15-2.21-.34-.08-.02 2.08.32m52.04-47.65.92.75.61.54 1.32 1.19.75.72 1.55 1.5.82.83 2.2 2.33 1.18 1.36.42.55.71.98.14.31.13.47h-.18l-.78.32.03.52.29.41.63 1.3.18.96-.04.54-.15 1.09-.2.61-.49 1.26-.37.69-.83 1.42-.55.78-1.19 1.62-.73.88-1.55 1.81-.92.99-1.92 2.03-1.11 1.11-5.83 5.23-4.03 3-2.12 1.28-4.32 2.41-2.31 1.02-4.73 1.91-2.56.79-.51.13 1.15-.43.72-.29 1.07-.61.48-.32.6-.71.24-.37.12-.85v-.45l-.35-1.06-.24-.55-.83-1.31-.47-.69-1.3-1.6-2.49-2.81-6.19-6.72-10.5-.47-1.53-.07-2.8-.23-1.37-.14-.15-.02.24.01 1.72.05 1.01.01 2.13.02h1.25l3.34-.02 1.9-.03.81-.03 1.55-.08.67-.06 1.29-.13.58-.09 2.16-.45 1.05-.37 2.11-.83 1.29-.61 2.5-1.34 1.76-1.1.9-.64 3.67-2.74 1.76-1.55 3.43-3.2 1.44-1.59 1.38-1.59.59-.76 1.09-1.51.42-.69 1.85-2.78 1.25-1.61.59-.64 1.15-1.15.48-.36.91-.55h.32m-60.62 45.79-.06-.02-.1-.04m-3.73-1.35-.3-.11-.68-.31m6.56-20.26.79.36-1.58-.61-1.32-.78m-3.99-2.56 3.82 2.46-2.39-1.41-.97-.63-1.74-1.33m-26.94 2.43-.52-.7-.31-.49m-10.32-38.33-.03 7.3.13 1.8.46 3.53.26 1.75.73 3.43.4 1.69.98 3.31.52 1.63 1.23 3.18.65 1.58 1.47 3.04.76 1.5 1.7 2.9.45.74-.17-.28-2.11-3.49-.93-1.81-1.75-3.68-.74-1.9-1.39-3.83-.55-1.96-1-3.97-.36-2.02-.6-4.07-.14-2.06-.18-4.15.07-2.1.25-4.2.26-1.88m33.73 37.62 2.24 2.03-1.45-1.22-1.09-.99-.93-1.03m-.7-.78-.44-.49-1.01-1.21-.99-1.41m-7.39-15.68.96 3.11.64 1.62 1.38 3.29.85 1.72 3.5 5.84-.81-1.15-.91-1.37-1.62-2.93-.78-1.49-1.34-3.08-.63-1.56-1.01-3.15-.47-1.57-.1-.49m-1.01-7.79.14 2.96.22 1.49.39 2.12-.29-1.4-.28-1.54-.25-2.98.06-1.95m14.31-54.13.94.79.63.57 1.36 1.26.79.76 1.63 1.59.86.87 1.79 1.83.99 1.05.41.46 1.41 1.65.41.64.64 1.18.09.51.04 1-.13.53-1.35 2.24-1.55 1.35-.95.45-2.35 1.33-1.65 1.13-.84.66-3.4 2.89-1.62 1.67-3.16 3.47-1.33 1.78-1.27 1.78-.54.87-1.01 1.72-.38.82-2.12 4.94-1.1 3.15-.4 1.53-.69 3.03-.19 1.49-.26 2.85.05-1.96.61-5.18-6.57-6.35-1.01-.98-1.69-1.61-.79-.75-1.32-1.21-.62-.55-1.02-.84-.47-.37-.77-.5-.37-.22-.59-.21-.28-.07-.49.05-1.36.91-.33.33-.65 1.14-.19.39.19-.66 1.33-3.7.77-1.76 1.59-3.46.91-1.64 1.87-3.23 1.03-1.52 2.14-3 1.17-1.41 2.41-2.75 1.31-1.29 2.68-2.52 1.44-1.18 2.95-2.28 1.57-1.05 2.9-1.91 1.76-1.11.73-.45 1.34-.8.45-.25.76-.39h.09Z"/><path fill="#FD2358" d="m599.53 726.51-1.59.15 4.28-.55m10.96-1.71-3.03.51 2.47-.44 1.41-.26m12.76-2.91-.71.17 1.56-.43m12.62-3.8-.93.29 1.37-.45m38.11-17.3-4.12 2.26-8.32 4.4-4.27 2-8.61 3.84-3.14 1.22 5.16-2.17 8.23-3.79 2.61-1.27 4.98-2.58 2.46-1.29 4.7-2.62 4.15-2.37m-78.09-.36-3.51.51-1.83.23-4.25.31-1.13.07-2.49.11-1.28.05-2.85.07-1.48.03-3.27.04h-1.52l1.61-.06 5.19-.21 2.49-.13 4.89-.28 2.18-.16 2.13-.16.97-.09 1.88-.17.82-.09 1.58-.18.65-.09.86-.13m-79.72-6.16 4.22 1.35 2.18.63 8.87 2.47 4.36 1 4.34.96 2.07.4 1.55.28-1.8-.26-6.1-1.21-1.45-.32-3.1-.78-1.58-.4-3.26-.91-3.29-.94-6.62-2.13-1.53-.51m161.44 4.66-2.86 1.77 4.74-3.08m-57.9-3.32-3.91 1.31-8.09 2.27-9.63 2.24 15-3.77 9.66-3.11m30.11-13.83-3.48 2.02-7.15 3.67-3.61 1.77-7.42 3.18-3.75 1.54-2.52.88 4.44-1.76 10.43-4.43 5-2.55 8.43-4.54M513.9 685.84l-3.15-1.47 3.75 1.72m186.27-1.11-.88.66 1.46-1.13m14.26-12.1-2.43 2.18-4.89 4.3-2.5 2.05-.46.38 10.42-9.06.37-.34m-41.94-3.04-3.37 2.28-2.1 1.26 1.71-1.08 5.44-3.63m85.24-121.42 1.5.51.84.45 1.75 1.04 1.02.71 2.14 1.54 1.27.96 2.93 2.3 1.8 1.52.77.69 1.43 1.34.51.53.87.98.16.3.55 1.79.16 1.53-.02.92-.1 1.94-.14 1.11-.35 2.3-.26 1.28-.58 2.62-.37 1.42-.8 2.9-.47 1.55-.99 3.13-.56 1.65-1.18 3.33-.65 1.72-2.76 7.03-1.59 3.64-3.31 7.32-1.81 3.66-3.73 7.27-1.98 3.5-4.01 6.88-2.08 3.18-5.3 7.71-3.78 5.09-2 2.52-4.06 5.01-2.13 2.45-4.32 4.88-2.24 2.39-4.35 4.52-10.18-8.33-1.41-1.16-2.67-2.14-1.28-1.03-2.21-1.73-1.02-.79-1.51-1.13-.32-.23-.47-.32-.41-.24-.14-.05-.76.36-.45.25-1.26.86-.67.48-1.59 1.24-2.47 2.07 2.97-2.77 8.16-7.98 3.87-4.32 7.58-8.86 3.58-4.76 4.9-6.76 1.5-2.17.69-1.02 1.34-2.01.59-.91 1.11-1.76.47-.77.85-1.44.3-.57.54-1.04.13-.34.16-.56-.07-.08-.27.03-.35.13-.25.12-1.21.59-.85.47-1.83 1.04-1.09.65-2.26 1.38-1.23.77-.39.23 2.41-1.6 1.57-1.07 2.52-1.94.58-.47.96-.87 1.17-1.2.59-.69.93-1.24.41-.61.54-1.1.23-.55.13-1.04.02-.52-.29-1.03-.2-.53-.75-1.09-.43-.56-1.22-1.21-.67-.63-1.73-1.4-3.18-2.38-1.15-.84-2.28-1.52-1.11-.72-2.02-1.21-.96-.55-1.53-.75-1.49-.48h-.3l-1.19.39-.68.26-1.79.82-.95.45-2.16 1.14-3.39 1.95-3.31 1.99-6.68 3.67-3.35 1.79-6.74 3.26-3.38 1.58-6.8 2.84-3.4 1.38-5.12 1.82 4.14-1.59 9.34-3.79 4.64-2.18 9.23-4.54 4.54-2.54 9.01-5.24 4.39-2.86 8.69-5.88 4.18-3.15 8.26-6.46 3.92-3.42 7.71-6.96 3.62-3.66 3.35-3.32 1.9-1.76.83-.66 1.59-1.16.72-.37 1.42-.58.69-.09 1.39-.03m-69.65 110.33-4.53 3.61 5.52-4.48m-82.54-10.14-2.74-.02 5.96-.09m-13.3-.07-1.41-.03-3.78-.27-.55-.05m50.76-2.92-3.88.65-7.78 1.18-3.89.42-7.78.74-1.46.07 8.34-.73 4.79-.51 9.62-1.53 4.06-.72m-60.82 2.59 1.96.24-.88-.08-3.69-.49-2.48-.38m-4.86-.73-3.58-.73 3.58.73m76.47-2.36-3.53.75 5.94-1.37m14.38-3.89-4.08 1.18 5.36-1.62m14.48-5.13-5.23 1.91-4.91 1.71 10.54-3.8m14.89-6.43-5.06 2.25-.34.15 5.67-2.62 2.42-1.15m7.07-3.61-.65.33.73-.38m-89.03-2.38-1.67.08 4.55-.36m10.83-1.34-3.44.53-2.59.29 1.67-.22 7.12-1.08m17.85-4-3.43.95-6.87 1.6-3.44.75-1.44.24 3.39-.68 13.71-3.43m-96.08-.16-.09-.03-.23-.08m104.77-2.34-3.42 1.16-4.39 1.29 8.59-2.73m-111.66.48-9.37-3.82 10.4 4.18m190.65-163.27-2.39.74 2.39-.74m24.85-16.08-1.79 1.72-3.69 3.35-1.37 1.05 5.51-4.94 1.11-1.11 1.92-2.03.7-.75m-65.96-3.63 3.37 1.64 1.79.66 1.97.68.99.24.09.02h-.04l-1.14-.19-2.01-.65-3.38-1.52-2.17-1.06-.88-.57m38.99.39-2.5 1.34-1.29.61-2.11.83-1.05.37-2.16.45h-.03l.54-.11 2.17-.58 1.13-.44 2.33-1.01 1.44-.71 3.11-1.74m27.7 3.95-.28.32.52-.61m-73.32-6.29 1.5 1.07 1.63 1.08-1.37-.88-1.9-1.34-1.74-1.58m26.9-93.38 4.41.11 2.73.16 1.29.12 4.92.63 2.28.54 4.48 1.23 2.24.89 4.52 1.95 2.45 1.28 4.89 2.92 3.17 2.23 1.51 1.24 2.99 2.56 1.42 1.39 2.78 2.86 1.29 1.52 2.53 3.1 1.16 1.62 2.24 3.3.99 1.71 1.92 3.45.82 1.77 1.55 3.56.62 1.81 1.21 3.97.54 2.53.16 1.44.15 1.49.05.84.09 1.73.03 1 .05 2.08.01 1.2.01 2.51V385l-.03 3.93-.04 2.28-.04.99-.07 1.89-.06.83-.13 1.6-.08.72-.4 2.68-.31 1.24-.7 2.46-.49 1.38-2.93 6.91-2.36 4.41-1.36 2.09-.61.87.34-.58.37-.69.49-1.26.2-.61.15-1.09.04-.54-.18-.96-.63-1.3-.29-.41-.03-.52.78-.32h.18l-.13-.47-.14-.31-.71-.98-.42-.55-1.18-1.36-2.2-2.33-.82-.83-1.55-1.5-.75-.72-1.32-1.19-.61-.54-.92-.75-.79-.47h-.32l-.91.55-.48.36-1.15 1.15-.59.64-1.25 1.61-1.85 2.78-.42.69-1.09 1.51-.59.76-1.38 1.59-1.44 1.59-.4.37.11-.11 1.77-2.01.81-1.05 1.55-2.11.67-1.08 1.28-2.16.53-1.09.97-2.17.36-1.08 1.87-6.58.75-3.92.12-1.87.1-3.72-.19-1.92-.52-3.92-.49-2.18-1.31-4.74-1.1-2.97-.66-1.4-1.41-2.75-.81-1.29-1.71-2.51-.97-1.18-2.03-2.3-1.13-1.07-2.35-2.09-1.3-.97-2.67-1.89-1.47-.87-3.01-1.69-1.63-.78-3.25-1.38-1.98-.61-1.11-.18-2.38-.29-1.55-.06-1.63-.05-.95-.01-1.99-.02H726l-4.63.12-2.8.19-1.27.16-2.47.37-1.14.26-2.23.59-1.05.38-2.07.82-1.01.51-1.99 1.09-.99.65-1.99 1.39-1.02.82-2.07 1.71-1.1.99-2.91 3 1.52-1.67 1.62-1.67 3.4-2.89.84-.66 1.65-1.13 2.35-1.33.95-.45 1.55-1.35 1.35-2.24.13-.53-.04-1-.09-.51-.64-1.18-.41-.64-1.41-1.65-.41-.46-.99-1.05-1.79-1.83-.86-.87-1.63-1.59-.79-.76-1.36-1.26-.63-.57-.94-.79-.68-.45.1-.05 6.64-2.97 4.25-1.45 2.18-.48 4.43-.82 2.44-.21 2.49-.17 1.32-.05 2.71-.05m-27.87 91.12-.81-.8-.96-1.22m-8.95-17.2-.24-.77-.43-1.55-.17-.89m6.35-29.05-1.83 2.93-.59 1.15.08-.17.38-.82 1.01-1.72.54-.87 1.04-1.45M666.91 364l.12-.41.45-1.17m25.27-1.87.87-1.17.61-.67m-25.47.53-.53 1.2.46-1.19.97-2.04.39-.77m1.21-2.3-.47.84.91-1.77 1.16-1.87.14-.21m1.16-1.74-.3.44 1.43-2.16.95-1.19m.24-.3.18-.22.45-.54m4.08-4.48-1.31 1.29-2.21 2.53 1.82-2.15 1.57-1.56 2.23-2.09m2.02-1.72-1.42 1.16.42-.39 1.78-1.41 1.66-1.24m4.98-3.36-2.9 1.91-1.41.94 1.33-1 2-1.26 1.21-.73Z"/><path fill="#FEFEFE" d="M0 512V0h1024v1024H0V512m595 214.93 4.53-.42 9.1-1.35 4.55-.76 9.08-2.02 4.53-1.08 8.99-2.65 4.48-1.41 8.84-3.26 4.39-1.7 8.61-3.84 4.27-2 8.32-4.4 4.12-2.26 7.96-4.93 11.46-7.96 2.54-1.91 5.02-4.04 2.5-2.05 4.89-4.3 2.43-2.18 4.73-4.52 2.34-2.29 4.55-4.72 2.24-2.39 4.32-4.88 2.13-2.45 4.06-5.01 2-2.52 3.78-5.09 5.3-7.71 2.08-3.18 4.01-6.88 1.98-3.5 3.73-7.27 1.81-3.66 3.31-7.32 1.59-3.64 2.76-7.03.65-1.72 1.18-3.33.56-1.65.99-3.13.47-1.55.8-2.9.37-1.42.58-2.62.26-1.28.35-2.3.14-1.11.1-1.94.02-.92-.16-1.53-.55-1.79-.16-.3-.87-.98-.51-.53-1.43-1.34-.77-.69-1.8-1.52-2.93-2.3-1.27-.96-2.14-1.54-1.02-.71-1.75-1.04-.84-.45-1.5-.51-.73-.19-1.39.03-.69.09-1.42.58-.72.37-1.59 1.16-.83.66-1.9 1.76-3.35 3.32-3.62 3.66-7.71 6.96-3.92 3.42-8.26 6.46-4.18 3.15-8.69 5.88-4.39 2.86-9.01 5.24-4.54 2.54-9.23 4.54-4.64 2.18-9.34 3.79-4.68 1.79-9.35 2.97-13.91 3.48-4.45.9-8.73 1.32-4.33.57-8.52.67-4.24.26-8.33.01-4.15-.07-8.16-.63-4.06-.4-8.02-1.29-3.99-.73-7.89-1.95-3.94-1.06-7.78-2.6-11.58-4.66-8.46-3.78-1.27-13.47-.27-2.84-.68-5.36-.36-2.62-.87-4.97-.46-2.44-1.07-4.6-.57-2.26-1.29-4.28-.68-2.11-1.52-3.99-.79-1.96-1.76-3.73-.91-1.84-2.01-3.5-3.31-5.05-.67-.94-1.61-2.04-.84-1.04-1.9-2.18-1.95-2.21-4.46-4.55-2.27-2.24-4.64-4.18-1.15-.99-2.22-1.81-3.15-2.4-1.88-1.34-4.43-2.64-2.33-1.32-5.29-2.58-2.75-1.29-6.12-2.52-3.16-1.25-6.89-2.43-3.55-1.2-7.63-2.33-3.91-1.16-8.34-2.21-4.25-1.1-8.99-2.09-14.18-2.98-5.51-1.08-11.22-2.41-2.78-.62-5.4-1.24-2.66-.62-5.07-1.23-2.48-.6-4.57-1.18-2.22-.58-3.93-1.08-1.87-.53-3.14-.96-3.63-1.24-1.67-.65-3.2-1.46-1.57-.75-2.98-1.64-1.46-.85-2.74-1.82-1.34-.93-2.5-1.99-1.21-1.01-2.24-2.14-1.08-1.09-1.95-2.28-.94-1.16-1.66-2.41-2.14-3.74-.52-1.05-.72-1.85-.32-.94-.39-2.18-.08-.6-.12-1.38-.05-.73-.07-1.7-.03-.91-.02-2.12-.02-3.76v-1.49l.01-2.5.01-1.17.04-1.95.03-.91.1-1.52.05-.72.17-1.22.19-1.16.69-1.91 1.63-3.22 1.04-1.88 2.55-3.46 1.35-1.67 3.17-3.06 1.66-1.48 3.82-2.67 1.98-1.28 4.47-2.28 2.31-1.09 5.13-1.9 2.64-.9 5.8-1.52 2.99-.72 6.48-1.15 10.52-1.32 2.42-.23 4.99-.24 2.52-.08 5.13.05 2.59.06 5.23.34 2.62.2 5.28.61 2.64.34 5.27.89 2.63.47 5.2 1.15 2.59.6 5.1 1.4 7.46 2.39 1.61.57 2.84 1.02 1.37.51 2.5.96 2.45.97 4.64 2.14 1.2.58 2.56 1.31 1.32.7 2.95 1.61 1.54.85 3.52 1.99 6.11 3.51 2.27 1.31 4.38 2.45 2.12 1.17 3.75 1.99.88.46 1.56.79.75.38 1.27.6.58.28.91.39.91.31.97.19 2.14-.09 1.08-.13 2.22-.66 1.1-.4 2.07-1.15 2.69-2.18.18-.19.58-.77.32-.44.84-1.24.45-.67 1.06-1.63.55-.87 1.25-1.98.64-1.03 1.39-2.26.71-1.16 1.5-2.48 4.7-7.96.67-1.16 1.23-2.12.59-1.04 1.09-1.88 1.05-1.83 1.7-3.04.8-1.42 1.25-2.34.57-1.09.86-1.8.39-.84.54-1.4.24-.67.29-1.17.3-3.38v-1.06l-.12-1.68-.08-.78-.34-1.32-.2-.63-.64-1.17-1.37-1.85-.42-.5-1.17-1.13-.63-.58-1.57-1.27-.83-.65-1.92-1.4-1.01-.71-2.24-1.5-1.15-.76-2.52-1.58-1.29-.8-2.75-1.63-2.8-1.65-6.13-3.37-3.12-1.69-6.54-3.32-3.28-1.63-6.61-3.09-3.29-1.49-6.35-2.68-8.89-3.35-4.07-1.4-8-2.44-3.98-1.16-7.86-1.98-3.92-.94-7.79-1.53-3.89-.71-7.77-1.09-3.9-.49-7.83-.66-3.92-.27-7.95-.24-3.99-.06-8.12.19-12.45.74-4.44.37-8.58 1.08-4.24.6-8.15 1.53-4.02.82-7.72 1.97-3.81 1.05-7.28 2.41-3.58 1.26-6.82 2.85-3.36 1.47-6.37 3.27-3.12 1.69-5.9 3.68-2.89 1.9-5.41 4.09-2.65 2.1-4.94 4.5-2.4 2.3-4.44 4.89-2.15 2.5-3.94 5.28-1.9 2.69-3.42 5.66-1.64 2.88-2.9 6.04-1.38 3.07-2.37 6.41-1.12 3.25-1.83 6.77-2.12 10.55-.13.8-.23 1.84-.1.95-.19 2.11-.17 2.17-.23 4.97-.1 2.56-.08 5.51-.02 2.78.06 5.69.05 2.84.19 5.53.12 2.71.33 5.03.18 2.42.46 4.18.12.98.27 1.73.43 2.23.69 2.98 1.66 5.69.87 2.8 2.05 5.34 1.07 2.63 2.45 5.01 1.27 2.47 2.86 4.7 1.48 2.32 3.29 4.4 1.69 2.17 3.71 4.14 1.92 2.03 4.16 3.88 6.75 5.54 2.65 2.01 5.66 3.59 2.91 1.74 6.35 3.15 1.64.76 3.46 1.47 1.76.72 3.72 1.39 1.89.69 4.01 1.33 6.38 1.96 2.14.62 3.94 1.1 1.93.54 3.69.97 1.85.48 3.7.89 1.87.44 3.96.86 2.03.44 4.45.88 2.31.45 5.19.96 1.36.25 2.89.52 1.48.26 3.17.55 1.61.29 3.47.59 5.57.96 2.84.48 5.27.91 2.56.45 4.74.86 2.31.42 4.25.8 2.06.4 3.8.77 1.85.38 3.39.75 1.65.38 3.02.74 1.46.37 2.69.75 1.31.37 2.39.76 2.33.77 3.94 1.65 1.87.85 3.28 1.88 1.58.98 2.93 2.22 4.32 3.83 1.11 1.06 1.97 2.28.94 1.16 1.62 2.49.77 1.26 1.27 2.68.59 1.36.92 2.85.42 1.44.56 3.01.24 1.53.2 3.16.05 1.6-.16 3.29-.66 5.08-.24 1.36-.69 2.64-.37 1.3-.92 2.52-.5 1.24-1.16 2.38-.62 1.18-1.4 2.26-.74 1.12-1.64 2.13-.85 1.05-1.87 2-1.94 1.96-4.55 3.52-2.38 1.7-5.44 2.96-2.83 1.41-6.3 2.39-3.25 1.12-7.14 1.8-11.61 2-1.76.22-4.15.32-2.16.13-4.81.15-2.46.05h-5.22l-2.64-.02-5.42-.16-2.7-.09-5.37-.3-2.66-.16-5.09-.43-2.49-.22-4.59-.55-6.05-.95-2.96-.57-5.59-1.26-2.75-.66-5.32-1.52-2.64-.8-5.25-1.86-2.63-.98-5.38-2.3-2.72-1.21-5.71-2.81-2.92-1.48-6.23-3.43-1.6-.89-3.34-1.93-1.69-.99-3.53-2.1-1.8-1.08-3.76-2.3-5.92-3.69-1.06-.66-1.97-1.14-.96-.54-1.8-.89-.88-.41-1.65-.64-.8-.29-1.5-.41-1.47-.34-2.59.03-3.49 1.07-.14.08-.58.64-.34.4-.95 1.24-.51.68-1.25 1.73-.65.93-1.5 2.15-.77 1.12-1.69 2.49-.86 1.28-1.83 2.74-1.85 2.78-3.89 5.96-1.94 3-3.74 5.87-.9 1.43-1.71 2.73-.83 1.34-1.52 2.47-.73 1.2-1.28 2.14-.61 1.02-.98 1.72-.45.8-.63 1.22-.49 1.16-.29 1.16.13 2.22.09.55.4 1.11.23.56.67 1.14.37.58.97 1.2.52.6 1.27 1.27.68.65 1.6 1.38 2.79 2.2 2.1 1.59 4.07 2.97 2.02 1.45 3.96 2.71 3.94 2.65 7.83 4.71 3.94 2.28 8.24 4.19 2.11 1.03 4.38 2.01 6.9 3 3.76 1.57 7.75 2.86 3.92 1.38 8.03 2.47 4.04 1.18 8.25 2.08 4.15.99 8.41 1.69 4.23.8 8.53 1.3 4.27.6 8.59.91 4.3.41 8.6.52 4.29.21 8.56.13 4.26.02 8.46-.26 4.21-.18 8.3-.65 4.13-.38 8.1-1.04 4.02-.57 7.84-1.43 3.88-.76 7.53-1.83 3.72-.96 7.17-2.21 3.53-1.16 6.75-2.6 9.6-4.35 8.06-4.06 13.44 6.72 3.98 2 8.06 3.53 4.04 1.7 8.17 2.94 4.09 1.39 8.28 2.34 4.16 1.09 8.39 1.74 4.21.8 8.49 1.13 4.26.5 8.61.53 4.31.2 8.71-.07 4.36-.1m21.43-180.51.56-.26 1.26-.77.64-.41 1.29-.99.63-.52 1.17-1.09 1.45-1.61 2.88-3.78V481.57l-.01-4.45v-2.15l-.01-3.88v-1.87l-.02-3.34-.01-1.61-.02-2.85-.02-1.36-.03-2.41-.02-1.15-.05-1.99-.02-.96-.07-1.63-.03-.78-.08-1.32-.04-.63-.1-1.05-.1-.99-.26-1.35-.14-.6-.36-.83-.67-1.05-.66-.9-2.07-1.77-1.12-.86-2.64-1.49-1.35-.69-2.75-.98-3.75-.63h-1.28l-2.75.62-1.38.41-2.68 1.29-1.3.71-2.29 1.78-2.63 3.01-.29.46-.46.84-.22.44-.36 1.07-.16.6-.25 1.66-.06.47-.1 1.1-.05.59-.09 1.37-.04.73-.07 1.68-.03.89-.06 2.04-.03 1.08-.04 2.44-.03 1.28-.04 2.89-.02 1.51-.03 3.38-.02 1.76-.03 3.92-.02 2.03-.03 4.5-.05 7.45-.02 2.94-.04 5.37-.01 2.59-.02 4.71-.01 2.27V513.95l.03 3.54.01 1.7.06 3.03.03 1.45.09 2.57.05 1.23.14 2.15.07 1.04.18 1.79.1.86.24 1.49.12.71.3 1.23.31 1.18.82 1.79.45.83 1.14 1.41 2.1 2.11 1.32 1.24 2.69 1.74 1.37.75 2.81.74 1.43.25 2.97-.23 1.51-.25M743.5 444.98l2.39-.74 4.6-1.89 2.28-1.02 4.34-2.42 2.14-1.27 4.04-2.9 1.97-1.51 3.69-3.35 1.79-1.72 3.29-3.74 1.59-1.92 2.85-4.09 1.36-2.09 2.36-4.41 2.93-6.91.49-1.38.7-2.46.31-1.24.4-2.68.08-.72.13-1.6.06-.83.07-1.89.04-.99.04-2.28.03-3.93v-1.45l-.01-2.51-.01-1.2-.05-2.08-.03-1-.09-1.73-.05-.84-.15-1.49-.16-1.44-.54-2.53-1.21-3.97-.62-1.81-1.55-3.56-.82-1.77-1.92-3.45-.99-1.71-2.24-3.3-1.16-1.62-2.53-3.1-1.29-1.52-2.78-2.86-1.42-1.39-2.99-2.56-1.51-1.24-3.17-2.23-4.89-2.92-2.45-1.28-4.52-1.95-2.24-.89-4.48-1.23-2.28-.54-4.92-.63-1.29-.12-2.73-.16-4.41-.11-1.46-.01-2.71.05-1.32.05-2.49.17-2.44.21-4.43.82-2.18.48-4.25 1.45-6.64 2.97-2.21 1.13-4.09 2.46-2 1.26-3.66 2.75-1.78 1.41-3.25 3.04-1.57 1.56-2.83 3.35-1.37 1.71-2.43 3.67-1.16 1.87-2.04 4-.97 2.04-1.66 4.34-2.06 6.91-.52 2.12-.7 4.23-.3 2.12-.25 4.2-.07 2.1.18 4.15.14 2.06.6 4.07.36 2.02 1 3.97.55 1.96 1.39 3.83.74 1.9 1.75 3.68.93 1.81 2.11 3.49 1.09 1.72 2.45 3.29 1.26 1.61 2.77 3.06 1.42 1.49 3.08 2.79 1.57 1.36 3.36 2.51 1.71 1.22 3.63 2.2 1.85 1.06 3.89 1.86 1.97.89 4.13 1.5 6.44 1.82.99.23 2.21.34 1.14.15 2.44.19 2.49.14 5.37-.14 2.69-.15 5.34-.71 2.61-.42M558.5 698.39l-1.9-.28-4.09-.74-2.07-.4-4.34-.96-4.36-1-8.87-2.46-2.18-.64-4.22-1.35-2.07-.68-3.89-1.38-1.89-.7-3.42-1.39-4.45-2.04-.61-.3-.99-.51-.46-.24-.72-.4-.65-.39-.59-.6-.19-.29.19-.66.97-1.36 1.76-2.24 3.07-4.05 1.47-1.98 2.58-3.67 1.23-1.81 2.17-3.49 1.05-1.74 1.87-3.48.9-1.77 1.67-3.68.81-1.89 1.57-4.07.77-2.1 1.56-4.66 2.43-7.84.13-.44.62-.37 1.4.22.84.37 2.34.9 1.26.47 2.99 1.05 1.56.53 3.44 1.13 1.76.57 3.66 1.14 1.83.56 3.66 1.09 1.81.53 3.44.96 1.67.46 3 .77 3.76.87 3.58.73 7.34 1.11 3.69.49 7.51.65 3.78.27 7.65.18 3.84.03 7.74-.27 3.87-.19 7.78-.74 3.89-.42 7.78-1.18 3.88-.65 7.72-1.64 11.47-2.97 5.32-1.54 10.53-3.66 5.23-1.91 10.23-4.36 5.06-2.25 9.76-4.98 13.96-8.09 1.23-.77 2.26-1.38 1.09-.65 1.83-1.04.85-.47 1.21-.59.25-.12.35-.13.27-.03.07.08-.16.56-.13.34-.54 1.04-.3.57-.85 1.44-.47.77-1.11 1.76-.59.91-1.34 2.01-.69 1.02-1.5 2.17-4.9 6.76-3.58 4.76-7.58 8.86-3.87 4.32-8.16 7.98-4.15 3.87-8.73 7.1-4.44 3.43-9.29 6.2-4.72 3-9.87 5.31-5 2.55-10.43 4.43-5.29 2.1-10.99 3.54-17.12 4.3-.45.09-1.22.19-.65.09-1.58.18-.82.09-1.88.17-.97.09-2.13.16-2.18.16-4.89.28-2.49.13-5.19.21-2.6.1-5.06.13-2.48.06-4.52.03h-1.07l-1.97-.02-.95-.01-1.68-.05-.8-.03-1.35-.08-.62-.04m152.88-274.38-1.79-.66-3.37-1.64-1.65-.87-3.07-2.04-1.5-1.07-2.76-2.42-1.33-1.25-2.43-2.77-1.17-1.43-2.07-3.1-.99-1.59-1.71-3.41-.8-1.74-1.32-3.7-1.53-5.85-.3-1.5-.23-3.1-.06-1.56.22-3.2.17-1.6.66-3.23.39-1.61 1.07-3.2.59-1.59 1.47-3.09.78-1.53 1.83-2.93.96-1.44 2.17-2.7 3.61-3.72 1.1-.99 2.07-1.71 1.02-.82 1.99-1.39.99-.65 1.99-1.09 1.01-.51 2.07-.82 1.05-.38 2.23-.59 1.14-.26 2.47-.37 1.27-.16 2.8-.19 4.63-.12h1.16l1.99.02.95.01 1.63.05 1.55.06 2.38.29 1.11.18 1.98.61 3.25 1.38 1.63.78 3.01 1.69 1.47.87 2.67 1.89 1.3.97 2.35 2.09 1.13 1.07 2.03 2.3.97 1.18 1.71 2.51.81 1.29 1.41 2.75.66 1.4 1.1 2.97 1.31 4.74.49 2.18.52 3.92.19 1.92-.1 3.72-.12 1.87-.75 3.92-1.87 6.58-.36 1.08-.97 2.17-.53 1.09-1.28 2.16-.67 1.08-1.55 2.11-.81 1.05-1.77 2.01-1.83 1.99-4.18 3.5-1.08.83-2.23 1.48-3.44 1.92-1.44.71-2.33 1.01-1.13.44-2.17.58-1.13.24-2.67.29-.73.06-1.66.09-2.88.11-1.88.06h-3.03l-1.42-.02-2.34-.2-1.12-.12-2-.42-.99-.24Z"/></svg>