<svg xmlns="http://www.w3.org/2000/svg" baseProfile="tiny-ps" version="1.2" width="295" height="295" viewBox="0 0 295 295">
  <title>Silvan's Virtual Solutions</title>
<g>
<path d="M 99.63,91.58 L 100.06,92.05 L 100.51,92.58 L 100.75,92.96 L 101.27,93.78 L 101.57,94.31 L 102.19,95.47 L 102.56,96.19 L 103.35,97.73 L 103.81,98.66 L 105.66,102.38 L 106.65,104.44 L 107.03,105.28 L 107.72,106.83 L 107.96,107.45 L 108.37,108.58 L 108.47,109.00 L 108.61,109.76 L 108.59,110.03 L 108.48,110.50 L 108.34,110.64 L 107.99,110.88 L 107.74,110.94 L 107.17,111.02 L 106.82,111.02 L 103.69,111.62 L 101.28,112.50 L 100.11,113.09 L 97.83,114.32 L 96.95,114.97 L 96.11,115.62 L 95.80,115.94 L 95.23,116.56 L 95.08,116.85 L 94.66,117.98 L 94.42,118.99 L 94.32,119.58 L 94.00,122.08 L 94.00,123.30 L 94.23,126.14 L 94.63,127.82 L 94.99,128.57 L 95.80,130.01 L 96.39,130.66 L 97.69,131.90 L 98.54,132.47 L 100.39,133.57 L 101.55,134.08 L 104.03,135.08 L 105.53,135.57 L 108.71,136.52 L 110.59,137.00 L 114.55,137.96 L 116.84,138.45 L 119.77,139.10 L 121.39,139.47 L 122.05,139.64 L 123.27,139.98 L 123.76,140.13 L 124.65,140.45 L 125.00,140.61 L 126.13,141.27 L 126.43,141.68 L 126.91,142.59 L 127.08,143.21 L 127.46,144.23 L 127.91,145.28 L 128.23,145.96 L 128.91,147.44 L 129.33,148.31 L 130.21,150.14 L 130.71,151.16 L 132.87,155.53 L 134.11,157.98 L 136.66,163.01 L 137.98,165.58 L 140.64,170.71 L 141.92,173.13 L 144.40,177.82 L 145.47,179.81 L 146.51,181.72 L 146.98,182.56 L 147.86,184.13 L 148.22,184.77 L 148.91,185.95 L 149.17,186.36 L 149.62,187.05 L 149.75,187.20 L 150.46,188.22 L 150.66,188.84 L 150.61,189.21 L 150.41,189.98 L 150.15,190.50 L 149.53,191.65 L 149.04,192.43 L 147.68,195.22 L 147.44,195.99 L 147.41,196.29 L 147.39,196.82 L 147.47,196.96 L 148.17,197.55 L 148.98,197.98 L 149.52,198.20 L 150.69,198.66 L 151.39,198.88 L 152.85,199.34 L 153.67,199.56 L 157.13,200.43 L 159.00,200.79 L 162.78,201.43 L 164.58,201.62 L 169.19,202.54 L 171.70,203.52 L 172.61,204.13 L 173.46,204.77 L 173.78,205.11 L 174.36,205.81 L 174.54,206.17 L 174.82,206.91 L 174.85,207.29 L 174.81,208.06 L 174.66,208.45 L 174.35,209.00 L 174.03,209.20 L 173.28,209.55 L 172.68,209.67 L 171.32,209.85 L 170.35,209.89 L 168.21,209.95 L 166.78,209.93 L 160.67,209.55 L 156.70,208.98 L 154.77,208.53 L 150.93,207.52 L 149.06,206.86 L 145.37,205.42 L 143.58,204.55 L 141.96,203.76 L 141.07,203.35 L 140.70,203.20 L 139.37,202.72 L 138.83,202.68 L 137.79,202.74 L 137.21,202.95 L 135.96,203.49 L 135.08,203.93 L 131.02,205.56 L 127.88,206.47 L 126.14,206.85 L 122.55,207.53 L 120.64,207.78 L 116.77,208.23 L 114.77,208.35 L 110.75,208.54 L 108.74,208.54 L 104.74,208.47 L 102.79,208.34 L 98.94,208.00 L 97.13,207.72 L 93.60,207.10 L 92.00,206.68 L 85.38,204.51 L 80.76,202.61 L 78.54,201.52 L 74.20,199.28 L 72.33,198.13 L 70.51,196.97 L 69.71,196.41 L 68.18,195.28 L 67.56,194.74 L 63.63,191.34 L 68.49,183.67 L 70.71,180.35 L 72.02,178.59 L 72.59,177.94 L 73.65,176.81 L 74.09,176.49 L 74.89,176.00 L 75.20,176.00 L 76.53,176.36 L 77.91,176.92 L 78.78,177.32 L 80.63,178.22 L 81.65,178.76 L 83.74,179.89 L 84.81,180.51 L 92.56,184.22 L 97.84,186.02 L 100.47,186.59 L 105.69,187.52 L 108.20,187.66 L 113.13,187.73 L 115.42,187.46 L 117.67,187.14 L 118.73,186.90 L 120.83,186.38 L 121.80,186.04 L 123.71,185.32 L 124.58,184.88 L 126.27,183.96 L 127.02,183.43 L 128.47,182.32 L 129.09,181.69 L 130.27,180.39 L 130.74,179.67 L 131.62,178.19 L 131.94,177.38 L 132.50,175.71 L 132.64,174.81 L 132.63,171.48 L 132.10,169.29 L 131.61,168.29 L 130.48,166.36 L 129.73,165.55 L 128.12,164.08 L 127.16,163.58 L 125.41,162.89 L 123.72,162.36 L 122.70,162.09 L 118.25,160.97 L 115.93,160.52 L 106.33,158.56 L 103.36,157.90 L 101.97,157.58 L 99.26,156.93 L 98.01,156.61 L 95.60,155.99 L 94.53,155.69 L 92.47,155.10 L 91.58,154.83 L 89.92,154.29 L 89.26,154.04 L 88.04,153.56 L 87.62,153.35 L 83.18,150.40 L 80.26,147.82 L 78.96,146.36 L 76.47,143.37 L 75.53,141.87 L 74.64,140.38 L 74.29,139.66 L 73.66,138.24 L 73.47,137.57 L 72.84,134.91 L 72.52,132.91 L 72.40,131.83 L 72.05,127.30 L 72.06,124.94 L 72.19,120.22 L 72.43,118.04 L 72.71,115.90 L 72.89,114.93 L 73.28,113.05 L 73.52,112.24 L 74.88,108.79 L 76.10,106.54 L 76.84,105.46 L 78.42,103.32 L 79.33,102.31 L 81.22,100.33 L 82.27,99.41 L 84.44,97.62 L 85.60,96.81 L 87.99,95.26 L 89.25,94.58 L 91.81,93.31 L 93.13,92.79 L 95.82,91.83 L 97.19,91.49 L 98.78,91.29 M 155.76,173.50 L 156.34,173.63 L 158.94,174.33 L 160.43,174.89 L 162.95,175.73 L 164.84,176.28 L 165.81,176.52 L 167.76,176.99 L 168.67,177.18 L 170.43,177.52 L 171.17,177.61 L 175.30,178.67 L 177.97,179.81 L 179.11,180.50 L 181.23,181.93 L 181.91,182.66 L 182.53,183.39 L 182.71,183.74 L 183.00,184.43 L 183.00,184.75 L 182.76,185.27 L 182.32,185.46 L 181.24,185.80 L 180.46,185.91 L 178.73,186.08 L 177.69,186.10 L 175.49,186.10 L 174.28,186.04 L 169.20,185.66 L 166.66,185.26 L 164.15,184.82 L 162.98,184.55 L 160.73,183.98 L 159.76,183.65 L 157.10,182.71 L 155.49,182.11 L 154.82,181.85 L 153.60,181.35 L 153.18,181.17 L 152.50,180.83 L 152.42,180.75 L 152.20,180.23 L 152.15,179.70 L 152.17,179.36 L 152.32,177.88 L 152.51,177.06 L 152.94,175.43 L 153.22,174.78 L 153.80,173.63 L 154.09,173.44 L 154.88,173.38 M 170.57,151.95 L 171.35,153.93 L 171.55,154.73 L 171.84,156.20 L 171.81,156.68 L 171.63,157.45 L 171.37,157.49 L 171.08,157.48 L 170.89,157.38 L 170.49,157.10 L 170.25,156.86 L 169.77,156.09 L 169.49,155.36 L 169.38,154.93 L 169.03,153.03 L 169.04,152.05 L 169.08,148.50 Z" fill="rgb(188,9,9)"/>
<path d="M 197.94,192.53 L 198.88,193.00 L 199.48,193.39 L 201.26,194.96 L 201.67,195.51 L 201.80,195.76 L 202.00,196.23 L 202.00,196.42 L 201.60,197.33 L 200.95,198.07 L 200.47,198.49 L 199.39,199.36 L 198.72,199.82 L 197.29,200.77 L 196.47,201.26 L 192.94,203.25 L 190.93,204.19 L 186.82,206.01 L 184.76,206.73 L 181.34,207.84 L 179.61,208.26 L 176.12,209.01 L 174.36,209.26 L 173.75,209.33 L 174.03,209.20 L 174.35,209.00 L 174.66,208.45 L 174.81,208.06 L 174.85,207.29 L 174.82,206.91 L 174.54,206.17 L 174.36,205.81 L 173.78,205.11 L 173.46,204.77 L 172.61,204.13 L 171.70,203.52 L 169.19,202.54 L 164.58,201.62 L 162.78,201.43 L 159.00,200.79 L 157.13,200.43 L 155.61,200.05 L 158.95,200.71 L 161.03,200.97 L 165.17,201.39 L 167.00,201.39 L 173.00,201.03 L 176.86,200.40 L 178.80,199.87 L 182.71,198.65 L 184.76,197.81 L 188.95,195.94 L 191.23,194.75 L 193.06,193.80 L 194.07,193.29 L 194.49,193.10 L 195.97,192.49 L 196.51,192.40 L 197.49,192.36 M 148.47,206.63 L 148.39,206.60 L 148.17,206.51 M 148.84,192.87 L 148.22,194.21 L 148.00,194.78 L 147.62,195.85 L 147.53,196.24 L 147.44,196.90 L 147.39,196.82 L 147.41,196.29 L 147.44,195.99 L 147.68,195.22 L 149.04,192.43 L 149.20,192.17 M 125.82,140.61 L 129.77,141.68 L 131.51,142.23 L 134.83,143.34 L 136.28,143.92 L 139.05,145.11 L 140.26,145.74 L 142.56,147.04 L 143.56,147.75 L 145.47,149.21 L 146.30,150.01 L 147.89,151.67 L 148.60,152.59 L 149.96,154.48 L 150.57,155.53 L 152.67,160.42 L 153.56,164.11 L 153.74,166.12 L 153.94,168.14 L 154.06,169.24 L 154.14,169.69 L 154.47,171.21 L 154.78,171.72 L 155.53,172.60 L 156.15,172.97 L 157.61,173.71 L 158.70,174.19 L 161.28,175.17 L 160.43,174.89 L 158.94,174.33 L 156.34,173.63 L 155.76,173.50 L 154.88,173.38 L 154.09,173.44 L 153.80,173.63 L 153.22,174.78 L 152.94,175.43 L 152.51,177.06 L 152.32,177.88 L 152.17,179.36 L 152.15,179.70 L 152.20,180.23 L 152.42,180.75 L 152.50,180.83 L 153.18,181.17 L 153.60,181.35 L 154.82,181.85 L 155.49,182.11 L 157.10,182.71 L 159.76,183.65 L 160.63,183.95 L 158.29,183.22 L 156.91,182.80 L 156.36,182.65 L 155.35,182.37 L 154.97,182.29 L 154.27,182.16 L 154.03,182.15 L 153.27,182.25 L 153.14,182.50 L 153.00,183.15 L 153.00,183.67 L 152.76,184.74 L 152.38,185.79 L 152.11,186.43 L 150.80,189.23 L 150.45,189.86 L 150.61,189.21 L 150.66,188.84 L 150.46,188.22 L 149.75,187.20 L 149.62,187.05 L 149.17,186.36 L 148.91,185.95 L 148.22,184.77 L 147.86,184.13 L 146.98,182.56 L 146.51,181.72 L 145.47,179.81 L 144.40,177.82 L 141.92,173.13 L 140.64,170.71 L 137.98,165.58 L 136.66,163.01 L 134.11,157.98 L 132.87,155.53 L 130.71,151.16 L 130.21,150.14 L 129.33,148.31 L 128.91,147.44 L 128.23,145.96 L 127.91,145.28 L 127.46,144.23 L 127.08,143.21 L 126.91,142.59 L 126.43,141.68 L 126.13,141.27 L 125.00,140.61 L 124.65,140.45 L 123.76,140.13 L 123.47,140.04 M 162.98,184.55 L 164.15,184.82 L 166.66,185.26 L 169.20,185.66 L 173.63,185.99 L 172.03,185.97 L 170.36,185.83 L 167.04,185.46 L 165.45,185.16 L 162.32,184.48 L 160.84,184.01 L 160.78,183.99 M 204.58,173.14 L 206.06,175.02 L 206.25,175.56 L 206.24,175.82 L 206.16,176.33 L 206.01,176.58 L 205.64,177.09 L 205.35,177.36 L 204.67,177.91 L 204.21,178.21 L 203.21,178.83 L 202.58,179.17 L 201.24,179.89 L 200.43,180.30 L 195.85,182.30 L 192.63,183.43 L 190.96,183.89 L 187.59,184.73 L 185.86,185.05 L 182.41,185.60 L 181.69,185.66 L 182.32,185.46 L 182.76,185.27 L 183.00,184.75 L 183.00,184.43 L 182.71,183.74 L 182.53,183.39 L 181.91,182.66 L 181.23,181.93 L 179.11,180.50 L 177.97,179.81 L 175.30,178.67 L 171.17,177.61 L 170.43,177.52 L 168.67,177.18 L 168.00,177.04 L 170.21,177.42 L 171.71,177.55 L 174.72,177.73 L 176.26,177.69 L 179.35,177.54 L 180.93,177.34 L 184.11,176.87 L 185.73,176.51 L 189.00,175.71 L 190.66,175.18 L 194.02,174.05 L 195.74,173.37 L 202.23,170.77 M 174.85,126.10 L 175.59,126.30 L 175.90,126.49 L 176.46,126.95 L 176.69,127.30 L 177.10,128.09 L 177.26,128.65 L 177.54,129.87 L 177.63,130.67 L 177.81,132.39 L 177.86,133.48 L 177.95,135.80 L 177.97,137.21 L 178.00,140.22 L 178.00,142.00 L 177.98,145.26 L 177.95,147.22 L 177.93,148.10 L 177.87,149.79 L 177.84,150.53 L 177.76,151.95 L 177.71,152.56 L 177.48,154.74 L 177.33,155.44 L 177.00,156.60 L 176.80,156.80 L 175.93,157.43 L 175.34,157.65 L 174.08,158.00 L 173.50,158.00 L 172.15,157.90 L 171.41,157.70 L 171.10,157.51 L 171.05,157.46 L 171.08,157.48 L 171.37,157.49 L 171.63,157.45 L 171.81,156.68 L 171.84,156.20 L 171.55,154.73 L 171.35,153.93 L 170.57,151.95 L 169.08,148.50 L 169.07,148.84 L 169.05,148.20 L 169.03,146.79 L 169.00,143.78 L 169.00,142.00 L 169.03,137.21 L 169.08,134.56 L 169.14,133.48 L 169.27,131.46 L 169.37,130.67 L 169.59,129.20 L 169.74,128.65 L 170.09,127.65 L 170.31,127.30 L 170.80,126.69 L 171.10,126.49 L 171.76,126.18 L 172.15,126.10 L 173.00,126.00 L 173.50,126.00 M 100.49,133.61 L 101.76,134.14 L 104.48,135.18 L 106.15,135.69 L 109.73,136.73 L 111.88,137.28 L 114.10,137.82 L 115.30,138.11 L 115.86,138.24 L 114.55,137.96 L 110.59,137.00 L 108.71,136.52 L 105.53,135.57 L 104.03,135.08 L 101.55,134.08 L 100.39,133.57 L 99.91,133.28 M 194.63,107.29 L 195.32,107.84 L 195.66,108.35 L 196.34,109.56 L 196.71,110.48 L 197.50,112.55 L 197.99,113.98 L 199.84,117.60 L 201.55,119.66 L 202.57,120.46 L 204.72,121.89 L 205.90,122.33 L 208.30,123.00 L 209.54,123.00 L 211.58,123.26 L 212.60,123.70 L 212.96,124.07 L 213.58,124.91 L 213.75,125.49 L 214.00,126.77 L 214.00,127.58 L 213.87,127.99 L 213.63,128.16 L 213.05,128.48 L 212.63,128.59 L 210.64,128.97 L 209.39,128.99 L 206.80,128.94 L 205.58,128.75 L 204.39,128.53 L 203.87,128.38 L 202.88,128.05 L 202.50,127.84 L 199.95,126.09 L 198.18,124.59 L 197.34,123.76 L 195.70,122.05 L 195.03,121.20 L 193.79,119.53 L 193.41,118.80 L 192.33,115.41 L 191.98,112.77 L 191.98,111.52 L 192.02,110.31 L 192.08,109.76 L 192.23,108.74 L 192.35,108.33 L 192.63,107.59 L 192.81,107.36 L 193.20,107.00 L 193.44,107.00 M 72.05,127.30 L 72.05,127.26 L 72.06,125.62 M 94.00,123.30 L 94.00,123.09 L 94.09,124.37 M 95.58,116.37 L 95.18,117.17 L 94.48,118.87 L 94.28,119.85 L 94.26,120.03 L 94.32,119.58 L 94.42,118.99 L 94.66,117.98 L 95.08,116.85 L 95.23,116.56 L 95.80,115.94 L 96.11,115.62 L 96.42,115.39 M 116.65,89.58 L 118.49,89.68 L 122.17,89.96 L 123.99,90.20 L 127.60,90.75 L 129.35,91.12 L 132.83,91.94 L 134.50,92.46 L 137.07,93.37 L 138.99,94.16 L 140.01,94.62 L 144.21,96.62 L 146.22,97.70 L 148.18,98.79 L 149.08,99.32 L 150.80,100.36 L 151.52,100.83 L 152.85,101.76 L 153.33,102.15 L 154.15,102.88 L 154.33,103.16 L 154.79,105.12 L 154.50,106.79 L 154.05,107.87 L 151.92,112.21 L 150.27,114.96 L 149.44,116.11 L 147.78,118.24 L 147.07,118.92 L 146.37,119.53 L 146.07,119.72 L 145.50,120.00 L 145.27,120.00 L 143.93,119.67 L 142.49,119.14 L 141.57,118.76 L 139.63,117.92 L 138.54,117.41 L 136.31,116.35 L 135.16,115.77 L 132.48,114.43 L 130.96,113.70 L 130.28,113.40 L 127.75,112.39 L 126.52,112.09 L 124.00,111.60 L 122.39,111.47 L 120.70,111.34 L 119.70,111.30 L 117.61,111.20 L 116.36,111.16 L 110.67,111.11 L 107.35,111.26 L 105.91,111.44 L 103.19,111.86 L 102.52,112.05 L 103.69,111.62 L 106.82,111.02 L 107.17,111.02 L 107.74,110.94 L 107.99,110.88 L 108.34,110.64 L 108.48,110.50 L 108.59,110.03 L 108.61,109.76 L 108.47,109.00 L 108.37,108.58 L 107.96,107.45 L 107.72,106.83 L 107.03,105.28 L 106.65,104.44 L 105.66,102.38 L 103.81,98.66 L 103.35,97.73 L 102.56,96.19 L 102.19,95.47 L 101.57,94.31 L 101.27,93.78 L 100.75,92.96 L 100.51,92.58 L 100.06,92.05 L 99.63,91.58 L 98.78,91.29 L 98.39,91.34 L 100.33,90.88 L 102.09,90.58 L 105.64,90.04 L 107.45,89.87 L 111.11,89.61 L 112.95,89.58 M 73.52,112.24 L 73.57,112.07 L 74.67,109.28 L 74.74,109.15 M 91.81,93.31 L 89.25,94.58 L 87.99,95.26 L 85.60,96.81 L 84.44,97.62 L 83.44,98.44 L 84.28,97.66 L 86.22,96.32 L 88.17,95.05 L 89.16,94.53 L 91.13,93.55 L 92.01,93.23 M 72.51,132.88 L 72.39,131.80 L 72.07,127.57 L 72.40,131.83 L 72.52,132.91 L 72.84,134.91 L 73.47,137.57 L 72.84,134.89 Z" fill="rgb(231,4,6)"/>
<path d="M 153.40,208.15 L 155.09,208.58 L 158.54,209.19 L 160.27,209.46 L 163.78,209.73 L 165.54,209.82 L 169.07,209.75 L 170.83,209.67 L 174.36,209.26 L 175.69,209.07 L 172.90,209.61 L 169.88,209.79 L 163.84,209.90 L 160.86,209.57 L 154.92,208.65 L 152.03,207.81 L 151.13,207.51 M 186.14,206.27 L 184.35,206.88 L 180.74,208.03 L 178.91,208.46 L 176.93,208.84 L 179.61,208.26 L 181.34,207.84 L 184.76,206.73 L 186.35,206.18 M 148.18,206.51 L 146.31,205.89 L 145.15,205.31 M 189.64,204.77 L 189.15,204.98 L 190.27,204.49 M 178.80,199.87 L 176.86,200.40 L 176.01,200.54 L 176.76,200.41 L 178.54,199.94 L 179.63,199.61 M 149.02,198.01 L 149.95,198.38 L 151.97,199.12 L 153.22,199.49 L 153.68,199.62 L 152.27,199.24 L 151.44,199.00 L 150.03,198.51 L 149.37,198.26 L 148.39,197.76 L 148.06,197.48 M 182.71,198.65 L 182.57,198.70 L 183.10,198.49 M 221.98,158.99 L 224.11,160.72 L 224.61,161.22 L 224.76,161.42 L 225.00,161.77 L 225.00,161.87 L 224.77,163.41 L 224.41,164.76 L 224.13,165.57 L 223.53,167.26 L 223.16,168.20 L 222.37,170.13 L 221.92,171.14 L 219.99,175.28 L 218.93,177.28 L 217.86,179.25 L 217.32,180.16 L 216.26,181.92 L 215.74,182.69 L 212.31,187.32 L 209.80,190.25 L 208.45,191.62 L 205.67,194.30 L 204.20,195.54 L 201.19,197.96 L 200.56,198.41 L 200.95,198.07 L 201.60,197.33 L 202.00,196.42 L 202.00,196.23 L 201.80,195.76 L 201.67,195.51 L 201.26,194.96 L 199.48,193.39 L 198.88,193.00 L 197.94,192.53 L 197.49,192.36 L 196.51,192.40 L 195.97,192.49 L 194.49,193.10 L 194.07,193.29 L 193.06,193.80 L 191.23,194.75 L 188.95,195.94 L 188.41,196.19 L 188.92,195.92 L 192.22,194.11 L 193.81,193.06 L 196.93,190.87 L 198.40,189.64 L 200.31,187.94 L 201.69,186.60 L 202.41,185.86 L 205.30,182.81 L 206.59,181.32 L 207.84,179.85 L 208.38,179.18 L 209.38,177.90 L 209.76,177.37 L 210.42,176.39 L 210.59,176.05 L 210.82,175.48 L 210.73,175.40 L 210.01,175.57 L 209.01,175.98 L 208.30,176.30 L 206.77,177.01 L 205.86,177.46 L 203.97,178.41 L 203.41,178.70 L 204.21,178.21 L 204.67,177.91 L 205.35,177.36 L 205.64,177.09 L 206.01,176.58 L 206.16,176.33 L 206.24,175.82 L 206.25,175.56 L 206.06,175.02 L 204.58,173.14 L 202.23,170.77 L 195.74,173.37 L 194.02,174.05 L 193.33,174.29 L 194.05,174.01 L 198.60,172.08 L 200.81,170.89 L 205.19,168.34 L 207.30,166.85 L 211.45,163.70 L 213.41,161.91 L 218.96,156.84 M 152.39,185.78 L 152.12,186.41 L 150.82,189.19 L 150.00,190.65 L 149.96,190.73 L 149.97,190.71 L 150.80,189.23 L 152.11,186.43 L 152.38,185.79 L 152.76,184.74 L 153.00,183.67 L 152.76,184.74 M 165.45,185.16 L 167.04,185.46 L 170.36,185.83 L 172.03,185.97 L 175.46,186.02 L 177.19,186.01 L 180.67,185.76 L 182.41,185.60 L 184.38,185.28 L 183.31,185.49 L 181.51,185.70 L 177.93,186.05 L 176.15,186.09 L 172.62,186.08 L 170.89,185.94 L 167.45,185.57 L 165.77,185.25 L 162.44,184.52 L 160.84,184.01 L 162.32,184.48 M 160.29,174.79 L 166.66,176.70 L 171.07,177.44 L 173.34,177.55 L 177.90,177.60 L 180.20,177.36 L 184.49,176.78 L 184.11,176.87 L 180.93,177.34 L 179.35,177.54 L 176.26,177.69 L 174.72,177.73 L 171.71,177.55 L 170.21,177.42 L 167.27,176.92 L 165.81,176.63 L 162.94,175.80 L 158.70,174.19 L 157.93,173.85 M 189.00,175.71 L 187.62,176.04 L 190.24,175.31 M 153.60,164.35 L 153.80,166.17 L 154.25,170.18 L 154.14,169.69 L 154.06,169.24 L 153.94,168.14 L 153.74,166.12 L 153.57,164.24 M 152.22,159.17 L 152.43,159.87 L 150.86,156.20 M 150.00,154.53 L 150.13,154.79 L 149.96,154.48 L 149.41,153.72 M 148.07,151.87 L 148.31,152.21 L 148.01,151.82 M 143.36,147.56 L 144.67,148.56 L 144.86,148.74 L 143.56,147.75 L 142.95,147.32 M 138.81,144.96 L 140.38,145.81 L 140.65,145.97 L 140.26,145.74 L 139.05,145.11 L 136.54,144.03 M 135.05,143.43 L 135.68,143.68 L 134.86,143.36 M 130.68,141.95 L 131.83,142.32 L 134.05,143.05 L 134.81,143.34 L 131.51,142.23 L 129.95,141.74 M 126.83,140.86 L 128.14,141.22 L 129.40,141.58 L 125.82,140.61 L 119.11,138.99 L 123.93,140.12 M 212.67,93.35 L 215.04,93.91 L 216.13,94.35 L 218.26,95.33 L 219.22,95.96 L 221.06,97.30 L 221.87,98.10 L 223.39,99.79 L 224.03,100.74 L 225.20,102.72 L 225.64,103.80 L 226.42,106.04 L 226.65,107.24 L 227.00,109.70 L 227.00,111.00 L 226.59,115.39 L 226.31,116.77 L 226.14,117.35 L 225.78,118.43 L 225.59,118.80 L 223.73,121.57 L 222.12,123.40 L 221.22,124.24 L 219.36,125.83 L 218.42,126.47 L 216.55,127.61 L 215.68,127.94 L 213.66,128.53 L 212.46,128.70 L 211.67,128.77 L 212.63,128.59 L 213.05,128.48 L 213.63,128.16 L 213.87,127.99 L 214.00,127.58 L 214.00,126.77 L 213.75,125.49 L 213.58,124.91 L 212.96,124.07 L 212.60,123.70 L 211.58,123.26 L 209.84,123.04 L 210.44,122.96 L 212.67,122.42 L 213.77,121.78 L 215.98,120.25 L 217.12,119.12 L 219.71,115.81 L 220.77,113.56 L 220.97,112.40 L 221.13,110.04 L 220.89,108.81 L 220.17,106.29 L 219.48,104.97 L 218.12,102.88 L 217.08,101.74 L 216.50,101.29 L 215.30,100.47 L 214.66,100.16 L 213.36,99.64 L 212.68,99.48 L 209.91,99.11 L 208.51,99.30 L 205.72,99.92 L 204.43,100.55 L 201.94,102.00 L 200.91,102.99 L 199.93,104.01 L 199.51,104.58 L 198.72,105.76 L 198.41,106.39 L 197.86,107.70 L 197.69,108.39 L 197.42,109.81 L 197.39,110.55 L 197.43,112.06 L 197.56,112.71 L 197.50,112.55 L 196.71,110.48 L 196.34,109.56 L 195.66,108.35 L 195.32,107.84 L 194.63,107.29 L 193.44,107.00 L 193.20,107.00 L 192.81,107.36 L 192.63,107.59 L 192.35,108.33 L 192.23,108.74 L 192.08,109.76 L 192.02,110.31 L 191.98,111.52 L 191.98,112.77 L 192.33,115.41 L 193.22,118.20 L 192.54,117.08 L 191.94,115.51 L 191.40,113.94 L 191.24,113.19 L 191.00,111.70 L 191.00,111.01 L 191.40,107.95 L 192.03,105.66 L 192.48,104.51 L 193.45,102.24 L 194.01,101.24 L 195.18,99.36 L 195.79,98.68 L 198.40,96.51 L 200.57,95.21 L 201.77,94.70 L 204.21,93.75 L 205.43,93.46 L 207.82,93.00 L 208.90,93.00 M 203.14,128.19 L 202.88,128.05 L 203.65,128.30 M 198.18,124.59 L 198.26,124.67 L 198.13,124.57 L 197.85,124.27 M 208.30,123.00 L 207.57,122.79 L 208.71,123.00 M 205.31,122.11 L 204.72,121.89 L 203.98,121.40 Z" fill="rgb(253,34,82)"/>
<path d="M 0.00,147.50 L 0.00,0.00 L 147.50,0.00 L 295.00,0.00 L 295.00,147.50 L 295.00,295.00 L 147.50,295.00 L 0.00,295.00 L 0.00,147.50 M 178.91,208.46 L 180.74,208.03 L 184.35,206.88 L 186.14,206.27 L 189.64,204.77 L 191.38,203.98 L 194.75,202.16 L 196.41,201.20 L 199.62,199.07 L 201.19,197.96 L 204.20,195.54 L 205.67,194.30 L 208.45,191.62 L 209.80,190.25 L 212.31,187.32 L 215.74,182.69 L 216.26,181.92 L 217.32,180.16 L 217.86,179.25 L 218.93,177.28 L 219.99,175.28 L 221.92,171.14 L 222.37,170.13 L 223.16,168.20 L 223.53,167.26 L 224.13,165.57 L 224.41,164.76 L 224.77,163.41 L 225.00,161.87 L 225.00,161.77 L 224.76,161.42 L 224.61,161.22 L 224.11,160.72 L 221.98,158.99 L 218.96,156.84 L 213.41,161.91 L 211.45,163.70 L 207.30,166.85 L 205.19,168.34 L 200.81,170.89 L 198.60,172.08 L 194.05,174.01 L 191.77,174.89 L 187.15,176.17 L 184.83,176.74 L 180.20,177.36 L 177.90,177.60 L 173.34,177.55 L 171.07,177.44 L 166.66,176.70 L 160.29,174.79 L 154.50,172.49 L 153.80,166.17 L 153.60,164.35 L 152.73,160.87 L 152.22,159.17 L 150.78,156.04 L 150.00,154.53 L 148.07,151.87 L 144.67,148.56 L 143.36,147.56 L 140.38,145.81 L 138.81,144.96 L 135.05,143.43 L 134.05,143.05 L 131.83,142.32 L 130.68,141.95 L 128.14,141.22 L 126.83,140.86 L 123.93,140.12 L 119.11,138.99 L 117.77,138.69 L 115.30,138.11 L 114.10,137.82 L 111.88,137.28 L 109.73,136.73 L 106.15,135.69 L 104.48,135.18 L 101.76,134.14 L 100.49,133.61 L 98.53,132.50 L 97.63,131.93 L 96.30,130.68 L 95.71,130.03 L 94.91,128.58 L 94.57,127.81 L 94.20,126.08 L 94.00,123.09 L 94.00,121.91 L 94.28,119.85 L 94.48,118.87 L 95.18,117.17 L 95.58,116.37 L 96.73,115.02 L 97.36,114.39 L 99.00,113.37 L 99.88,112.90 L 102.04,112.18 L 103.19,111.86 L 105.91,111.44 L 107.35,111.26 L 110.67,111.11 L 116.36,111.16 L 117.61,111.20 L 119.70,111.30 L 120.70,111.34 L 122.39,111.47 L 124.00,111.60 L 126.52,112.09 L 127.75,112.39 L 130.28,113.40 L 130.96,113.70 L 132.48,114.43 L 135.16,115.77 L 136.31,116.35 L 138.54,117.41 L 139.63,117.92 L 141.57,118.76 L 142.49,119.14 L 143.93,119.67 L 145.27,120.00 L 145.50,120.00 L 146.07,119.72 L 146.37,119.53 L 147.07,118.92 L 147.78,118.24 L 149.44,116.11 L 150.27,114.96 L 151.92,112.21 L 154.05,107.87 L 154.50,106.79 L 154.79,105.12 L 154.33,103.16 L 154.15,102.88 L 153.33,102.15 L 152.85,101.76 L 151.52,100.83 L 150.80,100.36 L 149.08,99.32 L 148.18,98.79 L 146.22,97.70 L 144.21,96.62 L 140.01,94.62 L 138.99,94.16 L 137.07,93.37 L 134.50,92.46 L 132.83,91.94 L 129.35,91.12 L 127.60,90.75 L 123.99,90.20 L 122.17,89.96 L 118.49,89.68 L 116.65,89.58 L 112.95,89.58 L 111.11,89.61 L 107.45,89.87 L 105.64,90.04 L 102.09,90.58 L 100.33,90.88 L 96.95,91.68 L 92.11,93.19 L 91.13,93.55 L 89.16,94.53 L 88.17,95.05 L 86.22,96.32 L 84.28,97.66 L 80.72,100.97 L 79.88,101.83 L 78.33,103.64 L 77.58,104.56 L 76.28,106.44 L 75.67,107.39 L 74.67,109.28 L 73.57,112.07 L 73.32,112.90 L 72.92,114.81 L 72.73,115.80 L 72.45,117.95 L 72.20,120.15 L 72.06,124.89 L 72.05,127.26 L 72.39,131.80 L 72.51,132.88 L 72.84,134.89 L 73.47,137.57 L 73.66,138.24 L 74.29,139.66 L 74.64,140.38 L 75.53,141.87 L 76.47,143.37 L 78.96,146.36 L 80.26,147.82 L 83.18,150.40 L 87.62,153.35 L 88.04,153.56 L 89.26,154.04 L 89.92,154.29 L 91.58,154.83 L 92.47,155.10 L 94.53,155.69 L 95.60,155.99 L 98.01,156.61 L 99.26,156.93 L 101.97,157.58 L 103.36,157.90 L 106.33,158.56 L 115.93,160.52 L 118.25,160.97 L 122.70,162.09 L 123.72,162.36 L 125.41,162.89 L 127.16,163.58 L 128.12,164.08 L 129.73,165.55 L 130.48,166.36 L 131.61,168.29 L 132.10,169.29 L 132.63,171.48 L 132.64,174.81 L 132.50,175.71 L 131.94,177.38 L 131.62,178.19 L 130.74,179.67 L 130.27,180.39 L 129.09,181.69 L 128.47,182.32 L 127.02,183.43 L 126.27,183.96 L 124.58,184.88 L 123.71,185.32 L 121.80,186.04 L 120.83,186.38 L 118.73,186.90 L 117.67,187.14 L 115.42,187.46 L 113.13,187.73 L 108.20,187.66 L 105.69,187.52 L 100.47,186.59 L 97.84,186.02 L 92.56,184.22 L 84.81,180.51 L 83.74,179.89 L 81.65,178.76 L 80.63,178.22 L 78.78,177.32 L 77.91,176.92 L 76.53,176.36 L 75.20,176.00 L 74.89,176.00 L 74.09,176.49 L 73.65,176.81 L 72.59,177.94 L 72.02,178.59 L 70.71,180.35 L 68.49,183.67 L 63.63,191.34 L 67.56,194.74 L 68.18,195.28 L 69.71,196.41 L 70.51,196.97 L 72.33,198.13 L 74.20,199.28 L 78.54,201.52 L 80.76,202.61 L 85.38,204.51 L 92.00,206.68 L 93.60,207.10 L 97.13,207.72 L 98.94,208.00 L 102.79,208.34 L 104.74,208.47 L 108.74,208.54 L 110.75,208.54 L 114.77,208.35 L 116.77,208.23 L 120.64,207.78 L 122.55,207.53 L 126.14,206.85 L 127.88,206.47 L 131.02,205.56 L 135.08,203.93 L 135.96,203.49 L 137.21,202.95 L 137.79,202.74 L 138.83,202.68 L 139.37,202.72 L 140.70,203.20 L 141.07,203.35 L 141.96,203.76 L 143.58,204.55 L 146.31,205.89 L 152.03,207.81 L 154.92,208.65 L 160.86,209.57 L 163.84,209.90 L 169.88,209.79 L 172.90,209.61 M 176.80,156.80 L 177.00,156.60 L 177.33,155.44 L 177.48,154.74 L 177.71,152.56 L 177.76,151.95 L 177.84,150.53 L 177.87,149.79 L 177.93,148.10 L 177.95,147.22 L 177.98,145.26 L 178.00,142.00 L 178.00,140.22 L 177.97,137.21 L 177.95,135.80 L 177.86,133.48 L 177.81,132.39 L 177.63,130.67 L 177.54,129.87 L 177.26,128.65 L 177.10,128.09 L 176.69,127.30 L 176.46,126.95 L 175.90,126.49 L 175.59,126.30 L 174.85,126.10 L 173.50,126.00 L 173.00,126.00 L 172.15,126.10 L 171.76,126.18 L 171.10,126.49 L 170.80,126.69 L 170.31,127.30 L 170.09,127.65 L 169.74,128.65 L 169.59,129.20 L 169.37,130.67 L 169.27,131.46 L 169.14,133.48 L 169.08,134.56 L 169.03,137.21 L 169.00,142.00 L 169.00,143.78 L 169.03,146.79 L 169.05,148.20 L 169.14,150.52 L 169.19,151.61 L 169.37,153.33 L 169.46,154.13 L 169.74,155.35 L 169.90,155.91 L 170.31,156.70 L 170.54,157.05 L 171.10,157.51 L 171.41,157.70 L 172.15,157.90 L 173.50,158.00 L 174.08,158.00 L 175.34,157.65 L 175.93,157.43 M 215.68,127.94 L 216.55,127.61 L 218.42,126.47 L 219.36,125.83 L 221.22,124.24 L 222.12,123.40 L 223.73,121.57 L 225.59,118.80 L 225.78,118.43 L 226.14,117.35 L 226.31,116.77 L 226.59,115.39 L 227.00,111.00 L 227.00,109.70 L 226.65,107.24 L 226.42,106.04 L 225.64,103.80 L 225.20,102.72 L 224.03,100.74 L 223.39,99.79 L 221.87,98.10 L 221.06,97.30 L 219.22,95.96 L 218.26,95.33 L 216.13,94.35 L 215.04,93.91 L 212.67,93.35 L 208.90,93.00 L 207.82,93.00 L 205.43,93.46 L 204.21,93.75 L 201.77,94.70 L 200.57,95.21 L 198.40,96.51 L 195.79,98.68 L 195.18,99.36 L 194.01,101.24 L 193.45,102.24 L 192.48,104.51 L 192.03,105.66 L 191.40,107.95 L 191.00,111.01 L 191.00,111.70 L 191.24,113.19 L 191.40,113.94 L 191.94,115.51 L 192.54,117.08 L 194.46,120.24 L 195.52,121.79 L 198.13,124.57 L 202.50,127.84 L 203.14,128.19 L 205.13,128.64 L 206.21,128.82 L 208.70,128.93 L 209.96,128.94 L 212.46,128.70 L 213.66,128.53 M 157.33,200.56 L 155.85,200.22 L 153.22,199.49 L 151.97,199.12 L 149.95,198.38 L 149.02,198.01 L 147.78,197.33 L 147.00,196.45 L 147.00,196.38 L 147.24,195.84 L 147.39,195.52 L 147.88,194.55 L 148.15,194.02 L 148.84,192.76 L 150.00,190.65 L 150.82,189.19 L 152.12,186.41 L 152.39,185.78 L 152.76,184.74 L 153.00,183.67 L 153.00,183.15 L 153.14,182.50 L 153.27,182.25 L 154.03,182.15 L 154.27,182.16 L 154.97,182.29 L 155.35,182.37 L 156.36,182.65 L 156.91,182.80 L 158.29,183.22 L 160.84,184.01 L 162.44,184.52 L 165.77,185.25 L 167.45,185.57 L 170.89,185.94 L 172.62,186.08 L 176.15,186.09 L 177.93,186.05 L 181.51,185.70 L 183.31,185.49 L 186.92,184.79 L 188.72,184.40 L 192.33,183.36 L 194.12,182.79 L 197.68,181.41 L 202.94,178.95 L 203.97,178.41 L 205.86,177.46 L 206.77,177.01 L 208.30,176.30 L 209.01,175.98 L 210.01,175.57 L 210.73,175.40 L 210.82,175.48 L 210.59,176.05 L 210.42,176.39 L 209.76,177.37 L 209.38,177.90 L 208.38,179.18 L 207.84,179.85 L 206.59,181.32 L 205.30,182.81 L 202.41,185.86 L 201.69,186.60 L 200.31,187.94 L 198.40,189.64 L 196.93,190.87 L 193.81,193.06 L 192.22,194.11 L 188.92,195.92 L 187.25,196.78 L 183.80,198.22 L 182.07,198.89 L 178.54,199.94 L 176.76,200.41 L 173.18,201.04 L 171.39,201.31 L 167.82,201.53 L 166.04,201.59 L 162.51,201.37 L 160.76,201.21 M 203.19,120.97 L 202.72,120.69 L 201.77,119.89 L 201.29,119.46 L 200.38,118.46 L 198.31,115.23 L 197.97,114.42 L 197.58,112.84 L 197.43,112.06 L 197.39,110.55 L 197.42,109.81 L 197.69,108.39 L 197.86,107.70 L 198.41,106.39 L 198.72,105.76 L 199.51,104.58 L 199.93,104.01 L 200.91,102.99 L 201.94,102.00 L 204.43,100.55 L 205.72,99.92 L 208.51,99.30 L 209.91,99.11 L 212.68,99.48 L 213.36,99.64 L 214.66,100.16 L 215.30,100.47 L 216.50,101.29 L 217.08,101.74 L 218.12,102.88 L 219.48,104.97 L 220.17,106.29 L 220.89,108.81 L 221.13,110.04 L 220.97,112.40 L 220.77,113.56 L 219.71,115.81 L 217.12,119.12 L 215.98,120.25 L 213.77,121.78 L 212.67,122.42 L 210.44,122.96 L 209.31,123.11 L 206.96,122.68 L 205.76,122.35 Z" fill="rgb(254,254,254)"/>
</g>
</svg>
